<svg width="45px" height="45px" viewBox="0 0 45 45" version="1.1" xmlns="http://www.w3.org/2000/svg" xmlns:xlink="http://www.w3.org/1999/xlink">
  <!-- Generator: Sketch 58 (84663) - https://sketch.com -->
  <title>icon-integrations</title>
  <desc>Created with Sketch.</desc>
  <g id="Page-1" stroke="none" stroke-width="1" fill="none" fill-rule="evenodd">
    <g id="icon-integrations" fill-rule="nonzero">
      <g id="Group">
        <circle id="Oval" fill="#2CA01C" cx="22.5" cy="22.5" r="22.5"></circle>
        <path d="M6.24807692,22.5 C6.24903244,27.3315647 10.1655507,31.2480829 14.9971154,31.2490385 L16.2484615,31.2490385 L16.2484615,27.9986538 L14.9971154,27.9986538 C11.9618741,27.9948395 9.50227586,25.5352413 9.49846154,22.5 C9.50132231,19.4640828 11.9611992,17.0034316 14.9971154,16.9996154 L18.0017308,16.9996154 L18.0017308,33.9992308 C18.0017308,35.7940385 19.4555769,37.2496154 21.2521154,37.2496154 L21.2521154,13.7492308 L14.9971154,13.7492308 C10.1648749,13.7501865 6.24807692,17.6677594 6.24807692,22.5 Z M30.0028846,13.7509615 L28.7515385,13.7509615 L28.7515385,17.0013462 L30.0028846,17.0013462 C33.0381259,17.0051605 35.4977241,19.4647587 35.5015385,22.5 C35.4986777,25.5359172 33.0388008,27.9965684 30.0028846,28.0003846 L26.9982692,28.0003846 L26.9982692,11.0007692 C26.9982692,9.20596154 25.5444231,7.75038462 23.7478846,7.75038462 L23.7478846,31.2507692 L30.0028846,31.2507692 C34.7873363,31.1834776 38.6305896,27.2857903 38.6305896,22.5008654 C38.6305896,17.7159405 34.7873363,13.8182531 30.0028846,13.7509615 L30.0028846,13.7509615 Z" id="Shape" fill="#FFFFFF"></path>
      </g>
    </g>
  </g>
</svg>