<svg width="52" height="47" xmlns="http://www.w3.org/2000/svg">
  <defs>
    <linearGradient x1="100%" y1="9.153%" x2="0%" y2="90.847%" id="a">
      <stop stop-color="#23EA76" offset="0%"></stop>
      <stop stop-color="#00AB6A" offset="100%"></stop>
    </linearGradient>
  </defs>
  <path d="M341.54 3316.404v-3.618c-4.188-.358-7.112-2.471-8.375-6.089l2.671-1.36c.541 2.65 2.96 4.512 5.703 5.014v-8.31c-3.718-.788-7.436-1.79-7.436-6.017 0-3.546 2.78-6.411 7.436-6.805v-3.618h2.49v3.654c3.646.286 5.776 1.898 7.436 4.942l-2.346 1.827c-1.19-2.722-2.563-4.012-5.09-4.334v8.417c3.719.788 7.473 1.827 7.473 6.16 0 3.726-2.96 6.161-7.472 6.52v3.617h-2.49zm0-16.798v-7.952c-3.105.287-4.693 1.791-4.693 4.155 0 2.328 2.093 3.188 4.692 3.797zm2.49 10.816c2.923-.25 4.764-1.432 4.764-3.94 0-2.4-2.13-3.295-4.764-3.904v7.844zm-8.266-25.416c.154 1.393-.534 2.466-1.91 2.466-.926 0-1.6-.418-2.217-.822-.463.501-1.137.822-1.98.822-.954 0-1.628-.474-1.628-1.254 0-.766.716-1.281 1.727-1.281.52 0 .94.083 1.291.209v-.14c0-.46-.112-.863-.393-1.35h-2.274v-1.213h1.39c-.491-.682-.646-1.142-.646-1.685 0-1.518 1.18-2.758 3.2-2.758 1.713 0 2.752.766 3.131 2.34l-1.586.752c-.267-1.114-.702-1.63-1.6-1.63-.885 0-1.446.488-1.446 1.254 0 .432.168.808.688 1.56.042.056.084.112.112.167h2.709v1.212h-2.078c.113.32.155.64.155.975 0 .376-.07.752-.197 1.1.393.223.786.404 1.306.404.702 0 1.025-.376 1.01-1.24l1.236.112zm-6.008 1.63c.491 0 .828-.195 1.039-.53-.323-.167-.66-.292-1.04-.292-.406 0-.603.153-.603.39 0 .279.253.432.604.432zm-7.366 15.31l.758-.056h1.727v.836h-2.71v.96h2.71v.795h-2.71v1.616h-1.81v-1.616h-2.695v-.794h2.695v-.961h-2.695v-.836h1.712l.758.056-3.13-5.043h2.035l1.573 3.065.645 1.407h.028l.632-1.421 1.572-3.05h2.036l-3.13 5.042zm10.552 19.335h-1.782v.92h2.526v1.295h-2.526V3325h-1.895v-1.504h-1.236v-1.296h1.236v-.919h-1.236v-1.379h1.236v-4.095h3.677c2.19 0 3.411.975 3.411 2.744 0 1.755-1.22 2.73-3.41 2.73zm-1.782-3.97v2.591h1.488c1.193 0 1.74-.404 1.74-1.295 0-.892-.547-1.296-1.74-1.296h-1.488zm21.033-38.316h7.019v.995h-7.019v-.995zm-.782 2.915h8.673v1.005h-2.657v3.363c0 .258.11.388.341.388h1.103c.12 0 .22-.08.28-.23.071-.158.121-.646.141-1.452l.943.299c-.07 1.124-.2 1.79-.381 2-.18.199-.441.308-.792.308h-1.595c-.711 0-1.062-.368-1.062-1.094v-3.582h-1.484v.199c-.05 1.263-.331 2.278-.843 3.034-.5.697-1.303 1.244-2.426 1.632l-.562-.875c1.083-.379 1.805-.856 2.186-1.413.381-.617.582-1.403.622-2.378v-.2h-2.487v-1.004zm2.022 35.27h3.256c-.07-.432-.238-.766-.519-1.003-.365-.306-.884-.446-1.572-.446h-1.502l.309-.919h6.667l-.309.92h-1.95c.294.39.477.877.533 1.448h1.74l-.308.92h-1.46a2.415 2.415 0 0 1-.604 1.225c-.45.446-1.039.752-1.783.92.113.083.323.334.632.724l3.032 3.788h-2.232l-2.513-3.287a2.798 2.798 0 0 0-.715-.696 1.568 1.568 0 0 0-.899-.293v-1.086h.87c.885 0 1.545-.154 1.98-.46.295-.209.491-.488.575-.836h-3.537l.309-.92zm14.023-13.827l1.544.487c-.463 1.658-1.895 2.535-3.608 2.535-2.105 0-3.523-1.142-4-3.078h-1.278v-1.017h1.11c-.015-.209-.029-.418-.029-.64v-.335h-1.08v-1.017h1.207c.42-2.13 1.867-3.385 4.042-3.385 1.727 0 3.075.78 3.538 2.173l-1.488.683c-.225-.975-1.01-1.435-1.923-1.435-1.193 0-2.022.697-2.345 1.964h3.327l-.337 1.017h-3.13c-.014.111-.014.223-.014.334 0 .223.014.432.028.641h2.878l-.31 1.017h-2.371c.35 1.058 1.095 1.657 2.218 1.657.926 0 1.754-.529 2.02-1.601z" transform="translate(-317 -3278)" fill="url(#a)" fill-rule="nonzero"></path>
</svg>