<svg width="45" height="48" xmlns="http://www.w3.org/2000/svg">
  <defs>
    <linearGradient x1="93.945%" y1="0%" x2="6.055%" y2="100%" id="a">
      <stop stop-color="#23EA76" offset="0%"></stop>
      <stop stop-color="#00AB6A" offset="100%"></stop>
    </linearGradient>
  </defs>
  <path d="M705 3138h3v1h-3v2h6v-26h-6v2h3v1h-3v2h3v1h-3v2h3v1h-3v2h3v1h-3v2h3v1h-3v2h3v1h-3v2h3v1h-3v2zm29 0v-2h-3v-1h3v-2h-3v-1h3v-2h-3v-1h3v-2h-3v-1h3v-2h-3v-1h3v-2h-3v-1h3v-2h-3v-1h3v-2h-6v26h6v-2h-3v-1h3zm-11-18h-2v2h2v-2zm1-1v4h-4v-4h4zm-1 6h-2v2h2v-2zm1-1v4h-4v-4h4zm-1-14h-2v2h2v-2zm1-1v4h-4v-4h4zm-1 6h-2v2h2v-2zm1-1v4h-4v-4h4zm-6 6h-2v2h2v-2zm1-1v4h-4v-4h4zm-1 6h-2v2h2v-2zm1-1v4h-4v-4h4zm-1-14h-2v2h2v-2zm1-1v4h-4v-4h4zm-1 6h-2v2h2v-2zm1-1v4h-4v-4h4zm-6 16h13v-23h-13v23zm0 2v9h2v-7h1v7h3v-6h1v6h3v-7h1v7h2v-9h-13zm11-27h4v8h8v28h6v2h-45v-2h6v-28h8v-8h4v-4h4v-6h1v6h4v4zm-2 0v-2h-5v2h5zm-6 29h7v1h-7v-1z" transform="translate(-697 -3095)" fill="url(#a)" fill-rule="nonzero"></path>
</svg>