<svg xmlns="http://www.w3.org/2000/svg" viewBox="0 0 600 500" width="600" height="500" preserveAspectRatio="xMidYMid meet" style="width: 100%; height: 100%; transform: translate3d(0px, 0px, 0px);">
  <defs>
    <clipPath id="__lottie_element_94">
      <rect width="600" height="500" x="0" y="0"></rect>
    </clipPath>
  </defs>
  <g clip-path="url(#__lottie_element_94)">
    <g transform="matrix(1,0,0,1,0,30)" opacity="1" style="display: block;">
      <g opacity="1" transform="matrix(1,0,0,1,300.5249938964844,197.5)">
        <path fill="rgb(255,255,255)" fill-opacity="1" d=" M265.0480041503906,-181.5 C265.0480041503906,-181.5 -265.0480041503906,-181.5 -265.0480041503906,-181.5 C-273.3190002441406,-181.5 -280.0480041503906,-174.77099609375 -280.0480041503906,-166.5 C-280.0480041503906,-166.5 -280.0480041503906,166.5 -280.0480041503906,166.5 C-280.0480041503906,174.77099609375 -273.3190002441406,181.5 -265.0480041503906,181.5 C-265.0480041503906,181.5 265.0480041503906,181.5 265.0480041503906,181.5 C273.3190002441406,181.5 280.0480041503906,174.77099609375 280.0480041503906,166.5 C280.0480041503906,166.5 280.0480041503906,-166.5 280.0480041503906,-166.5 C280.0480041503906,-174.77099609375 273.3190002441406,-181.5 265.0480041503906,-181.5z"></path>
      </g>
      <g opacity="1" transform="matrix(1,0,0,1,300.5249938964844,168)">
        <path fill="rgb(237,240,248)" fill-opacity="1" d=" M279.0480041503906,151 C279.0480041503906,151 -279.0480041503906,151 -279.0480041503906,151 C-279.0480041503906,151 -279.0480041503906,-137 -279.0480041503906,-137 C-279.0480041503906,-144.73199462890625 -272.7799987792969,-151 -265.0480041503906,-151 C-265.0480041503906,-151 265.0480041503906,-151 265.0480041503906,-151 C272.7799987792969,-151 279.0480041503906,-144.73199462890625 279.0480041503906,-137 C279.0480041503906,-137 279.0480041503906,151 279.0480041503906,151z"></path>
      </g>
      <g opacity="1" transform="matrix(1,0,0,1,300.5249938964844,197.5)">
        <path fill="rgb(213,218,228)" fill-opacity="1" d=" M265.0480041503906,-180.5 C272.7799987792969,-180.5 279.0480041503906,-174.23199462890625 279.0480041503906,-166.5 C279.0480041503906,-166.5 279.0480041503906,166.5 279.0480041503906,166.5 C279.0480041503906,174.23199462890625 272.7799987792969,180.5 265.0480041503906,180.5 C265.0480041503906,180.5 -265.0480041503906,180.5 -265.0480041503906,180.5 C-272.7799987792969,180.5 -279.0480041503906,174.23199462890625 -279.0480041503906,166.5 C-279.0480041503906,166.5 -279.0480041503906,-166.5 -279.0480041503906,-166.5 C-279.0480041503906,-174.23199462890625 -272.7799987792969,-180.5 -265.0480041503906,-180.5 C-265.0480041503906,-180.5 265.0480041503906,-180.5 265.0480041503906,-180.5z M265.0480041503906,-181.5 C265.0480041503906,-181.5 -265.0480041503906,-181.5 -265.0480041503906,-181.5 C-273.3190002441406,-181.5 -280.0480041503906,-174.77099609375 -280.0480041503906,-166.5 C-280.0480041503906,-166.5 -280.0480041503906,166.5 -280.0480041503906,166.5 C-280.0480041503906,174.77099609375 -273.3190002441406,181.5 -265.0480041503906,181.5 C-265.0480041503906,181.5 265.0480041503906,181.5 265.0480041503906,181.5 C273.3190002441406,181.5 280.0480041503906,174.77099609375 280.0480041503906,166.5 C280.0480041503906,166.5 280.0480041503906,-166.5 280.0480041503906,-166.5 C280.0480041503906,-174.77099609375 273.3190002441406,-181.5 265.0480041503906,-181.5z"></path>
      </g>
      <g opacity="1" transform="matrix(1,0,0,1,300.5260009765625,319.5)">
        <path fill="rgb(213,218,228)" fill-opacity="1" d=" M279.4739990234375,-0.5 C279.4739990234375,-0.5 -279.4739990234375,-0.5 -279.4739990234375,-0.5 C-279.4739990234375,-0.5 -279.4739990234375,0.5 -279.4739990234375,0.5 C-279.4739990234375,0.5 279.4739990234375,0.5 279.4739990234375,0.5 C279.4739990234375,0.5 279.4739990234375,-0.5 279.4739990234375,-0.5z"></path>
      </g>
    </g>
    <g transform="matrix(1,0,0,1,0,30)" opacity="1" style="display: block;">
      <g opacity="1" transform="matrix(1,0,0,1,123,246.5)">
        <path fill="rgb(246,134,134)" fill-opacity="1" d=" M27,-72.5 C27,-72.5 -27,-72.5 -27,-72.5 C-28.656999588012695,-72.5 -30,-71.15699768066406 -30,-69.5 C-30,-69.5 -30,72.5 -30,72.5 C-30,72.5 30,72.5 30,72.5 C30,72.5 30,-69.5 30,-69.5 C30,-71.15699768066406 28.656999588012695,-72.5 27,-72.5z"></path>
      </g>
      <g opacity="1" transform="matrix(1,0,0,1,261,273.5)">
        <path fill="rgb(246,134,134)" fill-opacity="1" d=" M27,-45.5 C27,-45.5 -27,-45.5 -27,-45.5 C-28.656999588012695,-45.5 -30,-44.15700149536133 -30,-42.5 C-30,-42.5 -30,45.5 -30,45.5 C-30,45.5 30,45.5 30,45.5 C30,45.5 30,-42.5 30,-42.5 C30,-44.15700149536133 28.656999588012695,-45.5 27,-45.5z"></path>
      </g>
      <g opacity="1" transform="matrix(1,0,0,1,399,284)">
        <path fill="rgb(246,134,134)" fill-opacity="1" d=" M27,-35 C27,-35 -27,-35 -27,-35 C-28.656999588012695,-35 -30,-33.65700149536133 -30,-32 C-30,-32 -30,35 -30,35 C-30,35 30,35 30,35 C30,35 30,-32 30,-32 C30,-33.65700149536133 28.656999588012695,-35 27,-35z"></path>
      </g>
      <g opacity="1" transform="matrix(1,0,0,1,537,299)">
        <path fill="rgb(246,134,134)" fill-opacity="1" d=" M26.399999618530273,-20 C26.399999618530273,-20 -26.400999069213867,-20 -26.400999069213867,-20 C-28.388999938964844,-20 -30,-18.656999588012695 -30,-17 C-30,-17 -30,20 -30,20 C-30,20 30,20 30,20 C30,20 30,-17 30,-17 C30,-18.656999588012695 28.38800048828125,-20 26.399999618530273,-20z"></path>
      </g>
      <g opacity="1" transform="matrix(1,0,0,1,676,286.5)">
        <path fill="rgb(255,141,141)" fill-opacity="1" d=" M27,-32.5 C27,-32.5 -27,-32.5 -27,-32.5 C-28.656999588012695,-32.5 -30,-31.156999588012695 -30,-29.5 C-30,-29.5 -30,32.5 -30,32.5 C-30,32.5 30,32.5 30,32.5 C30,32.5 30,-29.5 30,-29.5 C30,-31.156999588012695 28.656999588012695,-32.5 27,-32.5z"></path>
      </g>
      <g opacity="1" transform="matrix(1,0,0,1,815,273)">
        <path fill="rgb(255,141,141)" fill-opacity="1" d=" M27,-46 C27,-46 -27,-46 -27,-46 C-28.656999588012695,-46 -30,-44.65700149536133 -30,-43 C-30,-43 -30,46 -30,46 C-30,46 30,46 30,46 C30,46 30,-43 30,-43 C30,-44.65700149536133 28.656999588012695,-46 27,-46z"></path>
      </g>
      <g opacity="1" transform="matrix(1,0,0,1,954,258.5)">
        <path fill="rgb(255,141,141)" fill-opacity="1" d=" M27,-60.5 C27,-60.5 -27,-60.5 -27,-60.5 C-28.656999588012695,-60.5 -30,-59.15700149536133 -30,-57.5 C-30,-57.5 -30,60.5 -30,60.5 C-30,60.5 30,60.5 30,60.5 C30,60.5 30,-57.5 30,-57.5 C30,-59.15700149536133 28.656999588012695,-60.5 27,-60.5z"></path>
      </g>
      <g opacity="1" transform="matrix(1,0,0,1,1093,299)">
        <path fill="rgb(255,141,141)" fill-opacity="1" d=" M26.399999618530273,-20 C26.399999618530273,-20 -26.400999069213867,-20 -26.400999069213867,-20 C-28.388999938964844,-20 -30,-18.656999588012695 -30,-17 C-30,-17 -30,20 -30,20 C-30,20 30,20 30,20 C30,20 30,-17 30,-17 C30,-18.656999588012695 28.38800048828125,-20 26.399999618530273,-20z"></path>
      </g>
    </g>
    <g transform="matrix(1,0,0,1,0,30)" opacity="1" style="display: block;">
      <g opacity="1" transform="matrix(1,0,0,1,63,251.5)">
        <path fill="rgb(87,234,151)" fill-opacity="1" d=" M27,-67.5 C27,-67.5 -27,-67.5 -27,-67.5 C-28.656999588012695,-67.5 -30,-66.15699768066406 -30,-64.5 C-30,-64.5 -30,67.5 -30,67.5 C-30,67.5 30,67.5 30,67.5 C30,67.5 30,-64.5 30,-64.5 C30,-66.15699768066406 28.656999588012695,-67.5 27,-67.5z"></path>
      </g>
      <g opacity="1" transform="matrix(1,0,0,1,201,259.5)">
        <path fill="rgb(87,234,151)" fill-opacity="1" d=" M27,-59.5 C27,-59.5 -27,-59.5 -27,-59.5 C-28.656999588012695,-59.5 -30,-58.15700149536133 -30,-56.5 C-30,-56.5 -30,59.5 -30,59.5 C-30,59.5 30,59.5 30,59.5 C30,59.5 30,-56.5 30,-56.5 C30,-58.15700149536133 28.656999588012695,-59.5 27,-59.5z"></path>
      </g>
      <g opacity="1" transform="matrix(1,0,0,1,339,227)">
        <path fill="rgb(87,234,151)" fill-opacity="1" d=" M27,-92 C27,-92 -27,-92 -27,-92 C-28.656999588012695,-92 -30,-90.65699768066406 -30,-89 C-30,-89 -30,92 -30,92 C-30,92 30,92 30,92 C30,92 30,-89 30,-89 C30,-90.65699768066406 28.656999588012695,-92 27,-92z"></path>
      </g>
      <g opacity="1" transform="matrix(1,0,0,1,477,204)">
        <path fill="rgb(87,234,151)" fill-opacity="1" d=" M27,-115 C27,-115 -27,-115 -27,-115 C-28.656999588012695,-115 -30,-113.65699768066406 -30,-112 C-30,-112 -30,115 -30,115 C-30,115 30,115 30,115 C30,115 30,-112 30,-112 C30,-113.65699768066406 28.656999588012695,-115 27,-115z"></path>
      </g>
      <g opacity="1" transform="matrix(1,0,0,1,616,244)">
        <path fill="rgb(87,234,151)" fill-opacity="1" d=" M27,-75 C27,-75 -27,-75 -27,-75 C-28.656999588012695,-75 -30,-73.65699768066406 -30,-72 C-30,-72 -30,75 -30,75 C-30,75 30,75 30,75 C30,75 30,-72 30,-72 C30,-73.65699768066406 28.656999588012695,-75 27,-75z"></path>
      </g>
      <g opacity="1" transform="matrix(1,0,0,1,755,300)">
        <path fill="rgb(87,234,151)" fill-opacity="1" d=" M27,-19 C27,-19 -27,-19 -27,-19 C-28.656999588012695,-19 -30,-17.656999588012695 -30,-16 C-30,-16 -30,19 -30,19 C-30,19 30,19 30,19 C30,19 30,-16 30,-16 C30,-17.656999588012695 28.656999588012695,-19 27,-19z"></path>
      </g>
      <g opacity="0" transform="matrix(1,0,0,1,894,243.5)">
        <path fill="rgb(87,234,151)" fill-opacity="1" d=" M27,-75.5 C27,-75.5 -27,-75.5 -27,-75.5 C-28.656999588012695,-75.5 -30,-74.15699768066406 -30,-72.5 C-30,-72.5 -30,75.5 -30,75.5 C-30,75.5 30,75.5 30,75.5 C30,75.5 30,-72.5 30,-72.5 C30,-74.15699768066406 28.656999588012695,-75.5 27,-75.5z"></path>
      </g>
      <g opacity="0" transform="matrix(1,0,0,1,1033,217)">
        <path fill="rgb(87,234,151)" fill-opacity="1" d=" M27,-102 C27,-102 -27,-102 -27,-102 C-28.656999588012695,-102 -30,-100.65699768066406 -30,-99 C-30,-99 -30,102 -30,102 C-30,102 30,102 30,102 C30,102 30,-99 30,-99 C30,-100.65699768066406 28.656999588012695,-102 27,-102z"></path>
      </g>
    </g>
    <g transform="matrix(1,0,0,1,0,30)" opacity="1" style="display: block;">
      <g opacity="1" transform="matrix(1,0,0,1,596.2160034179688,124.3550033569336)">
        <path stroke-linecap="round" stroke-linejoin="miter" fill-opacity="0" stroke-miterlimit="10" stroke="rgb(58,159,241)" stroke-opacity="1" stroke-width="3" d=" M-612.5,59.25 C-612.5,59.25 -503,22.75 -503,22.75 C-503,22.75 -365,48.75 -365,48.75 C-365,48.75 -227,-26.25 -227,-26.25 C-227,-26.25 -89,-61.75 -89,-61.75 C-89,-61.75 50,17.75 50,17.75 C50,17.75 189,61.75 189,61.75 C189,61.75 328,-35.25 328,-35.25 C328,-35.25 467,-48.75 467,-48.75 C467,-48.75 612.5,-11.75 612.5,-11.75"></path>
      </g>
    </g>
    <g transform="matrix(1,0,0,1,-0.5,30)" opacity="1" style="display: block;">
      <g opacity="1" transform="matrix(1,0,0,1,93,147)">
        <path fill="rgb(58,159,241)" fill-opacity="1" d=" M6.5,0 C6.5,3.5899999141693115 3.5899999141693115,6.5 0,6.5 C-3.5899999141693115,6.5 -6.5,3.5899999141693115 -6.5,0 C-6.5,-3.5899999141693115 -3.5899999141693115,-6.5 0,-6.5 C3.5899999141693115,-6.5 6.5,-3.5899999141693115 6.5,0z"></path>
      </g>
      <g opacity="1" transform="matrix(1,0,0,1,231,173)">
        <path fill="rgb(58,159,241)" fill-opacity="1" d=" M6.5,0 C6.5,3.5899999141693115 3.5899999141693115,6.5 0,6.5 C-3.5899999141693115,6.5 -6.5,3.5899999141693115 -6.5,0 C-6.5,-3.5899999141693115 -3.5899999141693115,-6.5 0,-6.5 C3.5899999141693115,-6.5 6.5,-3.5899999141693115 6.5,0z"></path>
      </g>
      <g opacity="1" transform="matrix(1,0,0,1,369,98)">
        <path fill="rgb(58,159,241)" fill-opacity="1" d=" M6.5,0 C6.5,3.5899999141693115 3.5899999141693115,6.5 0,6.5 C-3.5899999141693115,6.5 -6.5,3.5899999141693115 -6.5,0 C-6.5,-3.5899999141693115 -3.5899999141693115,-6.5 0,-6.5 C3.5899999141693115,-6.5 6.5,-3.5899999141693115 6.5,0z"></path>
      </g>
      <g opacity="1" transform="matrix(1,0,0,1,507,62.5)">
        <path fill="rgb(58,159,241)" fill-opacity="1" d=" M6.5,0 C6.5,3.5899999141693115 3.5899999141693115,6.5 0,6.5 C-3.5899999141693115,6.5 -6.5,3.5899999141693115 -6.5,0 C-6.5,-3.5899999141693115 -3.5899999141693115,-6.5 0,-6.5 C3.5899999141693115,-6.5 6.5,-3.5899999141693115 6.5,0z"></path>
      </g>
      <g opacity="1" transform="matrix(1,0,0,1,646,142)">
        <path fill="rgb(58,159,241)" fill-opacity="1" d=" M6.5,0 C6.5,3.5899999141693115 3.5899999141693115,6.5 0,6.5 C-3.5899999141693115,6.5 -6.5,3.5899999141693115 -6.5,0 C-6.5,-3.5899999141693115 -3.5899999141693115,-6.5 0,-6.5 C3.5899999141693115,-6.5 6.5,-3.5899999141693115 6.5,0z"></path>
      </g>
      <g opacity="1" transform="matrix(1,0,0,1,785,186)">
        <path fill="rgb(58,159,241)" fill-opacity="1" d=" M6.5,0 C6.5,3.5899999141693115 3.5899999141693115,6.5 0,6.5 C-3.5899999141693115,6.5 -6.5,3.5899999141693115 -6.5,0 C-6.5,-3.5899999141693115 -3.5899999141693115,-6.5 0,-6.5 C3.5899999141693115,-6.5 6.5,-3.5899999141693115 6.5,0z"></path>
      </g>
      <g opacity="1" transform="matrix(1,0,0,1,924,89)">
        <path fill="rgb(58,159,241)" fill-opacity="1" d=" M6.5,0 C6.5,3.5899999141693115 3.5899999141693115,6.5 0,6.5 C-3.5899999141693115,6.5 -6.5,3.5899999141693115 -6.5,0 C-6.5,-3.5899999141693115 -3.5899999141693115,-6.5 0,-6.5 C3.5899999141693115,-6.5 6.5,-3.5899999141693115 6.5,0z"></path>
      </g>
      <g opacity="1" transform="matrix(1,0,0,1,1063,75.5)">
        <path fill="rgb(58,159,241)" fill-opacity="1" d=" M6.5,0 C6.5,3.5899999141693115 3.5899999141693115,6.5 0,6.5 C-3.5899999141693115,6.5 -6.5,3.5899999141693115 -6.5,0 C-6.5,-3.5899999141693115 -3.5899999141693115,-6.5 0,-6.5 C3.5899999141693115,-6.5 6.5,-3.5899999141693115 6.5,0z"></path>
      </g>
    </g>
    <g transform="matrix(1,0,0,1,1,50)" opacity="0.99" style="display: block;">
      <g opacity="1" transform="matrix(1,0,0,1,115.2300033569336,327.9989929199219)">
        <path fill="rgb(6,44,39)" fill-opacity="1" d=" M4.672999858856201,2.8269999027252197 C4.672999858856201,2.8269999027252197 2.566999912261963,2.8269999027252197 2.566999912261963,2.8269999027252197 C2.566999912261963,2.8269999027252197 2.566999912261963,5.940999984741211 2.566999912261963,5.940999984741211 C2.566999912261963,5.940999984741211 1.1260000467300415,5.940999984741211 1.1260000467300415,5.940999984741211 C1.1260000467300415,5.940999984741211 1.1260000467300415,2.8269999027252197 1.1260000467300415,2.8269999027252197 C1.1260000467300415,2.8269999027252197 -4.672999858856201,2.8269999027252197 -4.672999858856201,2.8269999027252197 C-4.672999858856201,2.8269999027252197 -4.672999858856201,1.7640000581741333 -4.672999858856201,1.7640000581741333 C-4.672999858856201,1.7640000581741333 0.7480000257492065,-5.940999984741211 0.7480000257492065,-5.940999984741211 C0.7480000257492065,-5.940999984741211 2.566999912261963,-5.940999984741211 2.566999912261963,-5.940999984741211 C2.566999912261963,-5.940999984741211 2.566999912261963,1.5850000381469727 2.566999912261963,1.5850000381469727 C2.566999912261963,1.5850000381469727 4.672999858856201,1.5850000381469727 4.672999858856201,1.5850000381469727 C4.672999858856201,1.5850000381469727 4.672999858856201,2.8269999027252197 4.672999858856201,2.8269999027252197z M-3.1410000324249268,1.5850000381469727 C-3.1410000324249268,1.5850000381469727 1.1260000467300415,1.5850000381469727 1.1260000467300415,1.5850000381469727 C1.1260000467300415,1.5850000381469727 1.1260000467300415,-2.86299991607666 1.1260000467300415,-2.86299991607666 C1.1260000467300415,-2.86299991607666 1.1979999542236328,-4.770999908447266 1.1979999542236328,-4.770999908447266 C1.1979999542236328,-4.770999908447266 1.1610000133514404,-4.770999908447266 1.1610000133514404,-4.770999908447266 C0.8730000257492065,-4.177999973297119 0.35100001096725464,-3.3299999237060547 -0.027000000700354576,-2.7899999618530273 C-0.027000000700354576,-2.7899999618530273 -3.1410000324249268,1.5850000381469727 -3.1410000324249268,1.5850000381469727z"></path>
      </g>
      <g opacity="1" transform="matrix(1,0,0,1,135.5260009765625,329.3489990234375)">
        <path fill="rgb(6,44,39)" fill-opacity="1" d=" M6.949999809265137,-1.1699999570846558 C6.949999809265137,-1.1699999570846558 6.949999809265137,4.5920000076293945 6.949999809265137,4.5920000076293945 C6.949999809265137,4.5920000076293945 5.510000228881836,4.5920000076293945 5.510000228881836,4.5920000076293945 C5.510000228881836,4.5920000076293945 5.510000228881836,-1.024999976158142 5.510000228881836,-1.024999976158142 C5.510000228881836,-2.6640000343322754 4.572999954223633,-3.3299999237060547 3.384999990463257,-3.3299999237060547 C1.9800000190734863,-3.3299999237060547 0.7200000286102295,-2.2690000534057617 0.7200000286102295,-0.34200000762939453 C0.7200000286102295,-0.34200000762939453 0.7200000286102295,4.5920000076293945 0.7200000286102295,4.5920000076293945 C0.7200000286102295,4.5920000076293945 -0.7200000286102295,4.5920000076293945 -0.7200000286102295,4.5920000076293945 C-0.7200000286102295,4.5920000076293945 -0.7200000286102295,-1.024999976158142 -0.7200000286102295,-1.024999976158142 C-0.7200000286102295,-2.6640000343322754 -1.656000018119812,-3.3299999237060547 -2.8450000286102295,-3.3299999237060547 C-4.0329999923706055,-3.3299999237060547 -5.510000228881836,-2.447999954223633 -5.510000228881836,-0.2160000056028366 C-5.510000228881836,-0.2160000056028366 -5.510000228881836,4.5920000076293945 -5.510000228881836,4.5920000076293945 C-5.510000228881836,4.5920000076293945 -6.949999809265137,4.5920000076293945 -6.949999809265137,4.5920000076293945 C-6.949999809265137,4.5920000076293945 -6.949999809265137,-4.410999774932861 -6.949999809265137,-4.410999774932861 C-6.949999809265137,-4.410999774932861 -5.690000057220459,-4.410999774932861 -5.690000057220459,-4.410999774932861 C-5.690000057220459,-4.410999774932861 -5.599999904632568,-3.006999969482422 -5.599999904632568,-3.006999969482422 C-4.952000141143799,-4.105000019073486 -3.8350000381469727,-4.591000080108643 -2.7190001010894775,-4.591000080108643 C-1.4589999914169312,-4.591000080108643 -0.2160000056028366,-4.0329999923706055 0.3779999911785126,-2.8259999752044678 C0.9359999895095825,-4.051000118255615 2.377000093460083,-4.591000080108643 3.510999917984009,-4.591000080108643 C5.239999771118164,-4.591000080108643 6.949999809265137,-3.546999931335449 6.949999809265137,-1.1699999570846558z"></path>
      </g>
      <g opacity="1" transform="matrix(1,0,0,1,149.5290069580078,329.4389953613281)">
        <path fill="rgb(6,44,39)" fill-opacity="1" d=" M4.35699987411499,0 C4.35699987411499,2.9170000553131104 2.7190001010894775,4.681000232696533 0,4.681000232696533 C-2.7190001010894775,4.681000232696533 -4.35699987411499,2.9170000553131104 -4.35699987411499,0 C-4.35699987411499,-2.9170000553131104 -2.7190001010894775,-4.682000160217285 0,-4.682000160217285 C2.7190001010894775,-4.682000160217285 4.35699987411499,-2.9170000553131104 4.35699987411499,0z M-2.9170000553131104,0 C-2.9170000553131104,2.1429998874664307 -1.8179999589920044,3.437999963760376 0,3.437999963760376 C1.8179999589920044,3.437999963760376 2.9170000553131104,2.1429998874664307 2.9170000553131104,0 C2.9170000553131104,-2.1429998874664307 1.8179999589920044,-3.438999891281128 0,-3.438999891281128 C-1.8179999589920044,-3.438999891281128 -2.9170000553131104,-2.1429998874664307 -2.9170000553131104,0z"></path>
      </g>
      <g opacity="1" transform="matrix(1,0,0,1,159.68099975585938,329.4389953613281)">
        <path fill="rgb(6,44,39)" fill-opacity="1" d=" M-3.816999912261963,2.6470000743865967 C-3.816999912261963,2.6470000743865967 -2.6470000743865967,1.8359999656677246 -2.6470000743865967,1.8359999656677246 C-2.2139999866485596,2.934999942779541 -1.0980000495910645,3.4210000038146973 0.1979999989271164,3.4210000038146973 C1.6740000247955322,3.4210000038146973 2.375999927520752,2.8269999027252197 2.375999927520752,2.0880000591278076 C2.375999927520752,1.4220000505447388 1.819000005722046,1.0269999504089355 0.017999999225139618,0.703000009059906 C-2.5390000343322754,0.23399999737739563 -3.4749999046325684,-0.46799999475479126 -3.4749999046325684,-1.9809999465942383 C-3.4749999046325684,-3.438999891281128 -2.125,-4.681000232696533 0.07199999690055847,-4.681000232696533 C1.9980000257492065,-4.681000232696533 3.132999897003174,-3.996999979019165 3.63700008392334,-2.5209999084472656 C3.63700008392334,-2.5209999084472656 2.4110000133514404,-1.7999999523162842 2.4110000133514404,-1.7999999523162842 C2.0160000324249268,-2.989000082015991 1.2059999704360962,-3.4200000762939453 0.07199999690055847,-3.4200000762939453 C-1.1339999437332153,-3.4200000762939453 -2.0350000858306885,-2.7730000019073486 -2.0350000858306885,-2.1070001125335693 C-2.0350000858306885,-1.3320000171661377 -1.440000057220459,-0.9359999895095825 0.3959999978542328,-0.6299999952316284 C2.9170000553131104,-0.2160000056028366 3.818000078201294,0.5410000085830688 3.818000078201294,2.0169999599456787 C3.818000078201294,3.5840001106262207 2.3580000400543213,4.681000232696533 0.05299999937415123,4.681000232696533 C-1.6030000448226929,4.681000232696533 -3.132999897003174,4.033999919891357 -3.816999912261963,2.6470000743865967z"></path>
      </g>
    </g>
    <g transform="matrix(1,0,0,1,2,50)" opacity="1" style="display: block;">
      <g opacity="1" transform="matrix(1,0,0,1,232.7220001220703,327.9989929199219)">
        <path fill="rgb(6,44,39)" fill-opacity="1" d=" M4.086999893188477,-3.618000030517578 C4.086999893188477,-3.618000030517578 2.755000114440918,-2.98799991607666 2.755000114440918,-2.98799991607666 C2.3940000534057617,-4.086999893188477 1.6390000581741333,-4.770999908447266 0.2160000056028366,-4.770999908447266 C-1.6920000314712524,-4.770999908447266 -2.989000082015991,-2.555999994277954 -2.989000082015991,0.2709999978542328 C-2.989000082015991,0.2709999978542328 -2.989000082015991,0.5950000286102295 -2.989000082015991,0.5950000286102295 C-2.989000082015991,0.5950000286102295 -2.9170000553131104,0.5950000286102295 -2.9170000553131104,0.5950000286102295 C-2.5209999084472656,-0.9359999895095825 -0.9539999961853027,-1.5850000381469727 0.34200000762939453,-1.5850000381469727 C2.755000114440918,-1.5850000381469727 4.339000225067139,-0.09000000357627869 4.339000225067139,2.2699999809265137 C4.339000225067139,4.627999782562256 2.755000114440918,6.120999813079834 0.25200000405311584,6.120999813079834 C-2.736999988555908,6.120999813079834 -4.339000225067139,3.546999931335449 -4.339000225067139,0 C-4.339000225067139,-3.9790000915527344 -2.322999954223633,-6.120999813079834 0.3059999942779541,-6.120999813079834 C2.197000026702881,-6.120999813079834 3.3489999771118164,-5.382999897003174 4.086999893188477,-3.618000030517578z M-2.3589999675750732,2.25 C-2.3589999675750732,3.744999885559082 -1.315000057220459,4.736000061035156 0.23399999737739563,4.736000061035156 C1.871999979019165,4.736000061035156 2.8269999027252197,3.815999984741211 2.8269999027252197,2.25 C2.8269999027252197,0.7379999756813049 1.871999979019165,-0.1979999989271164 0.23399999737739563,-0.1979999989271164 C-1.315000057220459,-0.1979999989271164 -2.3589999675750732,0.8100000023841858 -2.3589999675750732,2.25z"></path>
      </g>
      <g opacity="1" transform="matrix(1,0,0,1,252.08999633789062,329.3489990234375)">
        <path fill="rgb(6,44,39)" fill-opacity="1" d=" M6.949999809265137,-1.1699999570846558 C6.949999809265137,-1.1699999570846558 6.949999809265137,4.5920000076293945 6.949999809265137,4.5920000076293945 C6.949999809265137,4.5920000076293945 5.510000228881836,4.5920000076293945 5.510000228881836,4.5920000076293945 C5.510000228881836,4.5920000076293945 5.510000228881836,-1.024999976158142 5.510000228881836,-1.024999976158142 C5.510000228881836,-2.6640000343322754 4.572999954223633,-3.3299999237060547 3.384999990463257,-3.3299999237060547 C1.9800000190734863,-3.3299999237060547 0.7200000286102295,-2.2690000534057617 0.7200000286102295,-0.34200000762939453 C0.7200000286102295,-0.34200000762939453 0.7200000286102295,4.5920000076293945 0.7200000286102295,4.5920000076293945 C0.7200000286102295,4.5920000076293945 -0.7200000286102295,4.5920000076293945 -0.7200000286102295,4.5920000076293945 C-0.7200000286102295,4.5920000076293945 -0.7200000286102295,-1.024999976158142 -0.7200000286102295,-1.024999976158142 C-0.7200000286102295,-2.6640000343322754 -1.656000018119812,-3.3299999237060547 -2.8450000286102295,-3.3299999237060547 C-4.0329999923706055,-3.3299999237060547 -5.510000228881836,-2.447999954223633 -5.510000228881836,-0.2160000056028366 C-5.510000228881836,-0.2160000056028366 -5.510000228881836,4.5920000076293945 -5.510000228881836,4.5920000076293945 C-5.510000228881836,4.5920000076293945 -6.949999809265137,4.5920000076293945 -6.949999809265137,4.5920000076293945 C-6.949999809265137,4.5920000076293945 -6.949999809265137,-4.410999774932861 -6.949999809265137,-4.410999774932861 C-6.949999809265137,-4.410999774932861 -5.690000057220459,-4.410999774932861 -5.690000057220459,-4.410999774932861 C-5.690000057220459,-4.410999774932861 -5.599999904632568,-3.006999969482422 -5.599999904632568,-3.006999969482422 C-4.951000213623047,-4.105000019073486 -3.8350000381469727,-4.591000080108643 -2.7190001010894775,-4.591000080108643 C-1.4589999914169312,-4.591000080108643 -0.2160000056028366,-4.0329999923706055 0.3779999911785126,-2.8259999752044678 C0.9359999895095825,-4.051000118255615 2.377000093460083,-4.591000080108643 3.510999917984009,-4.591000080108643 C5.239999771118164,-4.591000080108643 6.949999809265137,-3.546999931335449 6.949999809265137,-1.1699999570846558z"></path>
      </g>
      <g opacity="1" transform="matrix(1,0,0,1,265.64300537109375,329.4389953613281)">
        <path fill="rgb(6,44,39)" fill-opacity="1" d=" M4.35699987411499,0 C4.35699987411499,2.9170000553131104 2.7190001010894775,4.681000232696533 0,4.681000232696533 C-2.7190001010894775,4.681000232696533 -4.35699987411499,2.9170000553131104 -4.35699987411499,0 C-4.35699987411499,-2.9170000553131104 -2.7190001010894775,-4.682000160217285 0,-4.682000160217285 C2.7190001010894775,-4.682000160217285 4.35699987411499,-2.9170000553131104 4.35699987411499,0z M-2.9170000553131104,0 C-2.9170000553131104,2.1429998874664307 -1.8179999589920044,3.437999963760376 0,3.437999963760376 C1.8179999589920044,3.437999963760376 2.9170000553131104,2.1429998874664307 2.9170000553131104,0 C2.9170000553131104,-2.1429998874664307 1.8179999589920044,-3.438999891281128 0,-3.438999891281128 C-1.8179999589920044,-3.438999891281128 -2.9170000553131104,-2.1429998874664307 -2.9170000553131104,0z"></path>
      </g>
      <g opacity="1" transform="matrix(1,0,0,1,275.343994140625,329.4389953613281)">
        <path fill="rgb(6,44,39)" fill-opacity="1" d=" M-3.816999912261963,2.6470000743865967 C-3.816999912261963,2.6470000743865967 -2.6470000743865967,1.8359999656677246 -2.6470000743865967,1.8359999656677246 C-2.2139999866485596,2.934999942779541 -1.0980000495910645,3.4210000038146973 0.1979999989271164,3.4210000038146973 C1.6749999523162842,3.4210000038146973 2.377000093460083,2.8269999027252197 2.377000093460083,2.0880000591278076 C2.377000093460083,1.4220000505447388 1.819000005722046,1.0269999504089355 0.017999999225139618,0.703000009059906 C-2.5390000343322754,0.23399999737739563 -3.4749999046325684,-0.46799999475479126 -3.4749999046325684,-1.9809999465942383 C-3.4749999046325684,-3.438999891281128 -2.125,-4.681000232696533 0.07199999690055847,-4.681000232696533 C1.9989999532699585,-4.681000232696533 3.132999897003174,-3.996999979019165 3.638000011444092,-2.5209999084472656 C3.638000011444092,-2.5209999084472656 2.4130001068115234,-1.7999999523162842 2.4130001068115234,-1.7999999523162842 C2.0160000324249268,-2.989000082015991 1.2059999704360962,-3.4200000762939453 0.07199999690055847,-3.4200000762939453 C-1.1339999437332153,-3.4200000762939453 -2.0339999198913574,-2.7730000019073486 -2.0339999198913574,-2.1070001125335693 C-2.0339999198913574,-1.3320000171661377 -1.440999984741211,-0.9359999895095825 0.3959999978542328,-0.6299999952316284 C2.9170000553131104,-0.2160000056028366 3.816999912261963,0.5410000085830688 3.816999912261963,2.0169999599456787 C3.816999912261963,3.5840001106262207 2.3589999675750732,4.681000232696533 0.05400000140070915,4.681000232696533 C-1.6019999980926514,4.681000232696533 -3.132999897003174,4.033999919891357 -3.816999912261963,2.6470000743865967z"></path>
      </g>
    </g>
    <g transform="matrix(1,0,0,1,1,50)" opacity="1" style="display: block;">
      <g opacity="1" transform="matrix(1,0,0,1,350.0690002441406,328.0069885253906)">
        <path fill="rgb(6,44,39)" fill-opacity="1" d=" M3.7799999713897705,-2.997999906539917 C3.7799999713897705,-1.7730000019073486 3.1500000953674316,-0.8009999990463257 2.1070001125335693,-0.3330000042915344 C2.1070001125335693,-0.3330000042915344 2.1070001125335693,-0.3149999976158142 2.1070001125335693,-0.3149999976158142 C3.4560000896453857,0.1889999955892563 4.321000099182129,1.2339999675750732 4.321000099182129,2.7279999256134033 C4.321000099182129,4.797999858856201 2.609999895095825,6.11299991607666 -0.0010000000474974513,6.11299991607666 C-2.5929999351501465,6.11299991607666 -4.321000099182129,4.797999858856201 -4.321000099182129,2.7279999256134033 C-4.321000099182129,1.2699999809265137 -3.4749999046325684,0.1889999955892563 -2.0889999866485596,-0.3149999976158142 C-2.0889999866485596,-0.3149999976158142 -2.0889999866485596,-0.3330000042915344 -2.0889999866485596,-0.3330000042915344 C-3.134000062942505,-0.7829999923706055 -3.7820000648498535,-1.7549999952316284 -3.7820000648498535,-2.997999906539917 C-3.7820000648498535,-4.923999786376953 -2.2880001068115234,-6.11299991607666 -0.0010000000474974513,-6.11299991607666 C2.2860000133514404,-6.11299991607666 3.7799999713897705,-4.923999786376953 3.7799999713897705,-2.997999906539917z M2.8259999752044678,2.5840001106262207 C2.8259999752044678,1.215000033378601 1.7100000381469727,0.3869999945163727 -0.0010000000474974513,0.3869999945163727 C-1.6929999589920044,0.3869999945163727 -2.8269999027252197,1.215000033378601 -2.8269999027252197,2.5840001106262207 C-2.8269999027252197,3.934000015258789 -1.7289999723434448,4.763000011444092 -0.0010000000474974513,4.763000011444092 C1.7450000047683716,4.763000011444092 2.8259999752044678,3.934000015258789 2.8259999752044678,2.5840001106262207z M-2.2880001068115234,-2.8540000915527344 C-2.2880001068115234,-1.6829999685287476 -1.36899995803833,-0.9629999995231628 -0.0010000000474974513,-0.9629999995231628 C1.3680000305175781,-0.9629999995231628 2.2860000133514404,-1.6829999685287476 2.2860000133514404,-2.8540000915527344 C2.2860000133514404,-4.059999942779541 1.402999997138977,-4.76200008392334 -0.0010000000474974513,-4.76200008392334 C-1.4049999713897705,-4.76200008392334 -2.2880001068115234,-4.059999942779541 -2.2880001068115234,-2.8540000915527344z"></path>
      </g>
      <g opacity="1" transform="matrix(1,0,0,1,369.4739990234375,329.3489990234375)">
        <path fill="rgb(6,44,39)" fill-opacity="1" d=" M6.949999809265137,-1.1699999570846558 C6.949999809265137,-1.1699999570846558 6.949999809265137,4.5920000076293945 6.949999809265137,4.5920000076293945 C6.949999809265137,4.5920000076293945 5.508999824523926,4.5920000076293945 5.508999824523926,4.5920000076293945 C5.508999824523926,4.5920000076293945 5.508999824523926,-1.024999976158142 5.508999824523926,-1.024999976158142 C5.508999824523926,-2.6640000343322754 4.572999954223633,-3.3299999237060547 3.384999990463257,-3.3299999237060547 C1.9789999723434448,-3.3299999237060547 0.7200000286102295,-2.2690000534057617 0.7200000286102295,-0.34200000762939453 C0.7200000286102295,-0.34200000762939453 0.7200000286102295,4.5920000076293945 0.7200000286102295,4.5920000076293945 C0.7200000286102295,4.5920000076293945 -0.7210000157356262,4.5920000076293945 -0.7210000157356262,4.5920000076293945 C-0.7210000157356262,4.5920000076293945 -0.7210000157356262,-1.024999976158142 -0.7210000157356262,-1.024999976158142 C-0.7210000157356262,-2.6640000343322754 -1.656999945640564,-3.3299999237060547 -2.8450000286102295,-3.3299999237060547 C-4.033999919891357,-3.3299999237060547 -5.511000156402588,-2.447999954223633 -5.511000156402588,-0.2160000056028366 C-5.511000156402588,-0.2160000056028366 -5.511000156402588,4.5920000076293945 -5.511000156402588,4.5920000076293945 C-5.511000156402588,4.5920000076293945 -6.949999809265137,4.5920000076293945 -6.949999809265137,4.5920000076293945 C-6.949999809265137,4.5920000076293945 -6.949999809265137,-4.410999774932861 -6.949999809265137,-4.410999774932861 C-6.949999809265137,-4.410999774932861 -5.690999984741211,-4.410999774932861 -5.690999984741211,-4.410999774932861 C-5.690999984741211,-4.410999774932861 -5.60099983215332,-3.006999969482422 -5.60099983215332,-3.006999969482422 C-4.952000141143799,-4.105000019073486 -3.8350000381469727,-4.591000080108643 -2.7200000286102295,-4.591000080108643 C-1.4589999914169312,-4.591000080108643 -0.2160000056028366,-4.0329999923706055 0.3779999911785126,-2.8259999752044678 C0.9359999895095825,-4.051000118255615 2.375999927520752,-4.591000080108643 3.510999917984009,-4.591000080108643 C5.238999843597412,-4.591000080108643 6.949999809265137,-3.546999931335449 6.949999809265137,-1.1699999570846558z"></path>
      </g>
      <g opacity="1" transform="matrix(1,0,0,1,383.0249938964844,329.4389953613281)">
        <path fill="rgb(6,44,39)" fill-opacity="1" d=" M4.35699987411499,0 C4.35699987411499,2.9170000553131104 2.7190001010894775,4.681000232696533 0,4.681000232696533 C-2.7190001010894775,4.681000232696533 -4.35699987411499,2.9170000553131104 -4.35699987411499,0 C-4.35699987411499,-2.9170000553131104 -2.7190001010894775,-4.682000160217285 0,-4.682000160217285 C2.7190001010894775,-4.682000160217285 4.35699987411499,-2.9170000553131104 4.35699987411499,0z M-2.9159998893737793,0 C-2.9159998893737793,2.1429998874664307 -1.8179999589920044,3.437999963760376 0,3.437999963760376 C1.8179999589920044,3.437999963760376 2.9179999828338623,2.1429998874664307 2.9179999828338623,0 C2.9179999828338623,-2.1429998874664307 1.8179999589920044,-3.438999891281128 0,-3.438999891281128 C-1.8179999589920044,-3.438999891281128 -2.9159998893737793,-2.1429998874664307 -2.9159998893737793,0z"></path>
      </g>
      <g opacity="1" transform="matrix(1,0,0,1,392.7279968261719,329.4389953613281)">
        <path fill="rgb(6,44,39)" fill-opacity="1" d=" M-3.816999912261963,2.6470000743865967 C-3.816999912261963,2.6470000743865967 -2.6459999084472656,1.8359999656677246 -2.6459999084472656,1.8359999656677246 C-2.2130000591278076,2.934999942779541 -1.0980000495910645,3.4210000038146973 0.19900000095367432,3.4210000038146973 C1.6749999523162842,3.4210000038146973 2.375999927520752,2.8269999027252197 2.375999927520752,2.0880000591278076 C2.375999927520752,1.4220000505447388 1.8200000524520874,1.0269999504089355 0.01899999938905239,0.703000009059906 C-2.5380001068115234,0.23399999737739563 -3.4739999771118164,-0.46799999475479126 -3.4739999771118164,-1.9809999465942383 C-3.4739999771118164,-3.438999891281128 -2.124000072479248,-4.681000232696533 0.0729999989271164,-4.681000232696533 C1.9989999532699585,-4.681000232696533 3.134000062942505,-3.996999979019165 3.638000011444092,-2.5209999084472656 C3.638000011444092,-2.5209999084472656 2.4130001068115234,-1.7999999523162842 2.4130001068115234,-1.7999999523162842 C2.0169999599456787,-2.989000082015991 1.2059999704360962,-3.4200000762939453 0.0729999989271164,-3.4200000762939453 C-1.1330000162124634,-3.4200000762939453 -2.0339999198913574,-2.7730000019073486 -2.0339999198913574,-2.1070001125335693 C-2.0339999198913574,-1.3320000171661377 -1.440000057220459,-0.9359999895095825 0.3970000147819519,-0.6299999952316284 C2.9170000553131104,-0.2160000056028366 3.818000078201294,0.5410000085830688 3.818000078201294,2.0169999599456787 C3.818000078201294,3.5840001106262207 2.3580000400543213,4.681000232696533 0.05299999937415123,4.681000232696533 C-1.6030000448226929,4.681000232696533 -3.131999969482422,4.033999919891357 -3.816999912261963,2.6470000743865967z"></path>
      </g>
    </g>
    <g transform="matrix(1,0,0,1,1,50)" opacity="1" style="display: block;">
      <g opacity="1" transform="matrix(1,0,0,1,461.86199951171875,327.9989929199219)">
        <path fill="rgb(6,44,39)" fill-opacity="1" d=" M2.430999994277954,-5.941999912261963 C2.430999994277954,-5.941999912261963 2.430999994277954,5.941999912261963 2.430999994277954,5.941999912261963 C2.430999994277954,5.941999912261963 0.9909999966621399,5.941999912261963 0.9909999966621399,5.941999912261963 C0.9909999966621399,5.941999912261963 0.9909999966621399,-2.7730000019073486 0.9909999966621399,-2.7730000019073486 C0.9909999966621399,-3.1689999103546143 1.0080000162124634,-3.6549999713897705 1.0260000228881836,-4.158999919891357 C0.1979999989271164,-3.367000102996826 -0.9369999766349792,-2.753999948501587 -2.052000045776367,-2.484999895095825 C-2.052000045776367,-2.484999895095825 -2.430999994277954,-3.7990000247955322 -2.430999994277954,-3.7990000247955322 C-1.5850000381469727,-3.9070000648498535 0.5049999952316284,-5.0229997634887695 1.1710000038146973,-5.941999912261963 C1.1710000038146973,-5.941999912261963 2.430999994277954,-5.941999912261963 2.430999994277954,-5.941999912261963z"></path>
      </g>
      <g opacity="1" transform="matrix(1,0,0,1,470.8179931640625,327.90899658203125)">
        <path fill="rgb(6,44,39)" fill-opacity="1" d=" M-3.808000087738037,4.861999988555908 C0.9459999799728394,1.36899995803833 2.421999931335449,-0.1979999989271164 2.421999931335449,-2.305000066757202 C2.421999931335449,-3.7090001106262207 1.4500000476837158,-4.681000232696533 -0.0989999994635582,-4.681000232696533 C-1.7380000352859497,-4.681000232696533 -2.763000011444092,-3.5290000438690186 -2.924999952316284,-1.746000051498413 C-2.924999952316284,-1.746000051498413 -4.185999870300293,-2.502000093460083 -4.185999870300293,-2.502000093460083 C-3.880000114440918,-4.573999881744385 -2.4570000171661377,-6.0320000648498535 -0.04399999976158142,-6.0320000648498535 C2.385999917984009,-6.0320000648498535 3.934000015258789,-4.500999927520752 3.934000015258789,-2.305000066757202 C3.934000015258789,-0.07199999690055847 2.494999885559082,1.8899999856948853 -1.7549999952316284,4.7170000076293945 C-1.7549999952316284,4.7170000076293945 -1.7549999952316284,4.735000133514404 -1.7549999952316284,4.735000133514404 C-1.3589999675750732,4.7170000076293945 -0.3319999873638153,4.681000232696533 0.02800000086426735,4.681000232696533 C0.02800000086426735,4.681000232696533 4.185999870300293,4.681000232696533 4.185999870300293,4.681000232696533 C4.185999870300293,4.681000232696533 4.185999870300293,6.0320000648498535 4.185999870300293,6.0320000648498535 C4.185999870300293,6.0320000648498535 -3.808000087738037,6.0320000648498535 -3.808000087738037,6.0320000648498535 C-3.808000087738037,6.0320000648498535 -3.808000087738037,4.861999988555908 -3.808000087738037,4.861999988555908z"></path>
      </g>
      <g opacity="1" transform="matrix(1,0,0,1,490.03399658203125,329.3489990234375)">
        <path fill="rgb(6,44,39)" fill-opacity="1" d=" M6.949999809265137,-1.1699999570846558 C6.949999809265137,-1.1699999570846558 6.949999809265137,4.5920000076293945 6.949999809265137,4.5920000076293945 C6.949999809265137,4.5920000076293945 5.508999824523926,4.5920000076293945 5.508999824523926,4.5920000076293945 C5.508999824523926,4.5920000076293945 5.508999824523926,-1.024999976158142 5.508999824523926,-1.024999976158142 C5.508999824523926,-2.6640000343322754 4.572999954223633,-3.3299999237060547 3.384999990463257,-3.3299999237060547 C1.9789999723434448,-3.3299999237060547 0.7200000286102295,-2.2690000534057617 0.7200000286102295,-0.34200000762939453 C0.7200000286102295,-0.34200000762939453 0.7200000286102295,4.5920000076293945 0.7200000286102295,4.5920000076293945 C0.7200000286102295,4.5920000076293945 -0.7210000157356262,4.5920000076293945 -0.7210000157356262,4.5920000076293945 C-0.7210000157356262,4.5920000076293945 -0.7210000157356262,-1.024999976158142 -0.7210000157356262,-1.024999976158142 C-0.7210000157356262,-2.6640000343322754 -1.656999945640564,-3.3299999237060547 -2.8450000286102295,-3.3299999237060547 C-4.033999919891357,-3.3299999237060547 -5.511000156402588,-2.447999954223633 -5.511000156402588,-0.2160000056028366 C-5.511000156402588,-0.2160000056028366 -5.511000156402588,4.5920000076293945 -5.511000156402588,4.5920000076293945 C-5.511000156402588,4.5920000076293945 -6.949999809265137,4.5920000076293945 -6.949999809265137,4.5920000076293945 C-6.949999809265137,4.5920000076293945 -6.949999809265137,-4.410999774932861 -6.949999809265137,-4.410999774932861 C-6.949999809265137,-4.410999774932861 -5.690999984741211,-4.410999774932861 -5.690999984741211,-4.410999774932861 C-5.690999984741211,-4.410999774932861 -5.60099983215332,-3.006999969482422 -5.60099983215332,-3.006999969482422 C-4.952000141143799,-4.105000019073486 -3.8350000381469727,-4.591000080108643 -2.7200000286102295,-4.591000080108643 C-1.4589999914169312,-4.591000080108643 -0.2160000056028366,-4.0329999923706055 0.3779999911785126,-2.8259999752044678 C0.9359999895095825,-4.051000118255615 2.375999927520752,-4.591000080108643 3.510999917984009,-4.591000080108643 C5.238999843597412,-4.591000080108643 6.949999809265137,-3.546999931335449 6.949999809265137,-1.1699999570846558z"></path>
      </g>
      <g opacity="1" transform="matrix(1,0,0,1,503.58599853515625,329.4389953613281)">
        <path fill="rgb(6,44,39)" fill-opacity="1" d=" M4.35699987411499,0 C4.35699987411499,2.9170000553131104 2.7190001010894775,4.681000232696533 0,4.681000232696533 C-2.7190001010894775,4.681000232696533 -4.35699987411499,2.9170000553131104 -4.35699987411499,0 C-4.35699987411499,-2.9170000553131104 -2.7190001010894775,-4.682000160217285 0,-4.682000160217285 C2.7190001010894775,-4.682000160217285 4.35699987411499,-2.9170000553131104 4.35699987411499,0z M-2.9159998893737793,0 C-2.9159998893737793,2.1429998874664307 -1.8179999589920044,3.437999963760376 0,3.437999963760376 C1.8179999589920044,3.437999963760376 2.9179999828338623,2.1429998874664307 2.9179999828338623,0 C2.9179999828338623,-2.1429998874664307 1.8179999589920044,-3.438999891281128 0,-3.438999891281128 C-1.8179999589920044,-3.438999891281128 -2.9159998893737793,-2.1429998874664307 -2.9159998893737793,0z"></path>
      </g>
      <g opacity="1" transform="matrix(1,0,0,1,513.2880249023438,329.4389953613281)">
        <path fill="rgb(6,44,39)" fill-opacity="1" d=" M-3.818000078201294,2.6470000743865967 C-3.818000078201294,2.6470000743865967 -2.6470000743865967,1.8359999656677246 -2.6470000743865967,1.8359999656677246 C-2.2149999141693115,2.934999942779541 -1.0980000495910645,3.4210000038146973 0.1979999989271164,3.4210000038146973 C1.6740000247955322,3.4210000038146973 2.375999927520752,2.8269999027252197 2.375999927520752,2.0880000591278076 C2.375999927520752,1.4220000505447388 1.8179999589920044,1.0269999504089355 0.017999999225139618,0.703000009059906 C-2.5390000343322754,0.23399999737739563 -3.4749999046325684,-0.46799999475479126 -3.4749999046325684,-1.9809999465942383 C-3.4749999046325684,-3.438999891281128 -2.125,-4.681000232696533 0.07199999690055847,-4.681000232696533 C1.9980000257492065,-4.681000232696533 3.131999969482422,-3.996999979019165 3.63700008392334,-2.5209999084472656 C3.63700008392334,-2.5209999084472656 2.4119999408721924,-1.7999999523162842 2.4119999408721924,-1.7999999523162842 C2.0160000324249268,-2.989000082015991 1.2059999704360962,-3.4200000762939453 0.07199999690055847,-3.4200000762939453 C-1.1339999437332153,-3.4200000762939453 -2.0350000858306885,-2.7730000019073486 -2.0350000858306885,-2.1070001125335693 C-2.0350000858306885,-1.3320000171661377 -1.440999984741211,-0.9359999895095825 0.3959999978542328,-0.6299999952316284 C2.9159998893737793,-0.2160000056028366 3.816999912261963,0.5410000085830688 3.816999912261963,2.0169999599456787 C3.816999912261963,3.5840001106262207 2.3589999675750732,4.681000232696533 0.05400000140070915,4.681000232696533 C-1.6030000448226929,4.681000232696533 -3.132999897003174,4.033999919891357 -3.818000078201294,2.6470000743865967z"></path>
      </g>
    </g>
    <g transform="matrix(1,0,0,1,1,50)" opacity="1" style="display: block;">
      <g opacity="1" transform="matrix(1,0,0,1,115.6259994506836,327.9989929199219)">
        <path fill="rgb(6,44,39)" fill-opacity="1" d=" M5.267000198364258,3.3320000171661377 C5.267000198364258,3.3320000171661377 3.447999954223633,3.3320000171661377 3.447999954223633,3.3320000171661377 C3.447999954223633,3.3320000171661377 3.447999954223633,5.940999984741211 3.447999954223633,5.940999984741211 C3.447999954223633,5.940999984741211 0.7120000123977661,5.940999984741211 0.7120000123977661,5.940999984741211 C0.7120000123977661,5.940999984741211 0.7120000123977661,3.3320000171661377 0.7120000123977661,3.3320000171661377 C0.7120000123977661,3.3320000171661377 -5.265999794006348,3.3320000171661377 -5.265999794006348,3.3320000171661377 C-5.265999794006348,3.3320000171661377 -5.265999794006348,1.871999979019165 -5.265999794006348,1.871999979019165 C-5.265999794006348,1.871999979019165 -0.17100000381469727,-5.940999984741211 -0.17100000381469727,-5.940999984741211 C-0.17100000381469727,-5.940999984741211 3.447999954223633,-5.940999984741211 3.447999954223633,-5.940999984741211 C3.447999954223633,-5.940999984741211 3.447999954223633,1.2070000171661377 3.447999954223633,1.2070000171661377 C3.447999954223633,1.2070000171661377 5.267000198364258,1.2070000171661377 5.267000198364258,1.2070000171661377 C5.267000198364258,1.2070000171661377 5.267000198364258,3.3320000171661377 5.267000198364258,3.3320000171661377z M-2.384999990463257,1.2070000171661377 C-2.384999990463257,1.2070000171661377 0.7120000123977661,1.2070000171661377 0.7120000123977661,1.2070000171661377 C0.7120000123977661,1.2070000171661377 0.7120000123977661,-1.9620000123977661 0.7120000123977661,-1.9620000123977661 C0.7120000123977661,-1.9620000123977661 0.7839999794960022,-3.9059998989105225 0.7839999794960022,-3.9059998989105225 C0.7839999794960022,-3.9059998989105225 0.7480000257492065,-3.9059998989105225 0.7480000257492065,-3.9059998989105225 C0.4959999918937683,-3.2760000228881836 0.08100000023841858,-2.555999994277954 -0.2980000078678131,-1.9620000123977661 C-0.2980000078678131,-1.9620000123977661 -2.384999990463257,1.2070000171661377 -2.384999990463257,1.2070000171661377z"></path>
      </g>
      <g opacity="1" transform="matrix(1,0,0,1,135.0489959716797,329.3489990234375)">
        <path fill="rgb(6,44,39)" fill-opacity="1" d=" M7.392000198364258,-1.4049999713897705 C7.392000198364258,-1.4049999713897705 7.355000019073486,4.591000080108643 7.355000019073486,4.591000080108643 C7.355000019073486,4.591000080108643 4.330999851226807,4.591000080108643 4.330999851226807,4.591000080108643 C4.330999851226807,4.591000080108643 4.330999851226807,-0.703000009059906 4.330999851226807,-0.703000009059906 C4.330999851226807,-1.8370000123977661 3.8440001010894775,-2.250999927520752 3.1050000190734863,-2.250999927520752 C2.187000036239624,-2.250999927520752 1.5210000276565552,-1.5670000314712524 1.5210000276565552,-0.21699999272823334 C1.5210000276565552,-0.21699999272823334 1.5210000276565552,4.591000080108643 1.5210000276565552,4.591000080108643 C1.5210000276565552,4.591000080108643 -1.5390000343322754,4.591000080108643 -1.5390000343322754,4.591000080108643 C-1.5390000343322754,4.591000080108643 -1.5390000343322754,-0.703000009059906 -1.5390000343322754,-0.703000009059906 C-1.5390000343322754,-1.8370000123977661 -2.0439999103546143,-2.250999927520752 -2.7639999389648438,-2.250999927520752 C-3.609999895095825,-2.250999927520752 -4.3480000495910645,-1.6380000114440918 -4.3480000495910645,-0.16300000250339508 C-4.3480000495910645,-0.16300000250339508 -4.3480000495910645,4.591000080108643 -4.3480000495910645,4.591000080108643 C-4.3480000495910645,4.591000080108643 -7.409999847412109,4.591000080108643 -7.409999847412109,4.591000080108643 C-7.409999847412109,4.591000080108643 -7.409999847412109,-4.410999774932861 -7.409999847412109,-4.410999774932861 C-7.409999847412109,-4.410999774932861 -4.672999858856201,-4.410999774932861 -4.672999858856201,-4.410999774932861 C-4.672999858856201,-4.410999774932861 -4.583000183105469,-2.683000087738037 -4.583000183105469,-2.683000087738037 C-4.00600004196167,-3.943000078201294 -2.924999952316284,-4.5920000076293945 -1.5570000410079956,-4.5920000076293945 C-0.2240000069141388,-4.5920000076293945 0.8550000190734863,-3.9790000915527344 1.3049999475479126,-2.7730000019073486 C1.88100004196167,-3.9619998931884766 2.996999979019165,-4.5920000076293945 4.311999797821045,-4.5920000076293945 C6.077000141143799,-4.5920000076293945 7.409999847412109,-3.510999917984009 7.392000198364258,-1.4049999713897705z"></path>
      </g>
      <g opacity="1" transform="matrix(1,0,0,1,148.8990020751953,329.4389953613281)">
        <path fill="rgb(6,44,39)" fill-opacity="1" d=" M4.754000186920166,0 C4.754000186920166,2.9519999027252197 3.006999969482422,4.681000232696533 -0.0010000000474974513,4.681000232696533 C-3.006999969482422,4.681000232696533 -4.752999782562256,2.9519999027252197 -4.752999782562256,0 C-4.752999782562256,-2.953000068664551 -3.006999969482422,-4.682000160217285 -0.0010000000474974513,-4.682000160217285 C3.006999969482422,-4.682000160217285 4.754000186920166,-2.953000068664551 4.754000186920166,0z M-1.6920000314712524,0 C-1.6920000314712524,1.7649999856948853 -1.1349999904632568,2.502000093460083 -0.0010000000474974513,2.502000093460083 C1.1339999437332153,2.502000093460083 1.6929999589920044,1.7649999856948853 1.6929999589920044,0 C1.6929999589920044,-1.7649999856948853 1.1339999437332153,-2.503000020980835 -0.0010000000474974513,-2.503000020980835 C-1.1349999904632568,-2.503000020980835 -1.6920000314712524,-1.7649999856948853 -1.6920000314712524,0z"></path>
      </g>
      <g opacity="1" transform="matrix(1,0,0,1,159.0959930419922,329.4389953613281)">
        <path fill="rgb(6,44,39)" fill-opacity="1" d=" M-4.3480000495910645,3.0969998836517334 C-4.3480000495910645,3.0969998836517334 -2.7639999389648438,1.3680000305175781 -2.7639999389648438,1.3680000305175781 C-2.2230000495910645,2.2690000534057617 -1.2510000467300415,2.6470000743865967 -0.09799999743700027,2.6470000743865967 C0.7480000257492065,2.6470000743865967 1.2510000467300415,2.3949999809265137 1.2510000467300415,2.0169999599456787 C1.2510000467300415,1.6740000247955322 0.8190000057220459,1.4579999446868896 -0.3869999945163727,1.2059999704360962 C-3.124000072479248,0.6660000085830688 -4.114999771118164,-0.2160000056028366 -4.114999771118164,-1.6920000314712524 C-4.114999771118164,-3.1689999103546143 -2.7090001106262207,-4.681000232696533 0.22499999403953552,-4.681000232696533 C2.385999917984009,-4.681000232696533 3.572999954223633,-4.051000118255615 4.3480000495910645,-2.989000082015991 C4.3480000495910645,-2.989000082015991 2.7639999389648438,-1.440000057220459 2.7639999389648438,-1.440000057220459 C2.187999963760376,-2.2869999408721924 1.3949999809265137,-2.6470000743865967 0.3149999976158142,-2.6470000743865967 C-0.5860000252723694,-2.6470000743865967 -1.0529999732971191,-2.322999954223633 -1.0529999732971191,-1.9630000591278076 C-1.0529999732971191,-1.6019999980926514 -0.6570000052452087,-1.36899995803833 0.6039999723434448,-1.1339999437332153 C3.2690000534057617,-0.6669999957084656 4.328999996185303,0.18000000715255737 4.328999996185303,1.7289999723434448 C4.328999996185303,3.384999990463257 2.943000078201294,4.681000232696533 0.04399999976158142,4.681000232696533 C-1.9359999895095825,4.681000232696533 -3.430000066757202,4.2129998207092285 -4.3480000495910645,3.0969998836517334z"></path>
      </g>
    </g>
    <g style="display: none;" transform="matrix(1,0,0,1,2,50)" opacity="0.005221350973360615">
      <g opacity="1" transform="matrix(1,0,0,1,233.16700744628906,328)">
        <path fill="rgb(6,44,39)" fill-opacity="1" d=" M4.599999904632568,-3.492000102996826 C4.599999904632568,-3.492000102996826 2.061000108718872,-2.305000066757202 2.061000108718872,-2.305000066757202 C1.8270000219345093,-3.1510000228881836 1.2510000467300415,-3.6730000972747803 0.25999999046325684,-3.6730000972747803 C-1.0540000200271606,-3.6730000972747803 -2.007999897003174,-2.3589999675750732 -2.007999897003174,-0.1809999942779541 C-2.007999897003174,-0.1809999942779541 -2.007999897003174,0.1080000028014183 -2.007999897003174,0.1080000028014183 C-2.007999897003174,0.1080000028014183 -1.9709999561309814,0.1080000028014183 -1.9709999561309814,0.1080000028014183 C-1.5570000410079956,-0.9190000295639038 -0.4779999852180481,-1.4579999446868896 0.9079999923706055,-1.4579999446868896 C3.122999906539917,-1.4579999446868896 4.76200008392334,-0.017999999225139618 4.76200008392334,2.2330000400543213 C4.76200008392334,4.610000133514404 3.0869998931884766,6.120999813079834 0.18799999356269836,6.120999813079834 C-2.9809999465942383,6.120999813079834 -4.76200008392334,3.996999979019165 -4.76200008392334,0 C-4.76200008392334,-4.214000225067139 -2.510999917984009,-6.122000217437744 0.46000000834465027,-6.122000217437744 C2.368000030517578,-6.122000217437744 3.933000087738037,-5.419000148773193 4.599999904632568,-3.492000102996826z M-1.4490000009536743,2.2139999866485596 C-1.4490000009536743,3.187000036239624 -0.8019999861717224,3.7990000247955322 0.24199999868869781,3.7990000247955322 C1.3229999542236328,3.7990000247955322 1.9359999895095825,3.2230000495910645 1.9359999895095825,2.2139999866485596 C1.9359999895095825,1.2059999704360962 1.3229999542236328,0.6299999952316284 0.24199999868869781,0.6299999952316284 C-0.8019999861717224,0.6299999952316284 -1.4490000009536743,1.2419999837875366 -1.4490000009536743,2.2139999866485596z"></path>
      </g>
      <g opacity="1" transform="matrix(1,0,0,1,252.2469940185547,329.35101318359375)">
        <path fill="rgb(6,44,39)" fill-opacity="1" d=" M7.392000198364258,-1.4049999713897705 C7.392000198364258,-1.4049999713897705 7.355000019073486,4.591000080108643 7.355000019073486,4.591000080108643 C7.355000019073486,4.591000080108643 4.330999851226807,4.591000080108643 4.330999851226807,4.591000080108643 C4.330999851226807,4.591000080108643 4.330999851226807,-0.7020000219345093 4.330999851226807,-0.7020000219345093 C4.330999851226807,-1.8359999656677246 3.8440001010894775,-2.25 3.1050000190734863,-2.25 C2.187000036239624,-2.25 1.5210000276565552,-1.565999984741211 1.5210000276565552,-0.2160000056028366 C1.5210000276565552,-0.2160000056028366 1.5210000276565552,4.591000080108643 1.5210000276565552,4.591000080108643 C1.5210000276565552,4.591000080108643 -1.5390000343322754,4.591000080108643 -1.5390000343322754,4.591000080108643 C-1.5390000343322754,4.591000080108643 -1.5390000343322754,-0.7020000219345093 -1.5390000343322754,-0.7020000219345093 C-1.5390000343322754,-1.8359999656677246 -2.0439999103546143,-2.25 -2.7639999389648438,-2.25 C-3.609999895095825,-2.25 -4.3480000495910645,-1.6369999647140503 -4.3480000495910645,-0.16099999845027924 C-4.3480000495910645,-0.16099999845027924 -4.3480000495910645,4.591000080108643 -4.3480000495910645,4.591000080108643 C-4.3480000495910645,4.591000080108643 -7.409999847412109,4.591000080108643 -7.409999847412109,4.591000080108643 C-7.409999847412109,4.591000080108643 -7.409999847412109,-4.410999774932861 -7.409999847412109,-4.410999774932861 C-7.409999847412109,-4.410999774932861 -4.672999858856201,-4.410999774932861 -4.672999858856201,-4.410999774932861 C-4.672999858856201,-4.410999774932861 -4.583000183105469,-2.681999921798706 -4.583000183105469,-2.681999921798706 C-4.00600004196167,-3.941999912261963 -2.924999952316284,-4.591000080108643 -1.5570000410079956,-4.591000080108643 C-0.2240000069141388,-4.591000080108643 0.8550000190734863,-3.9779999256134033 1.3049999475479126,-2.7720000743865967 C1.88100004196167,-3.9609999656677246 2.996999979019165,-4.591000080108643 4.311999797821045,-4.591000080108643 C6.077000141143799,-4.591000080108643 7.409999847412109,-3.510999917984009 7.392000198364258,-1.4049999713897705z"></path>
      </g>
      <g opacity="1" transform="matrix(1,0,0,1,266.09698486328125,329.4410095214844)">
        <path fill="rgb(6,44,39)" fill-opacity="1" d=" M4.752999782562256,0 C4.752999782562256,2.9519999027252197 3.006999969482422,4.681000232696533 -0.0010000000474974513,4.681000232696533 C-3.006999969482422,4.681000232696533 -4.754000186920166,2.9519999027252197 -4.754000186920166,0 C-4.754000186920166,-2.953000068664551 -3.006999969482422,-4.682000160217285 -0.0010000000474974513,-4.682000160217285 C3.006999969482422,-4.682000160217285 4.752999782562256,-2.953000068664551 4.752999782562256,0z M-1.6929999589920044,0 C-1.6929999589920044,1.7640000581741333 -1.1349999904632568,2.503000020980835 -0.0010000000474974513,2.503000020980835 C1.1339999437332153,2.503000020980835 1.6920000314712524,1.7640000581741333 1.6920000314712524,0 C1.6920000314712524,-1.7649999856948853 1.1339999437332153,-2.503000020980835 -0.0010000000474974513,-2.503000020980835 C-1.1349999904632568,-2.503000020980835 -1.6929999589920044,-1.7649999856948853 -1.6929999589920044,0z"></path>
      </g>
      <g opacity="1" transform="matrix(1,0,0,1,276.29400634765625,329.4410095214844)">
        <path fill="rgb(6,44,39)" fill-opacity="1" d=" M-4.348999977111816,3.0969998836517334 C-4.348999977111816,3.0969998836517334 -2.765000104904175,1.3680000305175781 -2.765000104904175,1.3680000305175781 C-2.2239999771118164,2.2690000534057617 -1.2519999742507935,2.6470000743865967 -0.0989999994635582,2.6470000743865967 C0.746999979019165,2.6470000743865967 1.2510000467300415,2.3949999809265137 1.2510000467300415,2.0169999599456787 C1.2510000467300415,1.6740000247955322 0.8180000185966492,1.4579999446868896 -0.3880000114440918,1.2059999704360962 C-3.125,0.6660000085830688 -4.114999771118164,-0.2160000056028366 -4.114999771118164,-1.6929999589920044 C-4.114999771118164,-3.1689999103546143 -2.7100000381469727,-4.681000232696533 0.2240000069141388,-4.681000232696533 C2.384999990463257,-4.681000232696533 3.572999954223633,-4.051000118255615 4.3480000495910645,-2.989000082015991 C4.3480000495910645,-2.989000082015991 2.763000011444092,-1.440000057220459 2.763000011444092,-1.440000057220459 C2.187000036239624,-2.2869999408721924 1.3949999809265137,-2.6470000743865967 0.3149999976158142,-2.6470000743865967 C-0.5860000252723694,-2.6470000743865967 -1.0540000200271606,-2.322999954223633 -1.0540000200271606,-1.9630000591278076 C-1.0540000200271606,-1.6019999980926514 -0.6579999923706055,-1.36899995803833 0.6029999852180481,-1.1339999437332153 C3.2669999599456787,-0.6669999957084656 4.329999923706055,0.18000000715255737 4.329999923706055,1.7289999723434448 C4.329999923706055,3.384999990463257 2.943000078201294,4.681000232696533 0.04399999976158142,4.681000232696533 C-1.9359999895095825,4.681000232696533 -3.430999994277954,4.2129998207092285 -4.348999977111816,3.0969998836517334z"></path>
      </g>
    </g>
    <g style="display: none;" transform="matrix(1,0,0,1,1,50)" opacity="0.0007793863804300827">
      <g opacity="1" transform="matrix(1,0,0,1,350.1669921875,328.0169982910156)">
        <path fill="rgb(6,44,39)" fill-opacity="1" d=" M4.455999851226807,-2.7730000019073486 C4.455999851226807,-1.5490000247955322 3.7720000743865967,-0.6129999756813049 2.565999984741211,-0.16300000250339508 C2.565999984741211,-0.16300000250339508 2.565999984741211,-0.14399999380111694 2.565999984741211,-0.14399999380111694 C3.98799991607666,0.3240000009536743 4.834000110626221,1.2960000038146973 4.834000110626221,2.7720000743865967 C4.834000110626221,4.824999809265137 3.0160000324249268,6.103000164031982 -0.009999999776482582,6.103000164031982 C-2.997999906539917,6.103000164031982 -4.835000038146973,4.824999809265137 -4.835000038146973,2.7720000743865967 C-4.835000038146973,1.3140000104904175 -4.00600004196167,0.3240000009536743 -2.565999984741211,-0.14399999380111694 C-2.565999984741211,-0.14399999380111694 -2.565999984741211,-0.16300000250339508 -2.565999984741211,-0.16300000250339508 C-3.753999948501587,-0.6129999756813049 -4.456999778747559,-1.531000018119812 -4.456999778747559,-2.7730000019073486 C-4.456999778747559,-4.843999862670898 -2.746000051498413,-6.104000091552734 -0.009999999776482582,-6.104000091552734 C2.746000051498413,-6.104000091552734 4.455999851226807,-4.843999862670898 4.455999851226807,-2.7730000019073486z M1.8270000219345093,2.375999927520752 C1.8270000219345093,1.440000057220459 1.1430000066757202,0.8999999761581421 -0.009999999776482582,0.8999999761581421 C-1.125,0.8999999761581421 -1.8279999494552612,1.440000057220459 -1.8279999494552612,2.375999927520752 C-1.8279999494552612,3.2939999103546143 -1.1430000066757202,3.8529999256134033 -0.009999999776482582,3.8529999256134033 C1.1430000066757202,3.8529999256134033 1.8270000219345093,3.2939999103546143 1.8270000219345093,2.375999927520752z M-1.5759999752044678,-2.484999895095825 C-1.5759999752044678,-1.6390000581741333 -0.9629999995231628,-1.1169999837875366 -0.009999999776482582,-1.1169999837875366 C0.9629999995231628,-1.1169999837875366 1.5750000476837158,-1.6390000581741333 1.5750000476837158,-2.484999895095825 C1.5750000476837158,-3.3489999771118164 0.9629999995231628,-3.8540000915527344 -0.009999999776482582,-3.8540000915527344 C-0.9810000061988831,-3.8540000915527344 -1.5759999752044678,-3.3489999771118164 -1.5759999752044678,-2.484999895095825z"></path>
      </g>
      <g opacity="1" transform="matrix(1,0,0,1,369.4639892578125,329.3489990234375)">
        <path fill="rgb(6,44,39)" fill-opacity="1" d=" M7.392000198364258,-1.4049999713897705 C7.392000198364258,-1.4049999713897705 7.35699987411499,4.591000080108643 7.35699987411499,4.591000080108643 C7.35699987411499,4.591000080108643 4.330999851226807,4.591000080108643 4.330999851226807,4.591000080108643 C4.330999851226807,4.591000080108643 4.330999851226807,-0.703000009059906 4.330999851226807,-0.703000009059906 C4.330999851226807,-1.8370000123977661 3.8450000286102295,-2.250999927520752 3.1070001125335693,-2.250999927520752 C2.188999891281128,-2.250999927520752 1.5219999551773071,-1.5670000314712524 1.5219999551773071,-0.21699999272823334 C1.5219999551773071,-0.21699999272823334 1.5219999551773071,4.591000080108643 1.5219999551773071,4.591000080108643 C1.5219999551773071,4.591000080108643 -1.5390000343322754,4.591000080108643 -1.5390000343322754,4.591000080108643 C-1.5390000343322754,4.591000080108643 -1.5390000343322754,-0.703000009059906 -1.5390000343322754,-0.703000009059906 C-1.5390000343322754,-1.8370000123977661 -2.0439999103546143,-2.250999927520752 -2.763000011444092,-2.250999927520752 C-3.609999895095825,-2.250999927520752 -4.3480000495910645,-1.6380000114440918 -4.3480000495910645,-0.16300000250339508 C-4.3480000495910645,-0.16300000250339508 -4.3480000495910645,4.591000080108643 -4.3480000495910645,4.591000080108643 C-4.3480000495910645,4.591000080108643 -7.409999847412109,4.591000080108643 -7.409999847412109,4.591000080108643 C-7.409999847412109,4.591000080108643 -7.409999847412109,-4.410999774932861 -7.409999847412109,-4.410999774932861 C-7.409999847412109,-4.410999774932861 -4.671999931335449,-4.410999774932861 -4.671999931335449,-4.410999774932861 C-4.671999931335449,-4.410999774932861 -4.581999778747559,-2.683000087738037 -4.581999778747559,-2.683000087738037 C-4.005000114440918,-3.943000078201294 -2.924999952316284,-4.5920000076293945 -1.5570000410079956,-4.5920000076293945 C-0.2240000069141388,-4.5920000076293945 0.8560000061988831,-3.9790000915527344 1.3049999475479126,-2.7730000019073486 C1.88100004196167,-3.9619998931884766 2.999000072479248,-4.5920000076293945 4.314000129699707,-4.5920000076293945 C6.078000068664551,-4.5920000076293945 7.409999847412109,-3.510999917984009 7.392000198364258,-1.4049999713897705z"></path>
      </g>
      <g opacity="1" transform="matrix(1,0,0,1,383.3139953613281,329.4389953613281)">
        <path fill="rgb(6,44,39)" fill-opacity="1" d=" M4.752999782562256,0 C4.752999782562256,2.9519999027252197 3.00600004196167,4.681000232696533 0,4.681000232696533 C-3.006999969482422,4.681000232696533 -4.754000186920166,2.9519999027252197 -4.754000186920166,0 C-4.754000186920166,-2.953000068664551 -3.006999969482422,-4.682000160217285 0,-4.682000160217285 C3.00600004196167,-4.682000160217285 4.752999782562256,-2.953000068664551 4.752999782562256,0z M-1.6929999589920044,0 C-1.6929999589920044,1.7649999856948853 -1.1339999437332153,2.502000093460083 0,2.502000093460083 C1.1349999904632568,2.502000093460083 1.6929999589920044,1.7649999856948853 1.6929999589920044,0 C1.6929999589920044,-1.7649999856948853 1.1349999904632568,-2.503000020980835 0,-2.503000020980835 C-1.1339999437332153,-2.503000020980835 -1.6929999589920044,-1.7649999856948853 -1.6929999589920044,0z"></path>
      </g>
      <g opacity="1" transform="matrix(1,0,0,1,393.510986328125,329.4389953613281)">
        <path fill="rgb(6,44,39)" fill-opacity="1" d=" M-4.348999977111816,3.0969998836517334 C-4.348999977111816,3.0969998836517334 -2.7639999389648438,1.3680000305175781 -2.7639999389648438,1.3680000305175781 C-2.2239999771118164,2.2690000534057617 -1.2510000467300415,2.6470000743865967 -0.0989999994635582,2.6470000743865967 C0.746999979019165,2.6470000743865967 1.2510000467300415,2.3949999809265137 1.2510000467300415,2.0169999599456787 C1.2510000467300415,1.6740000247955322 0.8190000057220459,1.4579999446868896 -0.3880000114440918,1.2059999704360962 C-3.124000072479248,0.6660000085830688 -4.114999771118164,-0.2160000056028366 -4.114999771118164,-1.6920000314712524 C-4.114999771118164,-3.1689999103546143 -2.7100000381469727,-4.681000232696533 0.22499999403953552,-4.681000232696533 C2.384999990463257,-4.681000232696533 3.575000047683716,-4.051000118255615 4.3480000495910645,-2.989000082015991 C4.3480000495910645,-2.989000082015991 2.7639999389648438,-1.440000057220459 2.7639999389648438,-1.440000057220459 C2.187999963760376,-2.2869999408721924 1.3949999809265137,-2.6470000743865967 0.3149999976158142,-2.6470000743865967 C-0.5849999785423279,-2.6470000743865967 -1.0540000200271606,-2.322999954223633 -1.0540000200271606,-1.9630000591278076 C-1.0540000200271606,-1.6019999980926514 -0.6579999923706055,-1.36899995803833 0.6029999852180481,-1.1339999437332153 C3.2679998874664307,-0.6669999957084656 4.330999851226807,0.18000000715255737 4.330999851226807,1.7289999723434448 C4.330999851226807,3.384999990463257 2.944000005722046,4.681000232696533 0.04600000008940697,4.681000232696533 C-1.9359999895095825,4.681000232696533 -3.430000066757202,4.2129998207092285 -4.348999977111816,3.0969998836517334z"></path>
      </g>
    </g>
    <g transform="matrix(1,0,0,1,2,50)" opacity="1" style="display: block;">
      <g opacity="1" transform="matrix(1,0,0,1,95,328)">
        <path fill="rgb(176,187,186)" fill-opacity="1" d=" M0,-7 C3.859999895095825,-7 7,-3.8589999675750732 7,0 C7,3.8589999675750732 3.859999895095825,7 0,7 C-3.859999895095825,7 -7,3.8589999675750732 -7,0 C-7,-3.8589999675750732 -3.859999895095825,-7 0,-7z M0,-9 C-4.9710001945495605,-9 -9,-4.9710001945495605 -9,0 C-9,4.9710001945495605 -4.9710001945495605,9 0,9 C4.9710001945495605,9 9,4.9710001945495605 9,0 C9,-4.9710001945495605 4.9710001945495605,-9 0,-9z"></path>
      </g>
      <g opacity="1" transform="matrix(1,0,0,1,212.33799743652344,328)">
        <path fill="rgb(176,187,186)" fill-opacity="1" d=" M0,-7 C3.859999895095825,-7 7,-3.8589999675750732 7,0 C7,3.8589999675750732 3.859999895095825,7 0,7 C-3.859999895095825,7 -7,3.8589999675750732 -7,0 C-7,-3.8589999675750732 -3.859999895095825,-7 0,-7z M0,-9 C-4.9710001945495605,-9 -9,-4.9710001945495605 -9,0 C-9,4.9710001945495605 -4.9710001945495605,9 0,9 C4.9710001945495605,9 9,4.9710001945495605 9,0 C9,-4.9710001945495605 4.9710001945495605,-9 0,-9z"></path>
      </g>
      <g opacity="1" transform="matrix(1,0,0,1,329.75799560546875,328)">
        <path fill="rgb(176,187,186)" fill-opacity="1" d=" M0,-7 C3.8589999675750732,-7 7,-3.8589999675750732 7,0 C7,3.8589999675750732 3.8589999675750732,7 0,7 C-3.859999895095825,7 -7,3.8589999675750732 -7,0 C-7,-3.8589999675750732 -3.859999895095825,-7 0,-7z M0,-9 C-4.9710001945495605,-9 -9,-4.9710001945495605 -9,0 C-9,4.9710001945495605 -4.9710001945495605,9 0,9 C4.96999979019165,9 9,4.9710001945495605 9,0 C9,-4.9710001945495605 4.96999979019165,-9 0,-9z"></path>
      </g>
      <g opacity="1" transform="matrix(1,0,0,1,444,328)">
        <path fill="rgb(176,187,186)" fill-opacity="1" d=" M0,-7 C3.8589999675750732,-7 7,-3.8589999675750732 7,0 C7,3.8589999675750732 3.8589999675750732,7 0,7 C-3.8589999675750732,7 -7,3.8589999675750732 -7,0 C-7,-3.8589999675750732 -3.8589999675750732,-7 0,-7z M0,-9 C-4.9710001945495605,-9 -9,-4.9710001945495605 -9,0 C-9,4.9710001945495605 -4.9710001945495605,9 0,9 C4.9710001945495605,9 9,4.9710001945495605 9,0 C9,-4.9710001945495605 4.9710001945495605,-9 0,-9z"></path>
      </g>
    </g>
    <g transform="matrix(1,0,0,1,2.5,50)" opacity="1" style="display: block;">
      <g opacity="1" transform="matrix(1,0,0,1,95,328)">
        <path fill="rgb(58,159,241)" fill-opacity="1" d=" M0,-3 C1.6540000438690186,-3 3,-1.6540000438690186 3,0 C3,1.6540000438690186 1.6540000438690186,3 0,3 C-1.6540000438690186,3 -3,1.6540000438690186 -3,0 C-3,-1.6540000438690186 -1.6540000438690186,-3 0,-3z M0,-9 C-4.9710001945495605,-9 -9,-4.9710001945495605 -9,0 C-9,4.9710001945495605 -4.9710001945495605,9 0,9 C4.9710001945495605,9 9,4.9710001945495605 9,0 C9,-4.9710001945495605 4.9710001945495605,-9 0,-9z"></path>
      </g>
      <g opacity="0" transform="matrix(1,0,0,1,212,328)">
        <path fill="rgb(58,159,241)" fill-opacity="1" d=" M0,-3 C1.6540000438690186,-3 3,-1.6540000438690186 3,0 C3,1.6540000438690186 1.6540000438690186,3 0,3 C-1.6540000438690186,3 -3,1.6540000438690186 -3,0 C-3,-1.6540000438690186 -1.6540000438690186,-3 0,-3z M0,-9 C-4.9710001945495605,-9 -9,-4.9710001945495605 -9,0 C-9,4.9710001945495605 -4.9710001945495605,9 0,9 C4.9710001945495605,9 9,4.9710001945495605 9,0 C9,-4.9710001945495605 4.9710001945495605,-9 0,-9z"></path>
      </g>
      <g opacity="0" transform="matrix(1,0,0,1,329.75799560546875,328)">
        <path fill="rgb(58,159,241)" fill-opacity="1" d=" M0,-3 C1.652999997138977,-3 3,-1.6540000438690186 3,0 C3,1.6540000438690186 1.652999997138977,3 0,3 C-1.6540000438690186,3 -3,1.6540000438690186 -3,0 C-3,-1.6540000438690186 -1.6540000438690186,-3 0,-3z M0,-9 C-4.9710001945495605,-9 -9,-4.9710001945495605 -9,0 C-9,4.9710001945495605 -4.9710001945495605,9 0,9 C4.96999979019165,9 9,4.9710001945495605 9,0 C9,-4.9710001945495605 4.96999979019165,-9 0,-9z"></path>
      </g>
    </g>
    <g transform="matrix(1,0,0,0.7336599826812744,-274,213)" opacity="1" style="display: block;">
      <g opacity="1" transform="matrix(0.7730799913406372,0,0,1,282.4939880371094,-15.904000282287598)">
        <path fill="rgb(234,250,241)" fill-opacity="1" d=" M15,-50 C15,-50 15,50 15,50 C15,50 -15,50 -15,50 C-15,50 -15,-50 -15,-50 C-15,-50 15,-50 15,-50z"></path>
        <path stroke-linecap="butt" stroke-linejoin="miter" fill-opacity="0" stroke-miterlimit="4" stroke="rgb(255,255,255)" stroke-opacity="1" stroke-width="0" d=" M15,-50 C15,-50 15,50 15,50 C15,50 -15,50 -15,50 C-15,50 -15,-50 -15,-50 C-15,-50 15,-50 15,-50z"></path>
      </g>
      <g opacity="1" transform="matrix(0.6477500200271606,0,0,4.1909098625183105,865.2750244140625,-15.904000282287598)">
        <path fill="rgb(234,250,241)" fill-opacity="1" d=" M15,-50 C15,-50 15,50 15,50 C15,50 -15,50 -15,50 C-15,50 -15,-50 -15,-50 C-15,-50 15,-50 15,-50z"></path>
        <path stroke-linecap="butt" stroke-linejoin="miter" fill-opacity="0" stroke-miterlimit="4" stroke="rgb(255,255,255)" stroke-opacity="1" stroke-width="0" d=" M15,-50 C15,-50 15,50 15,50 C15,50 -15,50 -15,50 C-15,50 -15,-50 -15,-50 C-15,-50 15,-50 15,-50z"></path>
      </g>
    </g>
  </g>
</svg>