<svg xmlns="http://www.w3.org/2000/svg" viewBox="0 0 600 500" width="600" height="500" preserveAspectRatio="xMidYMid meet" style="width: 100%; height: 100%; transform: translate3d(0px, 0px, 0px);">
  <defs>
    <clipPath id="__lottie_element_63">
      <rect width="600" height="500" x="0" y="0"></rect>
    </clipPath>
  </defs>
  <g clip-path="url(#__lottie_element_63)">
    <g transform="matrix(1,0,0,1,0,0)" opacity="1" style="display: block;">
      <g opacity="1" transform="matrix(1,0,0,1,299.7090148925781,172.20899963378906)">
        <path fill="rgb(237,240,248)" fill-opacity="1" d=" M279.0480041503906,147.88999938964844 C279.0480041503906,147.88999938964844 -279.0480041503906,147.88999938964844 -279.0480041503906,147.88999938964844 C-279.0480041503906,147.88999938964844 -279.0480041503906,-133.88999938964844 -279.0480041503906,-133.88999938964844 C-279.0480041503906,-141.6230010986328 -272.7799987792969,-147.88999938964844 -265.0480041503906,-147.88999938964844 C-265.0480041503906,-147.88999938964844 265.0480041503906,-147.88999938964844 265.0480041503906,-147.88999938964844 C272.77899169921875,-147.88999938964844 279.0480041503906,-141.6230010986328 279.0480041503906,-133.88999938964844 C279.0480041503906,-133.88999938964844 279.0480041503906,147.88999938964844 279.0480041503906,147.88999938964844z"></path>
      </g>
      <g opacity="1" transform="matrix(1,0,0,1,299.7090148925781,208.26400756835938)">
        <path fill="rgb(213,218,228)" fill-opacity="1" d=" M265.0480041503906,-183.94500732421875 C272.77899169921875,-183.94500732421875 279.0480041503906,-177.677001953125 279.0480041503906,-169.94500732421875 C279.0480041503906,-169.94500732421875 279.0480041503906,169.94500732421875 279.0480041503906,169.94500732421875 C279.0480041503906,177.677001953125 272.77899169921875,183.94500732421875 265.0480041503906,183.94500732421875 C265.0480041503906,183.94500732421875 -265.0480041503906,183.94500732421875 -265.0480041503906,183.94500732421875 C-272.7799987792969,183.94500732421875 -279.0480041503906,177.677001953125 -279.0480041503906,169.94500732421875 C-279.0480041503906,169.94500732421875 -279.0480041503906,-169.94500732421875 -279.0480041503906,-169.94500732421875 C-279.0480041503906,-177.677001953125 -272.7799987792969,-183.94500732421875 -265.0480041503906,-183.94500732421875 C-265.0480041503906,-183.94500732421875 265.0480041503906,-183.94500732421875 265.0480041503906,-183.94500732421875z M265.0480041503906,-184.94500732421875 C265.0480041503906,-184.94500732421875 -265.0480041503906,-184.94500732421875 -265.0480041503906,-184.94500732421875 C-273.3190002441406,-184.94500732421875 -280.0480041503906,-178.21600341796875 -280.0480041503906,-169.94500732421875 C-280.0480041503906,-169.94500732421875 -280.0480041503906,169.94500732421875 -280.0480041503906,169.94500732421875 C-280.0480041503906,178.21600341796875 -273.3190002441406,184.94500732421875 -265.0480041503906,184.94500732421875 C-265.0480041503906,184.94500732421875 265.0480041503906,184.94500732421875 265.0480041503906,184.94500732421875 C273.3190002441406,184.94500732421875 280.0480041503906,178.21600341796875 280.0480041503906,169.94500732421875 C280.0480041503906,169.94500732421875 280.0480041503906,-169.94500732421875 280.0480041503906,-169.94500732421875 C280.0480041503906,-178.21600341796875 273.3190002441406,-184.94500732421875 265.0480041503906,-184.94500732421875z"></path>
      </g>
      <g opacity="1" transform="matrix(1,0,0,1,299.7099914550781,320.3299865722656)">
        <path fill="rgb(213,218,228)" fill-opacity="1" d=" M279.4739990234375,-0.5 C279.4739990234375,-0.5 -279.4739990234375,-0.5 -279.4739990234375,-0.5 C-279.4739990234375,-0.5 -279.4739990234375,0.5 -279.4739990234375,0.5 C-279.4739990234375,0.5 279.4739990234375,0.5 279.4739990234375,0.5 C279.4739990234375,0.5 279.4739990234375,-0.5 279.4739990234375,-0.5z"></path>
      </g>
    </g>
    <g transform="matrix(1,0,0,1,0,56)" opacity="1" style="display: block;">
      <g opacity="1" transform="matrix(1,0,0,1,450,300)">
        <path fill="rgb(27,78,149)" fill-opacity="1" d=" M-87,20 C-87,20 87,20 87,20 C88.65699768066406,20 90,18.656999588012695 90,17 C90,17 90,-17 90,-17 C90,-18.656999588012695 88.65699768066406,-20 87,-20 C87,-20 -87,-20 -87,-20 C-88.65699768066406,-20 -90,-18.656999588012695 -90,-17 C-90,-17 -90,17 -90,17 C-90,18.656999588012695 -88.65699768066406,20 -87,20z"></path>
      </g>
      <g opacity="1" transform="matrix(1,0,0,1,408.5769958496094,299.76300048828125)">
        <path fill="rgb(251,251,251)" fill-opacity="1" d=" M4.111999988555908,-3.0950000286102295 C4.111999988555908,-3.0950000286102295 2.753999948501587,-1.5269999504089355 2.753999948501587,-1.5269999504089355 C2.13700008392334,-2.4509999752044678 1.3519999980926514,-2.884999990463257 0.17599999904632568,-2.884999990463257 C-0.8190000057220459,-2.884999990463257 -1.3370000123977661,-2.493000030517578 -1.3370000123977661,-1.9609999656677246 C-1.3370000123977661,-1.4850000143051147 -0.8330000042915344,-1.2330000400543213 0.4830000102519989,-0.9940000176429749 C3.046999931335449,-0.5320000052452087 4.041999816894531,0.29499998688697815 4.041999816894531,1.9199999570846558 C4.041999816894531,3.7260000705718994 2.359999895095825,4.76200008392334 0.13300000131130219,4.76200008392334 C-2.052000045776367,4.76200008392334 -3.2009999752044678,4.203000068664551 -4.111999988555908,3.194000005722046 C-4.111999988555908,3.194000005722046 -2.878000020980835,1.5130000114440918 -2.878000020980835,1.5130000114440918 C-2.121999979019165,2.562999963760376 -1.225000023841858,2.884999990463257 0.00800000037997961,2.884999990463257 C1.0449999570846558,2.884999990463257 1.5479999780654907,2.578000068664551 1.5479999780654907,2.0460000038146973 C1.5479999780654907,1.6109999418258667 1.0149999856948853,1.3730000257492065 -0.24500000476837158,1.1339999437332153 C-2.430000066757202,0.7009999752044678 -3.8450000286102295,0.0560000017285347 -3.8450000286102295,-1.75 C-3.8450000286102295,-3.48799991607666 -2.4030001163482666,-4.76200008392334 0.13300000131130219,-4.76200008392334 C1.8700000047683716,-4.76200008392334 3.0480000972747803,-4.285999774932861 4.111999988555908,-3.0950000286102295z"></path>
      </g>
      <g opacity="1" transform="matrix(1,0,0,1,416.7669982910156,302.3900146484375)">
        <path fill="rgb(251,251,251)" fill-opacity="1" d=" M1.4079999923706055,1.996000051498413 C0.6370000243186951,4.223999977111816 -0.28600001335144043,5.007999897003174 -2.065999984741211,5.007999897003174 C-2.878000020980835,5.007999897003174 -3.507999897003174,4.824999809265137 -3.9709999561309814,4.488999843597412 C-3.9709999561309814,4.488999843597412 -3.4660000801086426,2.8919999599456787 -3.4660000801086426,2.8919999599456787 C-3.1579999923706055,3.1730000972747803 -2.822000026702881,3.256999969482422 -2.26200008392334,3.256999969482422 C-1.7009999752044678,3.256999969482422 -1.378999948501587,3.117000102996826 -1.1690000295639038,2.5840001106262207 C-1.1690000295639038,2.5840001106262207 -1.0010000467300415,2.1500000953674316 -1.0010000467300415,2.1500000953674316 C-1.0010000467300415,2.1500000953674316 -1.8140000104904175,0.24500000476837158 -1.8140000104904175,0.24500000476837158 C-1.8140000104904175,0.24500000476837158 -3.9010000228881836,-5.007999897003174 -3.9010000228881836,-5.007999897003174 C-3.9010000228881836,-5.007999897003174 -1.281000018119812,-5.007999897003174 -1.281000018119812,-5.007999897003174 C-1.281000018119812,-5.007999897003174 -0.20200000703334808,-1.0160000324249268 -0.20200000703334808,-1.0160000324249268 C-0.20200000703334808,-1.0160000324249268 0.1340000033378601,0.4699999988079071 0.1340000033378601,0.4699999988079071 C0.1340000033378601,0.4699999988079071 0.5120000243186951,-1.0709999799728394 0.5120000243186951,-1.0709999799728394 C0.5120000243186951,-1.0709999799728394 1.590999960899353,-5.007999897003174 1.590999960899353,-5.007999897003174 C1.590999960899353,-5.007999897003174 3.9709999561309814,-5.007999897003174 3.9709999561309814,-5.007999897003174 C3.9709999561309814,-5.007999897003174 1.4079999923706055,1.996000051498413 1.4079999923706055,1.996000051498413z"></path>
      </g>
      <g opacity="1" transform="matrix(1,0,0,1,424.9010009765625,300.8139953613281)">
        <path fill="rgb(251,251,251)" fill-opacity="1" d=" M3.509000062942505,-1.0920000076293945 C3.509000062942505,-1.0920000076293945 3.509000062942505,3.572000026702881 3.509000062942505,3.572000026702881 C3.509000062942505,3.572000026702881 1.128000020980835,3.572000026702881 1.128000020980835,3.572000026702881 C1.128000020980835,3.572000026702881 1.128000020980835,-0.4350000023841858 1.128000020980835,-0.4350000023841858 C1.128000020980835,-1.4299999475479126 0.722000002861023,-1.7510000467300415 0.13300000131130219,-1.7510000467300415 C-0.5529999732971191,-1.7510000467300415 -1.128000020980835,-1.2879999876022339 -1.128000020980835,-0.12600000202655792 C-1.128000020980835,-0.12600000202655792 -1.128000020980835,3.572000026702881 -1.128000020980835,3.572000026702881 C-1.128000020980835,3.572000026702881 -3.509000062942505,3.572000026702881 -3.509000062942505,3.572000026702881 C-3.509000062942505,3.572000026702881 -3.509000062942505,-3.431999921798706 -3.509000062942505,-3.431999921798706 C-3.509000062942505,-3.431999921798706 -1.3799999952316284,-3.431999921798706 -1.3799999952316284,-3.431999921798706 C-1.3799999952316284,-3.431999921798706 -1.309000015258789,-2.072999954223633 -1.309000015258789,-2.072999954223633 C-0.8759999871253967,-3.068000078201294 -0.020999999716877937,-3.572000026702881 1.0850000381469727,-3.572000026702881 C2.5290000438690186,-3.572000026702881 3.509000062942505,-2.7170000076293945 3.509000062942505,-1.0920000076293945z"></path>
      </g>
      <g opacity="1" transform="matrix(1,0,0,1,433.0769958496094,300.8840026855469)">
        <path fill="rgb(251,251,251)" fill-opacity="1" d=" M3.5230000019073486,-1.4709999561309814 C3.5230000019073486,-1.4709999561309814 1.309999942779541,-0.7419999837875366 1.309999942779541,-0.7419999837875366 C1.2120000123977661,-1.5549999475479126 0.8610000014305115,-1.9479999542236328 0.23000000417232513,-1.9479999542236328 C-0.6660000085830688,-1.9479999542236328 -1.156000018119812,-1.343999981880188 -1.156000018119812,0.028999999165534973 C-1.156000018119812,1.4160000085830688 -0.6100000143051147,1.9479999542236328 0.23000000417232513,1.9479999542236328 C0.902999997138977,1.9479999542236328 1.281000018119812,1.5410000085830688 1.3930000066757202,0.8119999766349792 C1.3930000066757202,0.8119999766349792 3.5380001068115234,1.5 3.5380001068115234,1.5 C3.3410000801086426,2.7179999351501465 2.2070000171661377,3.6419999599456787 0.2460000067949295,3.6419999599456787 C-2.2060000896453857,3.6419999599456787 -3.5380001068115234,2.296999931335449 -3.5380001068115234,0 C-3.5380001068115234,-2.296999931335449 -2.177999973297119,-3.6419999599456787 0.1469999998807907,-3.6419999599456787 C2.4170000553131104,-3.6419999599456787 3.2990000247955322,-2.6059999465942383 3.5230000019073486,-1.4709999561309814z"></path>
      </g>
      <g opacity="1" transform="matrix(1,0,0,1,445.78900146484375,301.12200927734375)">
        <path fill="rgb(251,251,251)" fill-opacity="1" d=" M3.88700008392334,3.6989998817443848 C3.88700008392334,3.6989998817443848 4.460999965667725,5.449999809265137 4.460999965667725,5.449999809265137 C3.984999895095825,5.86899995803833 3.1449999809265137,6.120999813079834 2.0789999961853027,6.120999813079834 C0.10499999672174454,6.120999813079834 -0.9179999828338623,5.057000160217285 -0.8050000071525574,3.3480000495910645 C-3.13100004196167,3.0390000343322754 -4.531000137329102,1.3309999704360962 -4.531000137329102,-1.3580000400543213 C-4.531000137329102,-4.3420000076293945 -2.806999921798706,-6.120999813079834 0.00800000037997961,-6.120999813079834 C2.822999954223633,-6.120999813079834 4.531000137329102,-4.3420000076293945 4.531000137329102,-1.3580000400543213 C4.531000137329102,1.3589999675750732 3.115999937057495,3.068000078201294 0.7490000128746033,3.361999988555908 C0.8330000042915344,4.063000202178955 1.3650000095367432,4.24399995803833 2.1640000343322754,4.24399995803833 C2.934000015258789,4.24399995803833 3.509000062942505,4.047999858856201 3.88700008392334,3.6989998817443848z M0.00800000037997961,1.5130000114440918 C1.3380000591278076,1.5130000114440918 2.065999984741211,0.5329999923706055 2.065999984741211,-1.3580000400543213 C2.065999984741211,-3.25 1.3380000591278076,-4.230000019073486 0.00800000037997961,-4.230000019073486 C-1.3370000123977661,-4.230000019073486 -2.065999984741211,-3.25 -2.065999984741211,-1.3580000400543213 C-2.065999984741211,0.5329999923706055 -1.3370000123977661,1.5130000114440918 0.00800000037997961,1.5130000114440918z"></path>
      </g>
      <g opacity="1" transform="matrix(1,0,0,1,455.0710144042969,300.9540100097656)">
        <path fill="rgb(251,251,251)" fill-opacity="1" d=" M3.509000062942505,-3.572000026702881 C3.509000062942505,-3.572000026702881 3.509000062942505,3.431999921798706 3.509000062942505,3.431999921798706 C3.509000062942505,3.431999921798706 1.3799999952316284,3.431999921798706 1.3799999952316284,3.431999921798706 C1.3799999952316284,3.431999921798706 1.309999942779541,2.128999948501587 1.309999942779541,2.128999948501587 C0.875,3.109999895095825 0.020999999716877937,3.572000026702881 -1.1139999628067017,3.572000026702881 C-2.5429999828338623,3.572000026702881 -3.509000062942505,2.871000051498413 -3.509000062942505,1.1069999933242798 C-3.509000062942505,1.1069999933242798 -3.509000062942505,-3.572000026702881 -3.509000062942505,-3.572000026702881 C-3.509000062942505,-3.572000026702881 -1.128000020980835,-3.572000026702881 -1.128000020980835,-3.572000026702881 C-1.128000020980835,-3.572000026702881 -1.128000020980835,0.5040000081062317 -1.128000020980835,0.5040000081062317 C-1.128000020980835,1.4570000171661377 -0.7770000100135803,1.7510000467300415 -0.16099999845027924,1.7510000467300415 C0.5809999704360962,1.7510000467300415 1.1269999742507935,1.2610000371932983 1.1269999742507935,0.14000000059604645 C1.1269999742507935,0.14000000059604645 1.1269999742507935,-3.572000026702881 1.1269999742507935,-3.572000026702881 C1.1269999742507935,-3.572000026702881 3.509000062942505,-3.572000026702881 3.509000062942505,-3.572000026702881z"></path>
      </g>
      <g opacity="1" transform="matrix(1,0,0,1,461.27899169921875,299.33599853515625)">
        <path fill="rgb(251,251,251)" fill-opacity="1" d=" M-1.3869999647140503,-3.9010000228881836 C-1.3869999647140503,-4.698999881744385 -0.9660000205039978,-5.050000190734863 0,-5.050000190734863 C0.9670000076293945,-5.050000190734863 1.3869999647140503,-4.698999881744385 1.3869999647140503,-3.9010000228881836 C1.3869999647140503,-3.115999937057495 0.9670000076293945,-2.7669999599456787 0,-2.7669999599456787 C-0.9660000205039978,-2.7669999599456787 -1.3869999647140503,-3.115999937057495 -1.3869999647140503,-3.9010000228881836z M1.190999984741211,5.050000190734863 C1.190999984741211,5.050000190734863 -1.190000057220459,5.050000190734863 -1.190000057220459,5.050000190734863 C-1.190000057220459,5.050000190734863 -1.190000057220459,-1.9539999961853027 -1.190000057220459,-1.9539999961853027 C-1.190000057220459,-1.9539999961853027 1.190999984741211,-1.9539999961853027 1.190999984741211,-1.9539999961853027 C1.190999984741211,-1.9539999961853027 1.190999984741211,5.050000190734863 1.190999984741211,5.050000190734863z"></path>
      </g>
      <g opacity="1" transform="matrix(1,0,0,1,467.1669921875,300.8840026855469)">
        <path fill="rgb(251,251,251)" fill-opacity="1" d=" M3.5230000019073486,-1.4709999561309814 C3.5230000019073486,-1.4709999561309814 1.309999942779541,-0.7419999837875366 1.309999942779541,-0.7419999837875366 C1.2120000123977661,-1.5549999475479126 0.8610000014305115,-1.9479999542236328 0.23000000417232513,-1.9479999542236328 C-0.6660000085830688,-1.9479999542236328 -1.156000018119812,-1.343999981880188 -1.156000018119812,0.028999999165534973 C-1.156000018119812,1.4160000085830688 -0.6100000143051147,1.9479999542236328 0.23000000417232513,1.9479999542236328 C0.902999997138977,1.9479999542236328 1.281000018119812,1.5410000085830688 1.3930000066757202,0.8119999766349792 C1.3930000066757202,0.8119999766349792 3.5380001068115234,1.5 3.5380001068115234,1.5 C3.3410000801086426,2.7179999351501465 2.2070000171661377,3.6419999599456787 0.2460000067949295,3.6419999599456787 C-2.2060000896453857,3.6419999599456787 -3.5380001068115234,2.296999931335449 -3.5380001068115234,0 C-3.5380001068115234,-2.296999931335449 -2.177999973297119,-3.6419999599456787 0.1469999998807907,-3.6419999599456787 C2.4170000553131104,-3.6419999599456787 3.2990000247955322,-2.6059999465942383 3.5230000019073486,-1.4709999561309814z"></path>
      </g>
      <g opacity="1" transform="matrix(1,0,0,1,475.6860046386719,299.39898681640625)">
        <path fill="rgb(251,251,251)" fill-opacity="1" d=" M-0.42100000381469727,2.115999937057495 C-0.42100000381469727,2.115999937057495 -1.5410000085830688,3.375999927520752 -1.5410000085830688,3.375999927520752 C-1.5410000085830688,3.375999927520752 -1.5410000085830688,4.986999988555908 -1.5410000085830688,4.986999988555908 C-1.5410000085830688,4.986999988555908 -3.9230000972747803,4.986999988555908 -3.9230000972747803,4.986999988555908 C-3.9230000972747803,4.986999988555908 -3.9230000972747803,-4.986999988555908 -3.9230000972747803,-4.986999988555908 C-3.9230000972747803,-4.986999988555908 -1.5410000085830688,-4.986999988555908 -1.5410000085830688,-4.986999988555908 C-1.5410000085830688,-4.986999988555908 -1.5410000085830688,0.925000011920929 -1.5410000085830688,0.925000011920929 C-1.5410000085830688,0.925000011920929 1.1339999437332153,-2.0169999599456787 1.1339999437332153,-2.0169999599456787 C1.1339999437332153,-2.0169999599456787 3.7669999599456787,-2.0169999599456787 3.7669999599456787,-2.0169999599456787 C3.7669999599456787,-2.0169999599456787 1.190000057220459,0.7289999723434448 1.190000057220459,0.7289999723434448 C1.190000057220459,0.7289999723434448 3.921999931335449,4.986999988555908 3.921999931335449,4.986999988555908 C3.921999931335449,4.986999988555908 1.2879999876022339,4.986999988555908 1.2879999876022339,4.986999988555908 C1.2879999876022339,4.986999988555908 -0.42100000381469727,2.115999937057495 -0.42100000381469727,2.115999937057495z"></path>
      </g>
      <g opacity="1" transform="matrix(1,0,0,1,484.4779968261719,299.76300048828125)">
        <path fill="rgb(251,251,251)" fill-opacity="1" d=" M-4.034999847412109,-4.622000217437744 C-4.034999847412109,-4.622000217437744 0.4620000123977661,-4.622000217437744 0.4620000123977661,-4.622000217437744 C2.744999885559082,-4.607999801635742 3.796999931335449,-3.740000009536743 3.796999931335449,-2.130000114440918 C3.796999931335449,-1.0789999961853027 3.178999900817871,-0.2529999911785126 1.9179999828338623,-0.0560000017285347 C1.9179999828338623,-0.0560000017285347 1.9179999828338623,-0.041999999433755875 1.9179999828338623,-0.041999999433755875 C3.3329999446868896,0.15399999916553497 4.033999919891357,1.0080000162124634 4.033999919891357,2.128999948501587 C4.033999919891357,3.7260000705718994 2.9000000953674316,4.622000217437744 0.671999990940094,4.622000217437744 C0.671999990940094,4.622000217437744 -4.034999847412109,4.622000217437744 -4.034999847412109,4.622000217437744 C-4.034999847412109,4.622000217437744 -4.034999847412109,-4.622000217437744 -4.034999847412109,-4.622000217437744z M0.028999999165534973,-0.8410000205039978 C0.8970000147819519,-0.8410000205039978 1.3309999704360962,-1.1770000457763672 1.3309999704360962,-1.8489999771118164 C1.3309999704360962,-2.5209999084472656 0.8970000147819519,-2.8580000400543213 0.028999999165534973,-2.8580000400543213 C0.028999999165534973,-2.8580000400543213 -1.7100000381469727,-2.8580000400543213 -1.7100000381469727,-2.8580000400543213 C-1.7100000381469727,-2.8580000400543213 -1.7100000381469727,-0.8410000205039978 -1.7100000381469727,-0.8410000205039978 C-1.7100000381469727,-0.8410000205039978 0.028999999165534973,-0.8410000205039978 0.028999999165534973,-0.8410000205039978z M0.2669999897480011,2.927000045776367 C1.1349999904632568,2.927000045776367 1.569000005722046,2.563999891281128 1.569000005722046,1.8919999599456787 C1.569000005722046,1.246999979019165 1.1349999904632568,0.8820000290870667 0.2669999897480011,0.8820000290870667 C0.2669999897480011,0.8820000290870667 -1.7100000381469727,0.8820000290870667 -1.7100000381469727,0.8820000290870667 C-1.7100000381469727,0.8820000290870667 -1.7100000381469727,2.927000045776367 -1.7100000381469727,2.927000045776367 C-1.7100000381469727,2.927000045776367 0.2669999897480011,2.927000045776367 0.2669999897480011,2.927000045776367z"></path>
      </g>
      <g opacity="1" transform="matrix(1,0,0,1,493.0169982910156,300.8840026855469)">
        <path fill="rgb(251,251,251)" fill-opacity="1" d=" M3.697999954223633,0 C3.697999954223633,2.296999931335449 2.3389999866485596,3.6419999599456787 0,3.6419999599456787 C-2.3389999866485596,3.6419999599456787 -3.697999954223633,2.296999931335449 -3.697999954223633,0 C-3.697999954223633,-2.296999931335449 -2.3389999866485596,-3.6419999599456787 0,-3.6419999599456787 C2.3389999866485596,-3.6419999599456787 3.697999954223633,-2.296999931335449 3.697999954223633,0z M-1.3170000314712524,0 C-1.3170000314712524,1.3730000257492065 -0.8820000290870667,1.9470000267028809 0,1.9470000267028809 C0.8820000290870667,1.9470000267028809 1.3170000314712524,1.3730000257492065 1.3170000314712524,0 C1.3170000314712524,-1.3730000257492065 0.8820000290870667,-1.9470000267028809 0,-1.9470000267028809 C-0.8820000290870667,-1.9470000267028809 -1.3170000314712524,-1.3730000257492065 -1.3170000314712524,0z"></path>
      </g>
      <g opacity="1" transform="matrix(1,0,0,1,501.2489929199219,300.8840026855469)">
        <path fill="rgb(251,251,251)" fill-opacity="1" d=" M3.697999954223633,0 C3.697999954223633,2.296999931335449 2.3389999866485596,3.6419999599456787 -0.0010000000474974513,3.6419999599456787 C-2.3389999866485596,3.6419999599456787 -3.6989998817443848,2.296999931335449 -3.6989998817443848,0 C-3.6989998817443848,-2.296999931335449 -2.3389999866485596,-3.6419999599456787 -0.0010000000474974513,-3.6419999599456787 C2.3389999866485596,-3.6419999599456787 3.697999954223633,-2.296999931335449 3.697999954223633,0z M-1.315999984741211,0 C-1.315999984741211,1.3730000257492065 -0.8820000290870667,1.9470000267028809 -0.0010000000474974513,1.9470000267028809 C0.8820000290870667,1.9470000267028809 1.3170000314712524,1.3730000257492065 1.3170000314712524,0 C1.3170000314712524,-1.3730000257492065 0.8820000290870667,-1.9470000267028809 -0.0010000000474974513,-1.9470000267028809 C-0.8820000290870667,-1.9470000267028809 -1.315999984741211,-1.3730000257492065 -1.315999984741211,0z"></path>
      </g>
      <g opacity="1" transform="matrix(1,0,0,1,510.0419921875,299.39898681640625)">
        <path fill="rgb(251,251,251)" fill-opacity="1" d=" M-0.41999998688697815,2.115999937057495 C-0.41999998688697815,2.115999937057495 -1.5399999618530273,3.375999927520752 -1.5399999618530273,3.375999927520752 C-1.5399999618530273,3.375999927520752 -1.5399999618530273,4.986999988555908 -1.5399999618530273,4.986999988555908 C-1.5399999618530273,4.986999988555908 -3.921999931335449,4.986999988555908 -3.921999931335449,4.986999988555908 C-3.921999931335449,4.986999988555908 -3.921999931335449,-4.986999988555908 -3.921999931335449,-4.986999988555908 C-3.921999931335449,-4.986999988555908 -1.5399999618530273,-4.986999988555908 -1.5399999618530273,-4.986999988555908 C-1.5399999618530273,-4.986999988555908 -1.5399999618530273,0.925000011920929 -1.5399999618530273,0.925000011920929 C-1.5399999618530273,0.925000011920929 1.1349999904632568,-2.0169999599456787 1.1349999904632568,-2.0169999599456787 C1.1349999904632568,-2.0169999599456787 3.7679998874664307,-2.0169999599456787 3.7679998874664307,-2.0169999599456787 C3.7679998874664307,-2.0169999599456787 1.190999984741211,0.7289999723434448 1.190999984741211,0.7289999723434448 C1.190999984741211,0.7289999723434448 3.921999931335449,4.986999988555908 3.921999931335449,4.986999988555908 C3.921999931335449,4.986999988555908 1.2890000343322754,4.986999988555908 1.2890000343322754,4.986999988555908 C1.2890000343322754,4.986999988555908 -0.41999998688697815,2.115999937057495 -0.41999998688697815,2.115999937057495z"></path>
      </g>
      <g opacity="1" transform="matrix(1,0,0,1,517.4409790039062,300.88299560546875)">
        <path fill="rgb(251,251,251)" fill-opacity="1" d=" M-3.382999897003174,2.4100000858306885 C-3.382999897003174,2.4100000858306885 -2.1510000228881836,1.065000057220459 -2.1510000228881836,1.065000057220459 C-1.7309999465942383,1.7649999856948853 -0.9739999771118164,2.059999942779541 -0.07699999958276749,2.059999942779541 C0.5809999704360962,2.059999942779541 0.972000002861023,1.8639999628067017 0.972000002861023,1.5700000524520874 C0.972000002861023,1.3040000200271606 0.6370000243186951,1.1360000371932983 -0.3019999861717224,0.9390000104904175 C-2.430999994277954,0.5189999938011169 -3.2009999752044678,-0.16699999570846558 -3.2009999752044678,-1.315999984741211 C-3.2009999752044678,-2.4639999866485596 -2.1089999675750732,-3.6410000324249268 0.17499999701976776,-3.6410000324249268 C1.8550000190734863,-3.6410000324249268 2.7799999713897705,-3.1510000228881836 3.382999897003174,-2.3239998817443848 C3.382999897003174,-2.3239998817443848 2.1489999294281006,-1.11899995803833 2.1489999294281006,-1.11899995803833 C1.7009999752044678,-1.777999997138977 1.0850000381469727,-2.058000087738037 0.24500000476837158,-2.058000087738037 C-0.4560000002384186,-2.058000087738037 -0.8199999928474426,-1.805999994277954 -0.8199999928474426,-1.5260000228881836 C-0.8199999928474426,-1.246000051498413 -0.5120000243186951,-1.0640000104904175 0.4690000116825104,-0.8820000290870667 C2.5420000553131104,-0.5180000066757202 3.368000030517578,0.14100000262260437 3.368000030517578,1.3459999561309814 C3.368000030517578,2.634999990463257 2.2899999618530273,3.6419999599456787 0.03400000184774399,3.6419999599456787 C-1.50600004196167,3.6419999599456787 -2.6689999103546143,3.2780001163482666 -3.382999897003174,2.4100000858306885z"></path>
      </g>
      <g opacity="1" transform="matrix(1,0,0,1,388.572998046875,299.385986328125)">
        <path fill="rgb(31,226,116)" fill-opacity="1" d=" M3.8350000381469727,-4.679999828338623 C3.8350000381469727,-4.679999828338623 3.1679999828338623,-4.679999828338623 3.1679999828338623,-4.679999828338623 C3.1679999828338623,-4.679999828338623 3.1679999828338623,-2.882999897003174 3.1679999828338623,-2.882999897003174 C3.1679999828338623,-2.882999897003174 3.8350000381469727,-2.882999897003174 3.8350000381469727,-2.882999897003174 C5.452000141143799,-2.882999897003174 6.76800012588501,-1.5169999599456787 6.76800012588501,0.1599999964237213 C6.76800012588501,1.8380000591278076 5.452000141143799,3.2019999027252197 3.8350000381469727,3.2019999027252197 C3.8350000381469727,3.2019999027252197 2.2330000400543213,3.2019999027252197 2.2330000400543213,3.2019999027252197 C2.2330000400543213,3.2019999027252197 2.2330000400543213,-6.202000141143799 2.2330000400543213,-6.202000141143799 C2.2330000400543213,-7.193999767303467 1.4570000171661377,-8 0.5,-8 C0.5,-8 0.5,5 0.5,5 C0.5,5 3.8350000381469727,5 3.8350000381469727,5 C6.4120001792907715,5 8.5,2.8329999446868896 8.5,0.1599999964237213 C8.5,-2.513000011444092 6.4120001792907715,-4.679999828338623 3.8350000381469727,-4.679999828338623z M-8.5,-0.1589999943971634 C-8.5,2.5139999389648438 -6.410999774932861,4.682000160217285 -3.8340001106262207,4.682000160217285 C-3.8340001106262207,4.682000160217285 -3.1679999828338623,4.682000160217285 -3.1679999828338623,4.682000160217285 C-3.1679999828338623,4.682000160217285 -3.1679999828338623,2.884000062942505 -3.1679999828338623,2.884000062942505 C-3.1679999828338623,2.884000062942505 -3.8340001106262207,2.884000062942505 -3.8340001106262207,2.884000062942505 C-5.451000213623047,2.884000062942505 -6.767000198364258,1.5190000534057617 -6.767000198364258,-0.1589999943971634 C-6.767000198364258,-1.8370000123977661 -5.451000213623047,-3.2019999027252197 -3.8340001106262207,-3.2019999027252197 C-3.8340001106262207,-3.2019999027252197 -2.2320001125335693,-3.2019999027252197 -2.2320001125335693,-3.2019999027252197 C-2.2320001125335693,-3.2019999027252197 -2.2320001125335693,6.202000141143799 -2.2320001125335693,6.202000141143799 C-2.2320001125335693,7.195000171661377 -1.4570000171661377,8 -0.5,8 C-0.5,8 -0.5,-5 -0.5,-5 C-0.5,-5 -3.8340001106262207,-5 -3.8340001106262207,-5 C-6.410999774932861,-5 -8.5,-2.8320000171661377 -8.5,-0.1589999943971634z"></path>
      </g>
    </g>
    <g style="display: none;" transform="matrix(-0.9999843835830688,0.005590568296611309,-0.005590568296611309,-0.9999843835830688,397.0501708984375,364.9495544433594)" opacity="0.0005074290674679105">
      <g opacity="1" transform="matrix(1,0,0,1,12.505000114440918,3.805000066757202)">
        <path stroke-linecap="butt" stroke-linejoin="miter" fill-opacity="0" stroke-miterlimit="10" stroke="rgb(31,226,116)" stroke-opacity="1" stroke-width="2" d=" M-3.4860000610351562,-2.365000009536743 C-0.32199999690055847,-2.365000009536743 2.384000062942505,-0.4059999883174896 3.4860000610351562,2.365000009536743"></path>
      </g>
    </g>
    <g transform="matrix(1,0,0,1,-1,20.625)" opacity="1" style="display: block;">
      <g opacity="1" transform="matrix(1,0,0,1,64.23799896240234,231.6479949951172)">
        <path fill="rgb(87,234,151)" fill-opacity="1" d=" M27,-67.5 C27,-67.5 -27,-67.5 -27,-67.5 C-28.656999588012695,-67.5 -30,-66.15699768066406 -30,-64.5 C-30,-64.5 -30,67.5 -30,67.5 C-30,67.5 30,67.5 30,67.5 C30,67.5 30,-64.5 30,-64.5 C30,-66.15699768066406 28.656999588012695,-67.5 27,-67.5z"></path>
      </g>
      <g opacity="1" transform="matrix(1,0,0,1,124.23799896240234,226.6479949951172)">
        <path fill="rgb(255,141,141)" fill-opacity="1" d=" M27,-72.5 C27,-72.5 -27,-72.5 -27,-72.5 C-28.656999588012695,-72.5 -30,-71.15699768066406 -30,-69.5 C-30,-69.5 -30,72.5 -30,72.5 C-30,72.5 30,72.5 30,72.5 C30,72.5 30,-69.5 30,-69.5 C30,-71.15699768066406 28.656999588012695,-72.5 27,-72.5z"></path>
      </g>
      <g opacity="1" transform="matrix(1,0,0,1,202.23800659179688,239.6479949951172)">
        <path fill="rgb(87,234,151)" fill-opacity="1" d=" M27,-59.5 C27,-59.5 -27,-59.5 -27,-59.5 C-28.656999588012695,-59.5 -30,-58.15700149536133 -30,-56.5 C-30,-56.5 -30,59.5 -30,59.5 C-30,59.5 30,59.5 30,59.5 C30,59.5 30,-56.5 30,-56.5 C30,-58.15700149536133 28.656999588012695,-59.5 27,-59.5z"></path>
      </g>
      <g opacity="1" transform="matrix(1,0,0,1,262.2380065917969,253.6479949951172)">
        <path fill="rgb(255,141,141)" fill-opacity="1" d=" M27,-62.5 C27,-62.5 -27,-62.5 -27,-62.5 C-28.656999588012695,-62.5 -30,-61.15700149536133 -30,-59.5 C-30,-59.5 -30,45.5 -30,45.5 C-30,45.5 30,45.5 30,45.5 C30,45.5 30,-59.5 30,-59.5 C30,-61.15700149536133 28.656999588012695,-62.5 27,-62.5z"></path>
      </g>
      <g opacity="1" transform="matrix(1,0,0,1,340.2380065917969,207.1479949951172)">
        <path fill="rgb(87,234,151)" fill-opacity="1" d=" M27,-75.5 C27,-75.5 -27,-75.5 -27,-75.5 C-28.656999588012695,-75.5 -30,-74.15699768066406 -30,-72.5 C-30,-72.5 -30,92 -30,92 C-30,92 30,92 30,92 C30,92 30,-72.5 30,-72.5 C30,-74.15699768066406 28.6560001373291,-75.5 27,-75.5z"></path>
      </g>
      <g opacity="1" transform="matrix(1,0,0,1,400.2380065917969,264.14801025390625)">
        <path fill="rgb(255,141,141)" fill-opacity="1" d=" M27,-98.75 C27,-98.75 -27,-98.75 -27,-98.75 C-28.656999588012695,-98.75 -30,-97.40699768066406 -30,-95.75 C-30,-95.75 -30,35 -30,35 C-30,35 30,35 30,35 C30,35 30,-95.75 30,-95.75 C30,-97.40699768066406 28.6560001373291,-98.75 27,-98.75z"></path>
      </g>
      <g opacity="1" transform="matrix(1,0,0,1,478.2380065917969,184.1479949951172)">
        <path fill="rgb(87,234,151)" fill-opacity="1" d=" M27,-37.25 C27,-37.25 -27,-37.25 -27,-37.25 C-28.656999588012695,-37.25 -30,-35.90700149536133 -30,-34.25 C-30,-34.25 -30,115 -30,115 C-30,115 30,115 30,115 C30,115 30,-34.25 30,-34.25 C30,-35.90700149536133 28.6560001373291,-37.25 27,-37.25z"></path>
      </g>
      <g opacity="1" transform="matrix(1,0,0,1,538.239013671875,279.14801025390625)">
        <path fill="rgb(255,141,141)" fill-opacity="1" d=" M26.39900016784668,-140.5 C26.39900016784668,-140.5 -26.400999069213867,-140.5 -26.400999069213867,-140.5 C-28.388999938964844,-140.5 -30,-139.15699768066406 -30,-137.5 C-30,-137.5 -30,20 -30,20 C-30,20 30,20 30,20 C30,20 30,-137.5 30,-137.5 C30,-139.15699768066406 28.386999130249023,-140.5 26.39900016784668,-140.5z"></path>
      </g>
    </g>
    <g transform="matrix(1,0,0,1,0,15)" opacity="1" style="display: block;">
      <g opacity="1" transform="matrix(1,0,0,1,300,98)">
        <path stroke-linecap="round" stroke-linejoin="miter" fill-opacity="0" stroke-miterlimit="10" stroke="rgb(58,159,241)" stroke-opacity="1" stroke-width="3" d=" M-278.375,54 C-278.375,54 -207.75,29.5 -207.75,29.5 C-207.75,29.5 -69.25,55.5 -69.25,55.5 C-69.25,55.5 69.25,-9.5 69.25,-9.5 C69.25,-9.5 207.25,-55.5 207.25,-55.5 C207.25,-55.5 278.75,-23.375 278.75,-23.375"></path>
      </g>
    </g>
    <g transform="matrix(1,0,0,1,0,20)" opacity="1" style="display: block;">
      <g opacity="1" transform="matrix(1,0,0,1,92.5,122.25)">
        <path fill="rgb(59,160,242)" fill-opacity="1" d=" M6.5,0 C6.5,3.5899999141693115 3.5899999141693115,6.5 0,6.5 C-3.5899999141693115,6.5 -6.5,3.5899999141693115 -6.5,0 C-6.5,-3.5899999141693115 -3.5899999141693115,-6.5 0,-6.5 C3.5899999141693115,-6.5 6.5,-3.5899999141693115 6.5,0z"></path>
      </g>
      <g opacity="1" transform="matrix(1,0,0,1,231,148)">
        <path fill="rgb(59,160,242)" fill-opacity="1" d=" M6.5,0 C6.5,3.5899999141693115 3.5899999141693115,6.5 0,6.5 C-3.5899999141693115,6.5 -6.5,3.5899999141693115 -6.5,0 C-6.5,-3.5899999141693115 -3.5899999141693115,-6.5 0,-6.5 C3.5899999141693115,-6.5 6.5,-3.5899999141693115 6.5,0z"></path>
      </g>
      <g opacity="1" transform="matrix(1,0,0,1,369.25,83.25)">
        <path fill="rgb(59,160,242)" fill-opacity="1" d=" M6.5,0 C6.5,3.5899999141693115 3.5899999141693115,6.5 0,6.5 C-3.5899999141693115,6.5 -6.5,3.5899999141693115 -6.5,0 C-6.5,-3.5899999141693115 -3.5899999141693115,-6.5 0,-6.5 C3.5899999141693115,-6.5 6.5,-3.5899999141693115 6.5,0z"></path>
      </g>
      <g opacity="1" transform="matrix(1,0,0,1,507.5,37.25)">
        <path fill="rgb(59,160,242)" fill-opacity="1" d=" M6.5,0 C6.5,3.5899999141693115 3.5899999141693115,6.5 0,6.5 C-3.5899999141693115,6.5 -6.5,3.5899999141693115 -6.5,0 C-6.5,-3.5899999141693115 -3.5899999141693115,-6.5 0,-6.5 C3.5899999141693115,-6.5 6.5,-3.5899999141693115 6.5,0z"></path>
      </g>
    </g>
    <g transform="matrix(1,0,0,1,0,20)" opacity="1" style="display: block;">
      <g opacity="1" transform="matrix(1,0,0,1,300,133)">
        <path stroke-linecap="round" stroke-linejoin="miter" fill-opacity="0" stroke-miterlimit="10" stroke="rgb(27,78,148)" stroke-opacity="1" stroke-width="3" d=" M-278.5,-22.5 C-278.5,-22.5 -208,-34.5 -208,-34.5 C-208,-34.5 -69,-22 -69,-22 C-69,-22 69.25,16.5 69.25,16.5 C69.25,16.5 207,-7.5 207,-7.5 C207,-7.5 278.5,3.25 278.5,3.25"></path>
      </g>
    </g>
    <g transform="matrix(1,0,0,1,0,20)" opacity="1" style="display: block;">
      <g opacity="1" transform="matrix(1,0,0,1,92.25,98.5)">
        <path fill="rgb(27,78,148)" fill-opacity="1" d=" M6.5,0 C6.5,3.5899999141693115 3.5899999141693115,6.5 0,6.5 C-3.5899999141693115,6.5 -6.5,3.5899999141693115 -6.5,0 C-6.5,-3.5899999141693115 -3.5899999141693115,-6.5 0,-6.5 C3.5899999141693115,-6.5 6.5,-3.5899999141693115 6.5,0z"></path>
      </g>
      <g opacity="1" transform="matrix(1,0,0,1,230.75,111)">
        <path fill="rgb(27,78,148)" fill-opacity="1" d=" M6.5,0 C6.5,3.5899999141693115 3.5899999141693115,6.5 0,6.5 C-3.5899999141693115,6.5 -6.5,3.5899999141693115 -6.5,0 C-6.5,-3.5899999141693115 -3.5899999141693115,-6.5 0,-6.5 C3.5899999141693115,-6.5 6.5,-3.5899999141693115 6.5,0z"></path>
      </g>
      <g opacity="1" transform="matrix(1,0,0,1,369.25,149.5)">
        <path fill="rgb(27,78,148)" fill-opacity="1" d=" M6.5,0 C6.5,3.5899999141693115 3.5899999141693115,6.5 0,6.5 C-3.5899999141693115,6.5 -6.5,3.5899999141693115 -6.5,0 C-6.5,-3.5899999141693115 -3.5899999141693115,-6.5 0,-6.5 C3.5899999141693115,-6.5 6.5,-3.5899999141693115 6.5,0z"></path>
      </g>
      <g opacity="1" transform="matrix(1,0,0,1,507.5,125)">
        <path fill="rgb(27,78,148)" fill-opacity="1" d=" M6.5,0 C6.5,3.5899999141693115 3.5899999141693115,6.5 0,6.5 C-3.5899999141693115,6.5 -6.5,3.5899999141693115 -6.5,0 C-6.5,-3.5899999141693115 -3.5899999141693115,-6.5 0,-6.5 C3.5899999141693115,-6.5 6.5,-3.5899999141693115 6.5,0z"></path>
      </g>
    </g>
    <g style="display: block;" transform="matrix(1,0,0,1,0,27)" opacity="0.9999908294463754">
      <g opacity="1" transform="matrix(1,0,0,1,175,330)">
        <path fill="rgb(27,78,148)" fill-opacity="1" d=" M4,6 C4,6 -4,6 -4,6 C-5.104000091552734,6 -6,5.104000091552734 -6,4 C-6,4 -6,-4 -6,-4 C-6,-5.104000091552734 -5.104000091552734,-6 -4,-6 C-4,-6 4,-6 4,-6 C5.104000091552734,-6 6,-5.104000091552734 6,-4 C6,-4 6,4 6,4 C6,5.104000091552734 5.104000091552734,6 4,6z"></path>
      </g>
      <g opacity="1" transform="matrix(1,0,0,1,189.93699645996094,331.2019958496094)">
        <path fill="rgb(27,78,148)" fill-opacity="1" d=" M3.6080000400543213,3.431999921798706 C3.6080000400543213,3.431999921798706 4.140999794006348,5.057000160217285 4.140999794006348,5.057000160217285 C3.6989998817443848,5.447000026702881 2.9189999103546143,5.681000232696533 1.930999994277954,5.681000232696533 C0.09799999743700027,5.681000232696533 -0.8510000109672546,4.692999839782715 -0.746999979019165,3.1070001125335693 C-2.9049999713897705,2.821000099182129 -4.204999923706055,1.2350000143051147 -4.204999923706055,-1.2610000371932983 C-4.204999923706055,-4.031000137329102 -2.6059999465942383,-5.681000232696533 0.007000000216066837,-5.681000232696533 C2.619999885559082,-5.681000232696533 4.205999851226807,-4.031000137329102 4.205999851226807,-1.2610000371932983 C4.205999851226807,1.2610000371932983 2.8929998874664307,2.8469998836517334 0.6959999799728394,3.119999885559082 C0.7739999890327454,3.7699999809265137 1.2680000066757202,3.938999891281128 2.009000062942505,3.938999891281128 C2.7239999771118164,3.938999891281128 3.256999969482422,3.757999897003174 3.6080000400543213,3.431999921798706z M0.007000000216066837,1.4040000438690186 C1.2419999837875366,1.4040000438690186 1.9179999828338623,0.49399998784065247 1.9179999828338623,-1.2610000371932983 C1.9179999828338623,-3.0160000324249268 1.2419999837875366,-3.9260001182556152 0.007000000216066837,-3.9260001182556152 C-1.2410000562667847,-3.9260001182556152 -1.9170000553131104,-3.0160000324249268 -1.9170000553131104,-1.2610000371932983 C-1.9170000553131104,0.49399998784065247 -1.2410000562667847,1.4040000438690186 0.007000000216066837,1.4040000438690186z"></path>
      </g>
      <g opacity="1" transform="matrix(1,0,0,1,198.73800659179688,331.0459899902344)">
        <path fill="rgb(27,78,148)" fill-opacity="1" d=" M3.256999969482422,-3.315000057220459 C3.256999969482422,-3.315000057220459 3.256999969482422,3.184999942779541 3.256999969482422,3.184999942779541 C3.256999969482422,3.184999942779541 1.2799999713897705,3.184999942779541 1.2799999713897705,3.184999942779541 C1.2799999713897705,3.184999942779541 1.215000033378601,1.9759999513626099 1.215000033378601,1.9759999513626099 C0.8119999766349792,2.885999917984009 0.01899999938905239,3.315000057220459 -1.034000039100647,3.315000057220459 C-2.359999895095825,3.315000057220459 -3.256999969482422,2.6649999618530273 -3.256999969482422,1.0269999504089355 C-3.256999969482422,1.0269999504089355 -3.256999969482422,-3.315000057220459 -3.256999969482422,-3.315000057220459 C-3.256999969482422,-3.315000057220459 -1.0470000505447388,-3.315000057220459 -1.0470000505447388,-3.315000057220459 C-1.0470000505447388,-3.315000057220459 -1.0470000505447388,0.46799999475479126 -1.0470000505447388,0.46799999475479126 C-1.0470000505447388,1.3519999980926514 -0.722000002861023,1.6239999532699585 -0.15000000596046448,1.6239999532699585 C0.5389999747276306,1.6239999532699585 1.0460000038146973,1.1699999570846558 1.0460000038146973,0.12999999523162842 C1.0460000038146973,0.12999999523162842 1.0460000038146973,-3.315000057220459 1.0460000038146973,-3.315000057220459 C1.0460000038146973,-3.315000057220459 3.256999969482422,-3.315000057220459 3.256999969482422,-3.315000057220459z"></path>
      </g>
      <g opacity="1" transform="matrix(1,0,0,1,204.68600463867188,329.54400634765625)">
        <path fill="rgb(27,78,148)" fill-opacity="1" d=" M-1.2879999876022339,-3.621000051498413 C-1.2879999876022339,-4.361999988555908 -0.8960000276565552,-4.686999797821045 0.0010000000474974513,-4.686999797821045 C0.8980000019073486,-4.686999797821045 1.2879999876022339,-4.361999988555908 1.2879999876022339,-3.621000051498413 C1.2879999876022339,-2.8929998874664307 0.8980000019073486,-2.566999912261963 0.0010000000474974513,-2.566999912261963 C-0.8960000276565552,-2.566999912261963 -1.2879999876022339,-2.8929998874664307 -1.2879999876022339,-3.621000051498413z M1.1050000190734863,4.685999870300293 C1.1050000190734863,4.685999870300293 -1.1050000190734863,4.685999870300293 -1.1050000190734863,4.685999870300293 C-1.1050000190734863,4.685999870300293 -1.1050000190734863,-1.8140000104904175 -1.1050000190734863,-1.8140000104904175 C-1.1050000190734863,-1.8140000104904175 1.1050000190734863,-1.8140000104904175 1.1050000190734863,-1.8140000104904175 C1.1050000190734863,-1.8140000104904175 1.1050000190734863,4.685999870300293 1.1050000190734863,4.685999870300293z"></path>
      </g>
      <g opacity="1" transform="matrix(1,0,0,1,210.33399963378906,330.9800109863281)">
        <path fill="rgb(27,78,148)" fill-opacity="1" d=" M3.2699999809265137,-1.3650000095367432 C3.2699999809265137,-1.3650000095367432 1.215999960899353,-0.6890000104904175 1.215999960899353,-0.6890000104904175 C1.125,-1.4429999589920044 0.800000011920929,-1.8070000410079956 0.2150000035762787,-1.8070000410079956 C-0.6169999837875366,-1.8070000410079956 -1.0720000267028809,-1.2480000257492065 -1.0720000267028809,0.026000000536441803 C-1.0720000267028809,1.312999963760376 -0.5649999976158142,1.8070000410079956 0.2150000035762787,1.8070000410079956 C0.8389999866485596,1.8070000410079956 1.190000057220459,1.4299999475479126 1.2940000295639038,0.7540000081062317 C1.2940000295639038,0.7540000081062317 3.2829999923706055,1.3910000324249268 3.2829999923706055,1.3910000324249268 C3.1010000705718994,2.5220000743865967 2.0480000972747803,3.380000114440918 0.2280000001192093,3.380000114440918 C-2.046999931335449,3.380000114440918 -3.2820000648498535,2.131999969482422 -3.2820000648498535,0 C-3.2820000648498535,-2.131999969482422 -2.0209999084472656,-3.380000114440918 0.13699999451637268,-3.380000114440918 C2.243000030517578,-3.380000114440918 3.062000036239624,-2.4179999828338623 3.2699999809265137,-1.3650000095367432z"></path>
      </g>
      <g opacity="1" transform="matrix(1,0,0,1,218.42599487304688,329.60198974609375)">
        <path fill="rgb(27,78,148)" fill-opacity="1" d=" M-0.38999998569488525,1.9630000591278076 C-0.38999998569488525,1.9630000591278076 -1.4299999475479126,3.132999897003174 -1.4299999475479126,3.132999897003174 C-1.4299999475479126,3.132999897003174 -1.4299999475479126,4.627999782562256 -1.4299999475479126,4.627999782562256 C-1.4299999475479126,4.627999782562256 -3.640000104904175,4.627999782562256 -3.640000104904175,4.627999782562256 C-3.640000104904175,4.627999782562256 -3.640000104904175,-4.627999782562256 -3.640000104904175,-4.627999782562256 C-3.640000104904175,-4.627999782562256 -1.4299999475479126,-4.627999782562256 -1.4299999475479126,-4.627999782562256 C-1.4299999475479126,-4.627999782562256 -1.4299999475479126,0.8579999804496765 -1.4299999475479126,0.8579999804496765 C-1.4299999475479126,0.8579999804496765 1.0529999732971191,-1.871999979019165 1.0529999732971191,-1.871999979019165 C1.0529999732971191,-1.871999979019165 3.496999979019165,-1.871999979019165 3.496999979019165,-1.871999979019165 C3.496999979019165,-1.871999979019165 1.1050000190734863,0.6759999990463257 1.1050000190734863,0.6759999990463257 C1.1050000190734863,0.6759999990463257 3.640000104904175,4.627999782562256 3.640000104904175,4.627999782562256 C3.640000104904175,4.627999782562256 1.1959999799728394,4.627999782562256 1.1959999799728394,4.627999782562256 C1.1959999799728394,4.627999782562256 -0.38999998569488525,1.9630000591278076 -0.38999998569488525,1.9630000591278076z"></path>
      </g>
      <g opacity="1" transform="matrix(1,0,0,1,226.77200317382812,329.94000244140625)">
        <path fill="rgb(27,78,148)" fill-opacity="1" d=" M-3.74399995803833,-4.289999961853027 C-3.74399995803833,-4.289999961853027 0.42899999022483826,-4.289999961853027 0.42899999022483826,-4.289999961853027 C2.5480000972747803,-4.2769999504089355 3.5230000019073486,-3.4709999561309814 3.5230000019073486,-1.9759999513626099 C3.5230000019073486,-1.0010000467300415 2.9509999752044678,-0.23399999737739563 1.781000018119812,-0.052000001072883606 C1.781000018119812,-0.052000001072883606 1.781000018119812,-0.039000000804662704 1.781000018119812,-0.039000000804662704 C3.0940001010894775,0.14300000667572021 3.74399995803833,0.9359999895095825 3.74399995803833,1.9759999513626099 C3.74399995803833,3.4579999446868896 2.690999984741211,4.289999961853027 0.6240000128746033,4.289999961853027 C0.6240000128746033,4.289999961853027 -3.74399995803833,4.289999961853027 -3.74399995803833,4.289999961853027 C-3.74399995803833,4.289999961853027 -3.74399995803833,-4.289999961853027 -3.74399995803833,-4.289999961853027z M0.026000000536441803,-0.7799999713897705 C0.8320000171661377,-0.7799999713897705 1.2350000143051147,-1.0920000076293945 1.2350000143051147,-1.715999960899353 C1.2350000143051147,-2.3399999141693115 0.8320000171661377,-2.6519999504089355 0.026000000536441803,-2.6519999504089355 C0.026000000536441803,-2.6519999504089355 -1.5859999656677246,-2.6519999504089355 -1.5859999656677246,-2.6519999504089355 C-1.5859999656677246,-2.6519999504089355 -1.5859999656677246,-0.7799999713897705 -1.5859999656677246,-0.7799999713897705 C-1.5859999656677246,-0.7799999713897705 0.026000000536441803,-0.7799999713897705 0.026000000536441803,-0.7799999713897705z M0.24699999392032623,2.7170000076293945 C1.0529999732971191,2.7170000076293945 1.4559999704360962,2.378999948501587 1.4559999704360962,1.7549999952316284 C1.4559999704360962,1.156999945640564 1.0529999732971191,0.8199999928474426 0.24699999392032623,0.8199999928474426 C0.24699999392032623,0.8199999928474426 -1.5859999656677246,0.8199999928474426 -1.5859999656677246,0.8199999928474426 C-1.5859999656677246,0.8199999928474426 -1.5859999656677246,2.7170000076293945 -1.5859999656677246,2.7170000076293945 C-1.5859999656677246,2.7170000076293945 0.24699999392032623,2.7170000076293945 0.24699999392032623,2.7170000076293945z"></path>
      </g>
      <g opacity="1" transform="matrix(1,0,0,1,234.88400268554688,330.9800109863281)">
        <path fill="rgb(27,78,148)" fill-opacity="1" d=" M3.431999921798706,0 C3.431999921798706,2.131999969482422 2.171999931335449,3.380000114440918 0,3.380000114440918 C-2.1710000038146973,3.380000114440918 -3.431999921798706,2.131999969482422 -3.431999921798706,0 C-3.431999921798706,-2.131999969482422 -2.1710000038146973,-3.380000114440918 0,-3.380000114440918 C2.171999931335449,-3.380000114440918 3.431999921798706,-2.131999969482422 3.431999921798706,0z M-1.222000002861023,0 C-1.222000002861023,1.2730000019073486 -0.8190000057220459,1.8070000410079956 0,1.8070000410079956 C0.8190000057220459,1.8070000410079956 1.222000002861023,1.2730000019073486 1.222000002861023,0 C1.222000002861023,-1.2740000486373901 0.8190000057220459,-1.8079999685287476 0,-1.8079999685287476 C-0.8190000057220459,-1.8079999685287476 -1.222000002861023,-1.2740000486373901 -1.222000002861023,0z"></path>
      </g>
      <g opacity="1" transform="matrix(1,0,0,1,242.7100067138672,330.9800109863281)">
        <path fill="rgb(27,78,148)" fill-opacity="1" d=" M3.431999921798706,0 C3.431999921798706,2.131999969482422 2.1710000038146973,3.380000114440918 0,3.380000114440918 C-2.1710000038146973,3.380000114440918 -3.431999921798706,2.131999969482422 -3.431999921798706,0 C-3.431999921798706,-2.131999969482422 -2.1710000038146973,-3.380000114440918 0,-3.380000114440918 C2.1710000038146973,-3.380000114440918 3.431999921798706,-2.131999969482422 3.431999921798706,0z M-1.222000002861023,0 C-1.222000002861023,1.2730000019073486 -0.8190000057220459,1.8070000410079956 0,1.8070000410079956 C0.8199999928474426,1.8070000410079956 1.222000002861023,1.2730000019073486 1.222000002861023,0 C1.222000002861023,-1.2740000486373901 0.8199999928474426,-1.8079999685287476 0,-1.8079999685287476 C-0.8190000057220459,-1.8079999685287476 -1.222000002861023,-1.2740000486373901 -1.222000002861023,0z"></path>
      </g>
      <g opacity="1" transform="matrix(1,0,0,1,251.05499267578125,329.60198974609375)">
        <path fill="rgb(27,78,148)" fill-opacity="1" d=" M-0.38999998569488525,1.9630000591278076 C-0.38999998569488525,1.9630000591278076 -1.4299999475479126,3.132999897003174 -1.4299999475479126,3.132999897003174 C-1.4299999475479126,3.132999897003174 -1.4299999475479126,4.627999782562256 -1.4299999475479126,4.627999782562256 C-1.4299999475479126,4.627999782562256 -3.640000104904175,4.627999782562256 -3.640000104904175,4.627999782562256 C-3.640000104904175,4.627999782562256 -3.640000104904175,-4.627999782562256 -3.640000104904175,-4.627999782562256 C-3.640000104904175,-4.627999782562256 -1.4299999475479126,-4.627999782562256 -1.4299999475479126,-4.627999782562256 C-1.4299999475479126,-4.627999782562256 -1.4299999475479126,0.8579999804496765 -1.4299999475479126,0.8579999804496765 C-1.4299999475479126,0.8579999804496765 1.0529999732971191,-1.871999979019165 1.0529999732971191,-1.871999979019165 C1.0529999732971191,-1.871999979019165 3.496999979019165,-1.871999979019165 3.496999979019165,-1.871999979019165 C3.496999979019165,-1.871999979019165 1.1050000190734863,0.6759999990463257 1.1050000190734863,0.6759999990463257 C1.1050000190734863,0.6759999990463257 3.640000104904175,4.627999782562256 3.640000104904175,4.627999782562256 C3.640000104904175,4.627999782562256 1.1959999799728394,4.627999782562256 1.1959999799728394,4.627999782562256 C1.1959999799728394,4.627999782562256 -0.38999998569488525,1.9630000591278076 -0.38999998569488525,1.9630000591278076z"></path>
      </g>
      <g opacity="1" transform="matrix(1,0,0,1,258.1080017089844,330.9809875488281)">
        <path fill="rgb(27,78,148)" fill-opacity="1" d=" M-3.1389999389648438,2.2360000610351562 C-3.1389999389648438,2.2360000610351562 -1.9950000047683716,0.9879999756813049 -1.9950000047683716,0.9879999756813049 C-1.6050000190734863,1.6369999647140503 -0.9039999842643738,1.9110000133514404 -0.07199999690055847,1.9110000133514404 C0.5389999747276306,1.9110000133514404 0.9039999842643738,1.7280000448226929 0.9039999842643738,1.4559999704360962 C0.9039999842643738,1.2089999914169312 0.5910000205039978,1.0520000457763672 -0.2800000011920929,0.8709999918937683 C-2.25600004196167,0.47999998927116394 -2.9700000286102295,-0.15700000524520874 -2.9700000286102295,-1.2230000495910645 C-2.9700000286102295,-2.2880001068115234 -1.9559999704360962,-3.380000114440918 0.16300000250339508,-3.380000114440918 C1.7230000495910645,-3.380000114440918 2.5799999237060547,-2.924999952316284 3.1389999389648438,-2.1589999198913574 C3.1389999389648438,-2.1589999198913574 1.996000051498413,-1.0399999618530273 1.996000051498413,-1.0399999618530273 C1.5800000429153442,-1.6519999504089355 1.0080000162124634,-1.9110000133514404 0.2280000001192093,-1.9110000133514404 C-0.421999990940094,-1.9110000133514404 -0.7599999904632568,-1.6770000457763672 -0.7599999904632568,-1.4170000553131104 C-0.7599999904632568,-1.1579999923706055 -0.4740000069141388,-0.9890000224113464 0.4359999895095825,-0.8199999928474426 C2.359999895095825,-0.4819999933242798 3.125999927520752,0.12999999523162842 3.125999927520752,1.2480000257492065 C3.125999927520752,2.444000005722046 2.125999927520752,3.380000114440918 0.032999999821186066,3.380000114440918 C-1.3969999551773071,3.380000114440918 -2.4760000705718994,3.0420000553131104 -3.1389999389648438,2.2360000610351562z"></path>
      </g>
      <g opacity="1" transform="matrix(1,0,0,1,269.4179992675781,329.94000244140625)">
        <path fill="rgb(27,78,148)" fill-opacity="1" d=" M1.4620000123977661,2.3529999256134033 C1.4620000123977661,2.3529999256134033 -1.5010000467300415,2.3529999256134033 -1.5010000467300415,2.3529999256134033 C-1.5010000467300415,2.3529999256134033 -2.0999999046325684,4.289999961853027 -2.0999999046325684,4.289999961853027 C-2.0999999046325684,4.289999961853027 -4.348999977111816,4.289999961853027 -4.348999977111816,4.289999961853027 C-4.348999977111816,4.289999961853027 -1.3329999446868896,-4.289999961853027 -1.3329999446868896,-4.289999961853027 C-1.3329999446868896,-4.289999961853027 1.3450000286102295,-4.289999961853027 1.3450000286102295,-4.289999961853027 C1.3450000286102295,-4.289999961853027 4.3480000495910645,4.289999961853027 4.3480000495910645,4.289999961853027 C4.3480000495910645,4.289999961853027 2.046999931335449,4.289999961853027 2.046999931335449,4.289999961853027 C2.046999931335449,4.289999961853027 1.4620000123977661,2.3529999256134033 1.4620000123977661,2.3529999256134033z M0.9950000047683716,0.8320000171661377 C0.9950000047683716,0.8320000171661377 0.3700000047683716,-1.222000002861023 0.3700000047683716,-1.222000002861023 C0.3700000047683716,-1.222000002861023 -0.007000000216066837,-2.5739998817443848 -0.007000000216066837,-2.5739998817443848 C-0.007000000216066837,-2.5739998817443848 -0.032999999821186066,-2.5739998817443848 -0.032999999821186066,-2.5739998817443848 C-0.032999999821186066,-2.5739998817443848 -0.3840000033378601,-1.2350000143051147 -0.3840000033378601,-1.2350000143051147 C-0.3840000033378601,-1.2350000143051147 -1.0210000276565552,0.8320000171661377 -1.0210000276565552,0.8320000171661377 C-1.0210000276565552,0.8320000171661377 0.9950000047683716,0.8320000171661377 0.9950000047683716,0.8320000171661377z"></path>
      </g>
      <g opacity="1" transform="matrix(1,0,0,1,277.3999938964844,330.9800109863281)">
        <path fill="rgb(27,78,148)" fill-opacity="1" d=" M3.2699999809265137,-1.3650000095367432 C3.2699999809265137,-1.3650000095367432 1.215000033378601,-0.6890000104904175 1.215000033378601,-0.6890000104904175 C1.1239999532699585,-1.4429999589920044 0.7990000247955322,-1.8070000410079956 0.21400000154972076,-1.8070000410079956 C-0.6179999709129333,-1.8070000410079956 -1.0729999542236328,-1.2480000257492065 -1.0729999542236328,0.026000000536441803 C-1.0729999542236328,1.312999963760376 -0.5659999847412109,1.8070000410079956 0.21400000154972076,1.8070000410079956 C0.8379999995231628,1.8070000410079956 1.1890000104904175,1.4299999475479126 1.2929999828338623,0.7540000081062317 C1.2929999828338623,0.7540000081062317 3.2820000648498535,1.3910000324249268 3.2820000648498535,1.3910000324249268 C3.0999999046325684,2.5220000743865967 2.046999931335449,3.380000114440918 0.22699999809265137,3.380000114440918 C-2.0480000972747803,3.380000114440918 -3.2829999923706055,2.131999969482422 -3.2829999923706055,0 C-3.2829999923706055,-2.131999969482422 -2.0220000743865967,-3.380000114440918 0.13600000739097595,-3.380000114440918 C2.242000102996826,-3.380000114440918 3.062000036239624,-2.4179999828338623 3.2699999809265137,-1.3650000095367432z"></path>
      </g>
      <g opacity="1" transform="matrix(1,0,0,1,283.8999938964844,330.0119934082031)">
        <path fill="rgb(27,78,148)" fill-opacity="1" d=" M2.671999931335449,3.8540000915527344 C2.243000030517578,4.1529998779296875 1.5149999856948853,4.3480000495910645 0.8389999866485596,4.3480000495910645 C-0.6299999952316284,4.3480000495910645 -1.5399999618530273,3.7760000228881836 -1.5529999732971191,2.2679998874664307 C-1.5529999732971191,2.2679998874664307 -1.5529999732971191,-0.7080000042915344 -1.5529999732971191,-0.7080000042915344 C-1.5529999732971191,-0.7080000042915344 -2.671999931335449,-0.7080000042915344 -2.671999931335449,-0.7080000042915344 C-2.671999931335449,-0.7080000042915344 -2.671999931335449,-2.2809998989105225 -2.671999931335449,-2.2809998989105225 C-2.671999931335449,-2.2809998989105225 -1.5529999732971191,-2.2809998989105225 -1.5529999732971191,-2.2809998989105225 C-1.5529999732971191,-2.2809998989105225 -1.5529999732971191,-3.73799991607666 -1.5529999732971191,-3.73799991607666 C-1.5529999732971191,-3.73799991607666 0.656000018119812,-4.348999977111816 0.656000018119812,-4.348999977111816 C0.656000018119812,-4.348999977111816 0.656000018119812,-2.2809998989105225 0.656000018119812,-2.2809998989105225 C0.656000018119812,-2.2809998989105225 2.6070001125335693,-2.2809998989105225 2.6070001125335693,-2.2809998989105225 C2.6070001125335693,-2.2809998989105225 2.6070001125335693,-0.7080000042915344 2.6070001125335693,-0.7080000042915344 C2.6070001125335693,-0.7080000042915344 0.656000018119812,-0.7080000042915344 0.656000018119812,-0.7080000042915344 C0.656000018119812,-0.7080000042915344 0.656000018119812,1.9040000438690186 0.656000018119812,1.9040000438690186 C0.656000018119812,2.5280001163482666 0.9679999947547913,2.7750000953674316 1.5140000581741333,2.7750000953674316 C1.9170000553131104,2.7750000953674316 2.190999984741211,2.671999931335449 2.4509999752044678,2.490000009536743 C2.4509999752044678,2.490000009536743 2.671999931335449,3.8540000915527344 2.671999931335449,3.8540000915527344z"></path>
      </g>
      <g opacity="1" transform="matrix(1,0,0,1,290.7250061035156,331.0459899902344)">
        <path fill="rgb(27,78,148)" fill-opacity="1" d=" M3.256999969482422,-3.315000057220459 C3.256999969482422,-3.315000057220459 3.256999969482422,3.184999942779541 3.256999969482422,3.184999942779541 C3.256999969482422,3.184999942779541 1.2799999713897705,3.184999942779541 1.2799999713897705,3.184999942779541 C1.2799999713897705,3.184999942779541 1.215000033378601,1.9759999513626099 1.215000033378601,1.9759999513626099 C0.8119999766349792,2.885999917984009 0.01899999938905239,3.315000057220459 -1.034000039100647,3.315000057220459 C-2.359999895095825,3.315000057220459 -3.256999969482422,2.6649999618530273 -3.256999969482422,1.0269999504089355 C-3.256999969482422,1.0269999504089355 -3.256999969482422,-3.315000057220459 -3.256999969482422,-3.315000057220459 C-3.256999969482422,-3.315000057220459 -1.0470000505447388,-3.315000057220459 -1.0470000505447388,-3.315000057220459 C-1.0470000505447388,-3.315000057220459 -1.0470000505447388,0.46799999475479126 -1.0470000505447388,0.46799999475479126 C-1.0470000505447388,1.3519999980926514 -0.722000002861023,1.6239999532699585 -0.15000000596046448,1.6239999532699585 C0.5389999747276306,1.6239999532699585 1.0460000038146973,1.1699999570846558 1.0460000038146973,0.12999999523162842 C1.0460000038146973,0.12999999523162842 1.0460000038146973,-3.315000057220459 1.0460000038146973,-3.315000057220459 C1.0460000038146973,-3.315000057220459 3.256999969482422,-3.315000057220459 3.256999969482422,-3.315000057220459z"></path>
      </g>
      <g opacity="1" transform="matrix(1,0,0,1,298.7200012207031,330.9809875488281)">
        <path fill="rgb(27,78,148)" fill-opacity="1" d=" M3.5299999713897705,1.9359999895095825 C3.5299999713897705,1.9359999895095825 3.3610000610351562,3.171999931335449 3.3610000610351562,3.171999931335449 C3.0999999046325684,3.315000057220459 2.8010001182556152,3.380000114440918 2.4760000705718994,3.380000114440918 C1.6050000190734863,3.380000114440918 0.9950000047683716,3.0810000896453857 0.7990000247955322,2.378999948501587 C0.4350000023841858,3.003000020980835 -0.3190000057220459,3.380000114440918 -1.5149999856948853,3.380000114440918 C-2.802000045776367,3.380000114440918 -3.5299999713897705,2.806999921798706 -3.5299999713897705,1.7549999952316284 C-3.5299999713897705,0.675000011920929 -2.8410000801086426,-0.013000000268220901 -0.9950000047683716,-0.37700000405311584 C-0.9950000047683716,-0.37700000405311584 0.4740000069141388,-0.6629999876022339 0.4740000069141388,-0.6629999876022339 C0.4740000069141388,-0.6629999876022339 0.4740000069141388,-0.8980000019073486 0.4740000069141388,-0.8980000019073486 C0.4740000069141388,-1.4830000400543213 0.13600000739097595,-1.8600000143051147 -0.4490000009536743,-1.8600000143051147 C-1.0729999542236328,-1.8600000143051147 -1.527999997138977,-1.6130000352859497 -1.6579999923706055,-0.859000027179718 C-1.6579999923706055,-0.859000027179718 -3.4519999027252197,-1.378000020980835 -3.4519999027252197,-1.378000020980835 C-3.2309999465942383,-2.614000082015991 -2.2160000801086426,-3.380000114440918 -0.4490000009536743,-3.380000114440918 C1.5529999732971191,-3.380000114440918 2.6589999198913574,-2.562000036239624 2.6589999198913574,-0.8840000033378601 C2.6589999198913574,-0.8840000033378601 2.6589999198913574,1.4819999933242798 2.6589999198913574,1.4819999933242798 C2.6589999198913574,1.8200000524520874 2.813999891281128,1.9889999628067017 3.125999927520752,1.9889999628067017 C3.2829999923706055,1.9889999628067017 3.4119999408721924,1.975000023841858 3.5299999713897705,1.9359999895095825z M0.4740000069141388,1.0269999504089355 C0.4740000069141388,1.0269999504089355 0.4740000069141388,0.46700000762939453 0.4740000069141388,0.46700000762939453 C0.4740000069141388,0.46700000762939453 -0.5789999961853027,0.7149999737739563 -0.5789999961853027,0.7149999737739563 C-1.125,0.843999981880188 -1.3459999561309814,1.0269999504089355 -1.3459999561309814,1.3899999856948853 C-1.3459999561309814,1.7549999952316284 -1.1119999885559082,1.9500000476837158 -0.7089999914169312,1.9500000476837158 C-0.16300000250339508,1.9500000476837158 0.4740000069141388,1.625 0.4740000069141388,1.0269999504089355z"></path>
      </g>
      <g opacity="1" transform="matrix(1,0,0,1,304.8299865722656,329.6669921875)">
        <path fill="rgb(27,78,148)" fill-opacity="1" d=" M0.4749999940395355,2.313999891281128 C0.4749999940395355,2.885999917984009 0.6179999709129333,3.119999885559082 1.0729999542236328,3.119999885559082 C1.3320000171661377,3.119999885559082 1.5010000467300415,3.0810000896453857 1.7359999418258667,3.002000093460083 C1.7359999418258667,3.002000093460083 1.5920000076293945,4.368000030517578 1.5920000076293945,4.368000030517578 C1.281000018119812,4.563000202178955 0.722000002861023,4.692999839782715 0.2409999966621399,4.692999839782715 C-1.1510000228881836,4.692999839782715 -1.7359999418258667,4.081999778747559 -1.7359999418258667,2.6389999389648438 C-1.7359999418258667,2.6389999389648438 -1.7359999418258667,-4.692999839782715 -1.7359999418258667,-4.692999839782715 C-1.7359999418258667,-4.692999839782715 0.4749999940395355,-4.692999839782715 0.4749999940395355,-4.692999839782715 C0.4749999940395355,-4.692999839782715 0.4749999940395355,2.313999891281128 0.4749999940395355,2.313999891281128z"></path>
      </g>
      <g opacity="1" transform="matrix(1,0,0,1,310.02899169921875,330.9809875488281)">
        <path fill="rgb(27,78,148)" fill-opacity="1" d=" M-3.1389999389648438,2.2360000610351562 C-3.1389999389648438,2.2360000610351562 -1.9950000047683716,0.9879999756813049 -1.9950000047683716,0.9879999756813049 C-1.6059999465942383,1.6369999647140503 -0.9039999842643738,1.9110000133514404 -0.07199999690055847,1.9110000133514404 C0.5400000214576721,1.9110000133514404 0.9039999842643738,1.7280000448226929 0.9039999842643738,1.4559999704360962 C0.9039999842643738,1.2089999914169312 0.5910000205039978,1.0520000457763672 -0.2800000011920929,0.8709999918937683 C-2.255000114440918,0.47999998927116394 -2.9700000286102295,-0.15700000524520874 -2.9700000286102295,-1.2230000495910645 C-2.9700000286102295,-2.2880001068115234 -1.9559999704360962,-3.380000114440918 0.16300000250339508,-3.380000114440918 C1.722000002861023,-3.380000114440918 2.5810000896453857,-2.924999952316284 3.1389999389648438,-2.1589999198913574 C3.1389999389648438,-2.1589999198913574 1.996000051498413,-1.0399999618530273 1.996000051498413,-1.0399999618530273 C1.5800000429153442,-1.6519999504089355 1.0069999694824219,-1.9110000133514404 0.22699999809265137,-1.9110000133514404 C-0.421999990940094,-1.9110000133514404 -0.7599999904632568,-1.6770000457763672 -0.7599999904632568,-1.4170000553131104 C-0.7599999904632568,-1.1579999923706055 -0.4740000069141388,-0.9890000224113464 0.4350000023841858,-0.8199999928474426 C2.359999895095825,-0.4819999933242798 3.128000020980835,0.12999999523162842 3.128000020980835,1.2480000257492065 C3.128000020980835,2.444000005722046 2.125999927520752,3.380000114440918 0.032999999821186066,3.380000114440918 C-1.3980000019073486,3.380000114440918 -2.4760000705718994,3.0420000553131104 -3.1389999389648438,2.2360000610351562z"></path>
      </g>
    </g>
    <g style="display: block;" transform="matrix(1,0,0,1,0,27)" opacity="1">
      <g opacity="1" transform="matrix(1,0,0,1,66,330)">
        <path fill="rgb(58,159,241)" fill-opacity="1" d=" M4,6 C4,6 -4,6 -4,6 C-5.104000091552734,6 -6,5.104000091552734 -6,4 C-6,4 -6,-4 -6,-4 C-6,-5.104000091552734 -5.104000091552734,-6 -4,-6 C-4,-6 4,-6 4,-6 C5.104000091552734,-6 6,-5.104000091552734 6,-4 C6,-4 6,4 6,4 C6,5.104000091552734 5.104000091552734,6 4,6z"></path>
      </g>
      <g opacity="1" transform="matrix(1,0,0,1,80.57599639892578,330.197998046875)">
        <path fill="rgb(58,159,241)" fill-opacity="1" d=" M3.627000093460083,-1.444000005722046 C3.627000093460083,0.3109999895095825 2.444000005722046,1.312000036239624 0.31200000643730164,1.312000036239624 C0.31200000643730164,1.312000036239624 -1.3910000324249268,1.312000036239624 -1.3910000324249268,1.312000036239624 C-1.3910000324249268,1.312000036239624 -1.3910000324249268,4.289999961853027 -1.3910000324249268,4.289999961853027 C-1.3910000324249268,4.289999961853027 -3.627000093460083,4.289999961853027 -3.627000093460083,4.289999961853027 C-3.627000093460083,4.289999961853027 -3.627000093460083,-4.289999961853027 -3.627000093460083,-4.289999961853027 C-3.627000093460083,-4.289999961853027 0.31200000643730164,-4.289999961853027 0.31200000643730164,-4.289999961853027 C2.444000005722046,-4.289999961853027 3.627000093460083,-3.2890000343322754 3.627000093460083,-1.444000005722046z M1.378000020980835,-1.468999981880188 C1.378000020980835,-2.2239999771118164 0.9490000009536743,-2.6010000705718994 -0.039000000804662704,-2.6010000705718994 C-0.039000000804662704,-2.6010000705718994 -1.3910000324249268,-2.6010000705718994 -1.3910000324249268,-2.6010000705718994 C-1.3910000324249268,-2.6010000705718994 -1.3910000324249268,-0.32499998807907104 -1.3910000324249268,-0.32499998807907104 C-1.3910000324249268,-0.32499998807907104 -0.039000000804662704,-0.32499998807907104 -0.039000000804662704,-0.32499998807907104 C0.9490000009536743,-0.32499998807907104 1.378000020980835,-0.7020000219345093 1.378000020980835,-1.468999981880188z"></path>
      </g>
      <g opacity="1" transform="matrix(1,0,0,1,87.83699798583984,331.1730041503906)">
        <path fill="rgb(58,159,241)" fill-opacity="1" d=" M2.359999895095825,-3.171999931335449 C2.359999895095825,-3.171999931335449 2.125999927520752,-1.2999999523162842 2.125999927520752,-1.2999999523162842 C1.9570000171661377,-1.402999997138977 1.6449999809265137,-1.4950000047683716 1.3070000410079956,-1.4950000047683716 C0.5270000100135803,-1.4950000047683716 -0.15000000596046448,-0.9869999885559082 -0.15000000596046448,0.039000000804662704 C-0.15000000596046448,0.039000000804662704 -0.15000000596046448,3.315000057220459 -0.15000000596046448,3.315000057220459 C-0.15000000596046448,3.315000057220459 -2.3589999675750732,3.315000057220459 -2.3589999675750732,3.315000057220459 C-2.3589999675750732,3.315000057220459 -2.3589999675750732,-3.184999942779541 -2.3589999675750732,-3.184999942779541 C-2.3589999675750732,-3.184999942779541 -0.4099999964237213,-3.184999942779541 -0.4099999964237213,-3.184999942779541 C-0.4099999964237213,-3.184999942779541 -0.3179999887943268,-1.7940000295639038 -0.3179999887943268,-1.7940000295639038 C0.007000000216066837,-2.75600004196167 0.6439999938011169,-3.315000057220459 1.6579999923706055,-3.315000057220459 C1.9830000400543213,-3.315000057220459 2.2170000076293945,-3.25 2.359999895095825,-3.171999931335449z"></path>
      </g>
      <g opacity="1" transform="matrix(1,0,0,1,94.10900115966797,331.2380065917969)">
        <path fill="rgb(58,159,241)" fill-opacity="1" d=" M3.431999921798706,0 C3.431999921798706,2.131999969482422 2.171999931335449,3.380000114440918 0,3.380000114440918 C-2.1710000038146973,3.380000114440918 -3.431999921798706,2.131999969482422 -3.431999921798706,0 C-3.431999921798706,-2.131999969482422 -2.1710000038146973,-3.380000114440918 0,-3.380000114440918 C2.171999931335449,-3.380000114440918 3.431999921798706,-2.131999969482422 3.431999921798706,0z M-1.222000002861023,0 C-1.222000002861023,1.2730000019073486 -0.8190000057220459,1.8070000410079956 0,1.8070000410079956 C0.8190000057220459,1.8070000410079956 1.222000002861023,1.2730000019073486 1.222000002861023,0 C1.222000002861023,-1.2740000486373901 0.8190000057220459,-1.8079999685287476 0,-1.8079999685287476 C-0.8190000057220459,-1.8079999685287476 -1.222000002861023,-1.2740000486373901 -1.222000002861023,0z"></path>
      </g>
      <g opacity="1" transform="matrix(1,0,0,1,99.00299835205078,331.20001220703125)">
        <path fill="rgb(58,159,241)" fill-opacity="1" d=" M2.0209999084472656,3.6530001163482666 C2.0209999084472656,5.4079999923706055 1.059000015258789,6.084000110626221 -0.5009999871253967,6.084000110626221 C-1.2029999494552612,6.084000110626221 -1.7619999647140503,5.940999984741211 -2.2039999961853027,5.668000221252441 C-2.2039999961853027,5.668000221252441 -1.8910000324249268,4.23799991607666 -1.8910000324249268,4.23799991607666 C-1.7089999914169312,4.394000053405762 -1.409999966621399,4.498000144958496 -1.0720000267028809,4.498000144958496 C-0.5260000228881836,4.498000144958496 -0.1889999955892563,4.223999977111816 -0.1889999955892563,3.4579999446868896 C-0.1889999955892563,3.4579999446868896 -0.1889999955892563,-3.2109999656677246 -0.1889999955892563,-3.2109999656677246 C-0.1889999955892563,-3.2109999656677246 2.0209999084472656,-3.2109999656677246 2.0209999084472656,-3.2109999656677246 C2.0209999084472656,-3.2109999656677246 2.0209999084472656,3.6530001163482666 2.0209999084472656,3.6530001163482666z M2.2039999961853027,-5.019000053405762 C2.2039999961853027,-4.302999973297119 1.8009999990463257,-3.9649999141693115 0.9039999842643738,-3.9649999141693115 C0.019999999552965164,-3.9649999141693115 -0.3700000047683716,-4.302999973297119 -0.3700000047683716,-5.019000053405762 C-0.3700000047683716,-5.734000205993652 0.019999999552965164,-6.084000110626221 0.9039999842643738,-6.084000110626221 C1.8009999990463257,-6.084000110626221 2.2039999961853027,-5.734000205993652 2.2039999961853027,-5.019000053405762z"></path>
      </g>
      <g opacity="1" transform="matrix(1,0,0,1,105.59400177001953,331.2380065917969)">
        <path fill="rgb(58,159,241)" fill-opacity="1" d=" M3.25600004196167,0.6359999775886536 C3.25600004196167,0.6359999775886536 -1.1770000457763672,0.6359999775886536 -1.1770000457763672,0.6359999775886536 C-1.034000039100647,1.4819999933242798 -0.5529999732971191,1.8200000524520874 0.18799999356269836,1.8200000524520874 C0.8379999995231628,1.8200000524520874 1.2410000562667847,1.559000015258789 1.3839999437332153,1.1039999723434448 C1.3839999437332153,1.1039999723434448 3.177999973297119,1.6759999990463257 3.177999973297119,1.6759999990463257 C2.8010001182556152,2.806999921798706 1.6959999799728394,3.378999948501587 0.18799999356269836,3.378999948501587 C-2.0869998931884766,3.378999948501587 -3.322000026702881,2.1440000534057617 -3.322000026702881,0 C-3.322000026702881,-2.1459999084472656 -2.0999999046325684,-3.380000114440918 0.07100000232458115,-3.380000114440918 C2.190000057220459,-3.380000114440918 3.322000026702881,-2.1459999084472656 3.322000026702881,-0.09099999815225601 C3.322000026702881,0.1289999932050705 3.2950000762939453,0.46700000762939453 3.25600004196167,0.6359999775886536z M-1.1770000457763672,-0.5600000023841858 C-1.1770000457763672,-0.5600000023841858 1.2669999599456787,-0.5600000023841858 1.2669999599456787,-0.5600000023841858 C1.149999976158142,-1.3919999599456787 0.746999979019165,-1.8329999446868896 0.057999998331069946,-1.8329999446868896 C-0.6439999938011169,-1.8329999446868896 -1.059999942779541,-1.444000005722046 -1.1770000457763672,-0.5600000023841858z"></path>
      </g>
      <g opacity="1" transform="matrix(1,0,0,1,113.12100219726562,331.2380065917969)">
        <path fill="rgb(58,159,241)" fill-opacity="1" d=" M3.2699999809265137,-1.3650000095367432 C3.2699999809265137,-1.3650000095367432 1.215999960899353,-0.6890000104904175 1.215999960899353,-0.6890000104904175 C1.125,-1.4429999589920044 0.800000011920929,-1.8070000410079956 0.2150000035762787,-1.8070000410079956 C-0.6169999837875366,-1.8070000410079956 -1.0720000267028809,-1.2480000257492065 -1.0720000267028809,0.026000000536441803 C-1.0720000267028809,1.312999963760376 -0.5649999976158142,1.8070000410079956 0.2150000035762787,1.8070000410079956 C0.8389999866485596,1.8070000410079956 1.190000057220459,1.4299999475479126 1.2940000295639038,0.7540000081062317 C1.2940000295639038,0.7540000081062317 3.2829999923706055,1.3910000324249268 3.2829999923706055,1.3910000324249268 C3.1010000705718994,2.5220000743865967 2.0480000972747803,3.380000114440918 0.2280000001192093,3.380000114440918 C-2.046999931335449,3.380000114440918 -3.2829999923706055,2.131999969482422 -3.2829999923706055,0 C-3.2829999923706055,-2.131999969482422 -2.0209999084472656,-3.380000114440918 0.13699999451637268,-3.380000114440918 C2.243000030517578,-3.380000114440918 3.062000036239624,-2.4179999828338623 3.2699999809265137,-1.3650000095367432z"></path>
      </g>
      <g opacity="1" transform="matrix(1,0,0,1,119.62100219726562,330.2699890136719)">
        <path fill="rgb(58,159,241)" fill-opacity="1" d=" M2.671999931335449,3.8540000915527344 C2.243000030517578,4.1529998779296875 1.5149999856948853,4.3480000495910645 0.8389999866485596,4.3480000495910645 C-0.6299999952316284,4.3480000495910645 -1.5410000085830688,3.7760000228881836 -1.5540000200271606,2.2679998874664307 C-1.5540000200271606,2.2679998874664307 -1.5540000200271606,-0.7080000042915344 -1.5540000200271606,-0.7080000042915344 C-1.5540000200271606,-0.7080000042915344 -2.671999931335449,-0.7080000042915344 -2.671999931335449,-0.7080000042915344 C-2.671999931335449,-0.7080000042915344 -2.671999931335449,-2.2820000648498535 -2.671999931335449,-2.2820000648498535 C-2.671999931335449,-2.2820000648498535 -1.5540000200271606,-2.2820000648498535 -1.5540000200271606,-2.2820000648498535 C-1.5540000200271606,-2.2820000648498535 -1.5540000200271606,-3.73799991607666 -1.5540000200271606,-3.73799991607666 C-1.5540000200271606,-3.73799991607666 0.656000018119812,-4.348999977111816 0.656000018119812,-4.348999977111816 C0.656000018119812,-4.348999977111816 0.656000018119812,-2.2820000648498535 0.656000018119812,-2.2820000648498535 C0.656000018119812,-2.2820000648498535 2.6070001125335693,-2.2820000648498535 2.6070001125335693,-2.2820000648498535 C2.6070001125335693,-2.2820000648498535 2.6070001125335693,-0.7080000042915344 2.6070001125335693,-0.7080000042915344 C2.6070001125335693,-0.7080000042915344 0.656000018119812,-0.7080000042915344 0.656000018119812,-0.7080000042915344 C0.656000018119812,-0.7080000042915344 0.656000018119812,1.9040000438690186 0.656000018119812,1.9040000438690186 C0.656000018119812,2.5280001163482666 0.9679999947547913,2.7750000953674316 1.5140000581741333,2.7750000953674316 C1.9170000553131104,2.7750000953674316 2.190999984741211,2.6710000038146973 2.4509999752044678,2.489000082015991 C2.4509999752044678,2.489000082015991 2.671999931335449,3.8540000915527344 2.671999931335449,3.8540000915527344z"></path>
      </g>
      <g opacity="1" transform="matrix(1,0,0,1,124.33300018310547,329.802001953125)">
        <path fill="rgb(58,159,241)" fill-opacity="1" d=" M-1.2879999876022339,-3.621000051498413 C-1.2879999876022339,-4.36299991607666 -0.8970000147819519,-4.686999797821045 -0.0010000000474974513,-4.686999797821045 C0.8960000276565552,-4.686999797821045 1.2879999876022339,-4.36299991607666 1.2879999876022339,-3.621000051498413 C1.2879999876022339,-2.8929998874664307 0.8960000276565552,-2.568000078201294 -0.0010000000474974513,-2.568000078201294 C-0.8970000147819519,-2.568000078201294 -1.2879999876022339,-2.8929998874664307 -1.2879999876022339,-3.621000051498413z M1.1050000190734863,4.685999870300293 C1.1050000190734863,4.685999870300293 -1.1050000190734863,4.685999870300293 -1.1050000190734863,4.685999870300293 C-1.1050000190734863,4.685999870300293 -1.1050000190734863,-1.8140000104904175 -1.1050000190734863,-1.8140000104904175 C-1.1050000190734863,-1.8140000104904175 1.1050000190734863,-1.8140000104904175 1.1050000190734863,-1.8140000104904175 C1.1050000190734863,-1.8140000104904175 1.1050000190734863,4.685999870300293 1.1050000190734863,4.685999870300293z"></path>
      </g>
      <g opacity="1" transform="matrix(1,0,0,1,130.13099670410156,331.2380065917969)">
        <path fill="rgb(58,159,241)" fill-opacity="1" d=" M3.431999921798706,0 C3.431999921798706,2.131999969482422 2.171999931335449,3.380000114440918 0,3.380000114440918 C-2.1710000038146973,3.380000114440918 -3.431999921798706,2.131999969482422 -3.431999921798706,0 C-3.431999921798706,-2.131999969482422 -2.1710000038146973,-3.380000114440918 0,-3.380000114440918 C2.171999931335449,-3.380000114440918 3.431999921798706,-2.131999969482422 3.431999921798706,0z M-1.222000002861023,0 C-1.222000002861023,1.2730000019073486 -0.8190000057220459,1.8070000410079956 0,1.8070000410079956 C0.8190000057220459,1.8070000410079956 1.222000002861023,1.2730000019073486 1.222000002861023,0 C1.222000002861023,-1.2740000486373901 0.8190000057220459,-1.8079999685287476 0,-1.8079999685287476 C-0.8190000057220459,-1.8079999685287476 -1.222000002861023,-1.2740000486373901 -1.222000002861023,0z"></path>
      </g>
      <g opacity="1" transform="matrix(1,0,0,1,138.093994140625,331.1730041503906)">
        <path fill="rgb(58,159,241)" fill-opacity="1" d=" M3.256999969482422,-1.0140000581741333 C3.256999969482422,-1.0140000581741333 3.256999969482422,3.315000057220459 3.256999969482422,3.315000057220459 C3.256999969482422,3.315000057220459 1.0460000038146973,3.315000057220459 1.0460000038146973,3.315000057220459 C1.0460000038146973,3.315000057220459 1.0460000038146973,-0.40299999713897705 1.0460000038146973,-0.40299999713897705 C1.0460000038146973,-1.3259999752044678 0.6690000295639038,-1.625 0.12300000339746475,-1.625 C-0.5139999985694885,-1.625 -1.0470000505447388,-1.1959999799728394 -1.0470000505447388,-0.11699999868869781 C-1.0470000505447388,-0.11699999868869781 -1.0470000505447388,3.315000057220459 -1.0470000505447388,3.315000057220459 C-1.0470000505447388,3.315000057220459 -3.256999969482422,3.315000057220459 -3.256999969482422,3.315000057220459 C-3.256999969482422,3.315000057220459 -3.256999969482422,-3.184999942779541 -3.256999969482422,-3.184999942779541 C-3.256999969482422,-3.184999942779541 -1.281000018119812,-3.184999942779541 -1.281000018119812,-3.184999942779541 C-1.281000018119812,-3.184999942779541 -1.215000033378601,-1.9240000247955322 -1.215000033378601,-1.9240000247955322 C-0.8119999766349792,-2.8469998836517334 -0.019999999552965164,-3.315000057220459 1.0069999694824219,-3.315000057220459 C2.3459999561309814,-3.315000057220459 3.256999969482422,-2.5220000743865967 3.256999969482422,-1.0140000581741333z"></path>
      </g>
      <g opacity="1" transform="matrix(1,0,0,1,145.55499267578125,331.239013671875)">
        <path fill="rgb(58,159,241)" fill-opacity="1" d=" M-3.1389999389648438,2.2360000610351562 C-3.1389999389648438,2.2360000610351562 -1.9950000047683716,0.9879999756813049 -1.9950000047683716,0.9879999756813049 C-1.6050000190734863,1.6369999647140503 -0.9039999842643738,1.9110000133514404 -0.07199999690055847,1.9110000133514404 C0.5389999747276306,1.9110000133514404 0.9039999842643738,1.7280000448226929 0.9039999842643738,1.4559999704360962 C0.9039999842643738,1.2089999914169312 0.5910000205039978,1.0520000457763672 -0.2800000011920929,0.8709999918937683 C-2.25600004196167,0.47999998927116394 -2.9709999561309814,-0.15700000524520874 -2.9709999561309814,-1.2230000495910645 C-2.9709999561309814,-2.2880001068115234 -1.9570000171661377,-3.380000114440918 0.16200000047683716,-3.380000114440918 C1.722000002861023,-3.380000114440918 2.5810000896453857,-2.924999952316284 3.1389999389648438,-2.1589999198913574 C3.1389999389648438,-2.1589999198913574 1.9950000047683716,-1.0399999618530273 1.9950000047683716,-1.0399999618530273 C1.5789999961853027,-1.6519999504089355 1.0069999694824219,-1.9110000133514404 0.22699999809265137,-1.9110000133514404 C-0.4230000078678131,-1.9110000133514404 -0.7599999904632568,-1.6770000457763672 -0.7599999904632568,-1.4170000553131104 C-0.7599999904632568,-1.1579999923706055 -0.4740000069141388,-0.9890000224113464 0.4359999895095825,-0.8199999928474426 C2.359999895095825,-0.4819999933242798 3.128000020980835,0.12999999523162842 3.128000020980835,1.2480000257492065 C3.128000020980835,2.444000005722046 2.127000093460083,3.380000114440918 0.032999999821186066,3.380000114440918 C-1.3969999551773071,3.380000114440918 -2.4760000705718994,3.0420000553131104 -3.1389999389648438,2.2360000610351562z"></path>
      </g>
    </g>
  </g>
</svg>