<svg xmlns="http://www.w3.org/2000/svg" viewBox="0 0 600 500" width="600" height="500" preserveAspectRatio="xMidYMid meet" style="width: 100%; height: 100%; transform: translate3d(0px, 0px, 0px);">
  <defs>
    <clipPath id="__lottie_element_140">
      <rect width="600" height="500" x="0" y="0"></rect>
    </clipPath>
  </defs>
  <g clip-path="url(#__lottie_element_140)">
    <g transform="matrix(1.100000023841858,0,0,1.100000023841858,443.35186767578125,61.459129333496094)" opacity="1" style="display: block;">
      <g opacity="1" transform="matrix(1,0,0,1,44.5,39)">
        <path fill="rgb(59,160,242)" fill-opacity="1" d=" M-6.695000171661377,-39 C4.291999816894531,-39 13.197999954223633,-30.0939998626709 13.197999954223633,-19.10700035095215 C13.197999954223633,-8.119999885559082 4.291999816894531,0.7860000133514404 -6.695000171661377,0.7860000133514404 C-17.68199920654297,0.7860000133514404 -26.58799934387207,-8.119999885559082 -26.58799934387207,-19.10700035095215 C-26.58799934387207,-30.0939998626709 -17.68199920654297,-39 -6.695000171661377,-39z M-6.695000171661377,5.758999824523926 C10.935999870300293,5.758999824523926 25.888999938964844,17.22800064086914 31.110000610351562,33.11199951171875 C31.110000610351562,33.11199951171875 -44.5,33.11199951171875 -44.5,33.11199951171875 C-39.27899932861328,17.22800064086914 -24.326000213623047,5.758999824523926 -6.695000171661377,5.758999824523926z"></path>
      </g>
      <g opacity="1" transform="matrix(1,0,0,1,44.5,39)">
        <path fill="rgb(252,252,252)" fill-opacity="1" d=" M27.5,38.5 C36.612998962402344,38.5 44,31.113000869750977 44,22 C44,12.88700008392334 36.612998962402344,5.5 27.5,5.5 C18.386999130249023,5.5 11,12.88700008392334 11,22 C11,31.113000869750977 18.386999130249023,38.5 27.5,38.5z"></path>
      </g>
      <g opacity="1" transform="matrix(1,0,0,1,44.5,39)">
        <path fill="rgb(87,234,151)" fill-opacity="1" d=" M29.562000274658203,11.687000274658203 C29.562000274658203,11.687000274658203 29.562000274658203,19.937000274658203 29.562000274658203,19.937000274658203 C29.562000274658203,19.937000274658203 37.8120002746582,19.937000274658203 37.8120002746582,19.937000274658203 C37.8120002746582,19.937000274658203 37.8120002746582,24.062000274658203 37.8120002746582,24.062000274658203 C37.8120002746582,24.062000274658203 29.562000274658203,24.062000274658203 29.562000274658203,24.062000274658203 C29.562000274658203,24.062000274658203 29.562000274658203,32.3120002746582 29.562000274658203,32.3120002746582 C29.562000274658203,32.3120002746582 25.437999725341797,32.3120002746582 25.437999725341797,32.3120002746582 C25.437999725341797,32.3120002746582 25.437999725341797,24.062000274658203 25.437999725341797,24.062000274658203 C25.437999725341797,24.062000274658203 17.187999725341797,24.062000274658203 17.187999725341797,24.062000274658203 C17.187999725341797,24.062000274658203 17.187999725341797,19.937000274658203 17.187999725341797,19.937000274658203 C17.187999725341797,19.937000274658203 25.437999725341797,19.937000274658203 25.437999725341797,19.937000274658203 C25.437999725341797,19.937000274658203 25.437999725341797,11.687000274658203 25.437999725341797,11.687000274658203 C25.437999725341797,11.687000274658203 29.562000274658203,11.687000274658203 29.562000274658203,11.687000274658203z"></path>
      </g>
    </g>
    <g transform="matrix(1.2557035684585571,-0.3364647328853607,0.3364647328853607,1.2557035684585571,73.30583953857422,351.2816162109375)" opacity="1" style="display: block;">
      <g opacity="1" transform="matrix(1,0,0,1,45.5,45.5)">
        <path fill="rgb(87,234,151)" fill-opacity="1" d=" M38.5,3.5 C38.5,26.695999145507812 19.695999145507812,45.5 -3.5,45.5 C-26.695999145507812,45.5 -45.5,26.695999145507812 -45.5,3.5 C-45.5,-19.695999145507812 -26.695999145507812,-38.5 -3.5,-38.5 C-3.5,-38.5 -3.5,-38.5 -3.5,-38.5 C-3.5,-38.5 -3.5,3.5 -3.5,3.5 C-3.5,3.5 38.5,3.5 38.5,3.5 C38.5,3.5 38.49399948120117,2.805000066757202 38.49399948120117,2.805000066757202 C38.49399948120117,2.805000066757202 38.5,3.5 38.5,3.5z"></path>
      </g>
      <g opacity="1" transform="matrix(1,0,0,1,45.5,45.5)">
        <path fill="rgb(255,141,141)" fill-opacity="1" d=" M3.5,-3.5 C3.5,-3.5 45.5,-3.5 45.5,-3.5 C45.5,-26.695999145507812 26.695999145507812,-45.5 3.5,-45.5 C3.5,-45.5 3.5,-3.5 3.5,-3.5z"></path>
      </g>
    </g>
    <g transform="matrix(1.2999999523162842,0,0,1.2999999523162842,54.148529052734375,83.09092712402344)" opacity="1" style="display: block;">
      <g opacity="1" transform="matrix(1,0,0,1,53.20000076293945,72)">
        <path fill="rgb(254,254,255)" fill-opacity="1" d=" M-49.599998474121094,-67.5999984741211 C-49.599998474121094,-67.5999984741211 49.599998474121094,-67.5999984741211 49.599998474121094,-67.5999984741211 C51.36800003051758,-67.5999984741211 52.79999923706055,-66.16699981689453 52.79999923706055,-64.4000015258789 C52.79999923706055,-64.4000015258789 52.79999923706055,64.4000015258789 52.79999923706055,64.4000015258789 C52.79999923706055,66.16699981689453 51.36800003051758,67.5999984741211 49.599998474121094,67.5999984741211 C49.599998474121094,67.5999984741211 -49.599998474121094,67.5999984741211 -49.599998474121094,67.5999984741211 C-51.367000579833984,67.5999984741211 -52.79999923706055,66.16699981689453 -52.79999923706055,64.4000015258789 C-52.79999923706055,64.4000015258789 -52.79999923706055,-64.4000015258789 -52.79999923706055,-64.4000015258789 C-52.79999923706055,-66.16699981689453 -51.367000579833984,-67.5999984741211 -49.599998474121094,-67.5999984741211z"></path>
      </g>
      <g opacity="1" transform="matrix(1,0,0,1,53.20000076293945,72)">
        <path fill="rgb(217,217,225)" fill-opacity="1" d=" M-49.599998474121094,-67.5999984741211 C-49.599998474121094,-67.5999984741211 -49.599998474121094,-67.19999694824219 -49.599998474121094,-67.19999694824219 C-49.599998474121094,-67.19999694824219 49.599998474121094,-67.19999694824219 49.599998474121094,-67.19999694824219 C51.145999908447266,-67.1969985961914 52.39699935913086,-65.94599914550781 52.400001525878906,-64.4000015258789 C52.400001525878906,-64.4000015258789 52.400001525878906,64.4000015258789 52.400001525878906,64.4000015258789 C52.39699935913086,65.94599914550781 51.14699935913086,67.1969985961914 49.599998474121094,67.19999694824219 C49.599998474121094,67.19999694824219 -49.599998474121094,67.19999694824219 -49.599998474121094,67.19999694824219 C-51.145999908447266,67.1969985961914 -52.39699935913086,65.94599914550781 -52.400001525878906,64.4000015258789 C-52.400001525878906,64.4000015258789 -52.400001525878906,-64.4000015258789 -52.400001525878906,-64.4000015258789 C-52.39699935913086,-65.94599914550781 -51.145999908447266,-67.1969985961914 -49.599998474121094,-67.19999694824219 C-49.599998474121094,-67.19999694824219 -49.599998474121094,-67.5999984741211 -49.599998474121094,-67.5999984741211 C-49.599998474121094,-67.5999984741211 -49.599998474121094,-68 -49.599998474121094,-68 C-51.5880012512207,-68 -53.20000076293945,-66.38800048828125 -53.20000076293945,-64.4000015258789 C-53.20000076293945,-64.4000015258789 -53.20000076293945,-64.4000015258789 -53.20000076293945,-64.4000015258789 C-53.20000076293945,-64.4000015258789 -53.20000076293945,64.4000015258789 -53.20000076293945,64.4000015258789 C-53.20000076293945,66.38800048828125 -51.5880012512207,68 -49.599998474121094,68 C-49.599998474121094,68 49.599998474121094,68 49.599998474121094,68 C51.5890007019043,68 53.20000076293945,66.38800048828125 53.20000076293945,64.4000015258789 C53.20000076293945,64.4000015258789 53.20000076293945,-64.4000015258789 53.20000076293945,-64.4000015258789 C53.20000076293945,-66.38800048828125 51.5890007019043,-68 49.599998474121094,-68 C49.599998474121094,-68 -49.599998474121094,-68 -49.599998474121094,-68 C-49.599998474121094,-68 -49.599998474121094,-67.5999984741211 -49.599998474121094,-67.5999984741211z"></path>
      </g>
      <g opacity="1" transform="matrix(1,0,0,1,36.79999923706055,52.400001525878906)">
        <path fill="rgb(167,205,227)" fill-opacity="1" d=" M3.200000047683716,5.199999809265137 C3.200000047683716,5.199999809265137 -3.200000047683716,5.199999809265137 -3.200000047683716,5.199999809265137 C-3.200000047683716,5.199999809265137 -3.200000047683716,-5.199999809265137 -3.200000047683716,-5.199999809265137 C-3.200000047683716,-5.199999809265137 3.200000047683716,-5.199999809265137 3.200000047683716,-5.199999809265137 C3.200000047683716,-5.199999809265137 3.200000047683716,5.199999809265137 3.200000047683716,5.199999809265137z"></path>
      </g>
      <g opacity="1" transform="matrix(1,0,0,1,44.79999923706055,54)">
        <path fill="rgb(167,205,227)" fill-opacity="1" d=" M3.200000047683716,3.5999999046325684 C3.200000047683716,3.5999999046325684 -3.200000047683716,3.5999999046325684 -3.200000047683716,3.5999999046325684 C-3.200000047683716,3.5999999046325684 -3.200000047683716,-3.5999999046325684 -3.200000047683716,-3.5999999046325684 C-3.200000047683716,-3.5999999046325684 3.200000047683716,-3.5999999046325684 3.200000047683716,-3.5999999046325684 C3.200000047683716,-3.5999999046325684 3.200000047683716,3.5999999046325684 3.200000047683716,3.5999999046325684z"></path>
      </g>
      <g opacity="1" transform="matrix(1,0,0,1,52.79999923706055,50.400001525878906)">
        <path fill="rgb(167,205,227)" fill-opacity="1" d=" M3.200000047683716,7.199999809265137 C3.200000047683716,7.199999809265137 -3.200000047683716,7.199999809265137 -3.200000047683716,7.199999809265137 C-3.200000047683716,7.199999809265137 -3.200000047683716,-7.199999809265137 -3.200000047683716,-7.199999809265137 C-3.200000047683716,-7.199999809265137 3.200000047683716,-7.199999809265137 3.200000047683716,-7.199999809265137 C3.200000047683716,-7.199999809265137 3.200000047683716,7.199999809265137 3.200000047683716,7.199999809265137z"></path>
      </g>
      <g opacity="1" transform="matrix(1,0,0,1,60.79999923706055,52.400001525878906)">
        <path fill="rgb(167,205,227)" fill-opacity="1" d=" M3.200000047683716,5.199999809265137 C3.200000047683716,5.199999809265137 -3.200000047683716,5.199999809265137 -3.200000047683716,5.199999809265137 C-3.200000047683716,5.199999809265137 -3.200000047683716,-5.199999809265137 -3.200000047683716,-5.199999809265137 C-3.200000047683716,-5.199999809265137 3.200000047683716,-5.199999809265137 3.200000047683716,-5.199999809265137 C3.200000047683716,-5.199999809265137 3.200000047683716,5.199999809265137 3.200000047683716,5.199999809265137z"></path>
      </g>
      <g opacity="1" transform="matrix(1,0,0,1,68.80000305175781,48.400001525878906)">
        <path fill="rgb(167,205,227)" fill-opacity="1" d=" M3.200000047683716,9.199999809265137 C3.200000047683716,9.199999809265137 -3.200000047683716,9.199999809265137 -3.200000047683716,9.199999809265137 C-3.200000047683716,9.199999809265137 -3.200000047683716,-9.199999809265137 -3.200000047683716,-9.199999809265137 C-3.200000047683716,-9.199999809265137 3.200000047683716,-9.199999809265137 3.200000047683716,-9.199999809265137 C3.200000047683716,-9.199999809265137 3.200000047683716,9.199999809265137 3.200000047683716,9.199999809265137z"></path>
      </g>
      <g opacity="1" transform="matrix(1,0,0,1,53.20000076293945,58.099998474121094)">
        <path fill="rgb(167,205,227)" fill-opacity="1" d=" M22,0.5 C22,0.5 -22,0.5 -22,0.5 C-22,0.5 -22,-0.5 -22,-0.5 C-22,-0.5 22,-0.5 22,-0.5 C22,-0.5 22,0.5 22,0.5z"></path>
      </g>
      <g opacity="1" transform="matrix(1,0,0,1,53.20000076293945,39.18299865722656)">
        <path fill="rgb(167,205,227)" fill-opacity="1" d=" M22,-2.7829999923706055 C21.952999114990234,-2.7829999923706055 21.9060001373291,-2.7909998893737793 21.860000610351562,-2.808000087738037 C21.860000610351562,-2.808000087738037 16.90999984741211,-4.664000034332275 16.90999984741211,-4.664000034332275 C17.062000274658203,-4.88100004196167 17.16200065612793,-5.136000156402588 17.19099998474121,-5.413000106811523 C17.19099998474121,-5.413000106811523 22.141000747680664,-3.556999921798706 22.141000747680664,-3.556999921798706 C22.347999572753906,-3.4790000915527344 22.452999114990234,-3.249000072479248 22.375,-3.0420000553131104 C22.315000534057617,-2.881999969482422 22.16200065612793,-2.7829999923706055 22,-2.7829999923706055z M8.977999687194824,1.6050000190734863 C8.84000015258789,1.371999979019165 8.645999908447266,1.1770000457763672 8.413000106811523,1.0390000343322754 C8.413000106811523,1.0390000343322754 14.222000122070312,-4.769999980926514 14.222000122070312,-4.769999980926514 C14.359999656677246,-4.5370001792907715 14.553999900817871,-4.3420000076293945 14.786999702453613,-4.203999996185303 C14.786999702453613,-4.203999996185303 8.977999687194824,1.6050000190734863 8.977999687194824,1.6050000190734863z M6.034999847412109,2.0820000171661377 C6.034999847412109,2.0820000171661377 0.8069999814033508,-0.5320000052452087 0.8069999814033508,-0.5320000052452087 C0.9819999933242798,-0.7329999804496765 1.1069999933242798,-0.9779999852180481 1.1649999618530273,-1.2480000257492065 C1.1649999618530273,-1.2480000257492065 6.39300012588501,1.3669999837875366 6.39300012588501,1.3669999837875366 C6.2179999351501465,1.5679999589920044 6.0929999351501465,1.812000036239624 6.034999847412109,2.0820000171661377z M-6.980999946594238,4.877999782562256 C-7.10699987411499,4.638000011444092 -7.290999889373779,4.433000087738037 -7.515999794006348,4.283999919891357 C-7.515999794006348,4.283999919891357 -1.819000005722046,-0.8429999947547913 -1.819000005722046,-0.8429999947547913 C-1.6929999589920044,-0.6019999980926514 -1.5089999437332153,-0.39800000190734863 -1.284000039100647,-0.24899999797344208 C-1.284000039100647,-0.24899999797344208 -6.980999946594238,4.877999782562256 -6.980999946594238,4.877999782562256z M-22,4.952000141143799 C-22.160999298095703,4.952000141143799 -22.312999725341797,4.854000091552734 -22.374000549316406,4.693999767303467 C-22.452999114990234,4.48799991607666 -22.349000930786133,4.256999969482422 -22.14299964904785,4.177999973297119 C-22.14299964904785,4.177999973297119 -17.989999771118164,2.5950000286102295 -17.989999771118164,2.5950000286102295 C-17.958999633789062,2.871999979019165 -17.857999801635742,3.127000093460083 -17.704999923706055,3.3429999351501465 C-17.704999923706055,3.3429999351501465 -21.857999801635742,4.925000190734863 -21.857999801635742,4.925000190734863 C-21.905000686645508,4.942999839782715 -21.952999114990234,4.952000141143799 -22,4.952000141143799z M-9.987000465393066,5.413000106811523 C-9.987000465393066,5.413000106811523 -15.109999656677246,3.364000082015991 -15.109999656677246,3.364000082015991 C-14.95300006866455,3.1510000228881836 -14.847999572753906,2.8970000743865967 -14.812999725341797,2.621000051498413 C-14.812999725341797,2.621000051498413 -9.6899995803833,4.671000003814697 -9.6899995803833,4.671000003814697 C-9.847000122070312,4.883999824523926 -9.95199966430664,5.13700008392334 -9.987000465393066,5.413000106811523z"></path>
      </g>
      <g opacity="1" transform="matrix(1,0,0,1,36.79999923706055,41.599998474121094)">
        <path fill="rgb(167,205,227)" fill-opacity="1" d=" M0,1.600000023841858 C-0.5389999747276306,1.600000023841858 -1.0149999856948853,1.3339999914169312 -1.3049999475479126,0.9259999990463257 C-1.4579999446868896,0.7099999785423279 -1.559000015258789,0.45500001311302185 -1.590000033378601,0.17800000309944153 C-1.597000002861023,0.11999999731779099 -1.600000023841858,0.05999999865889549 -1.600000023841858,0 C-1.600000023841858,-0.8840000033378601 -0.8840000033378601,-1.600000023841858 0,-1.600000023841858 C0.8840000033378601,-1.600000023841858 1.600000023841858,-0.8840000033378601 1.600000023841858,0 C1.600000023841858,0.0689999982714653 1.5959999561309814,0.13699999451637268 1.5870000123977661,0.20399999618530273 C1.5520000457763672,0.47999998927116394 1.4470000267028809,0.734000027179718 1.2899999618530273,0.9470000267028809 C0.9990000128746033,1.343000054359436 0.5289999842643738,1.600000023841858 0,1.600000023841858z"></path>
      </g>
      <g opacity="1" transform="matrix(1,0,0,1,44.79999923706055,44.79999923706055)">
        <path fill="rgb(167,205,227)" fill-opacity="1" d=" M0,1.600000023841858 C-0.8840000033378601,1.600000023841858 -1.600000023841858,0.8830000162124634 -1.600000023841858,0 C-1.600000023841858,-0.0689999982714653 -1.5959999561309814,-0.13699999451637268 -1.5870000123977661,-0.20399999618530273 C-1.5520000457763672,-0.47999998927116394 -1.4470000267028809,-0.734000027179718 -1.2899999618530273,-0.9470000267028809 C-0.9990000128746033,-1.343000054359436 -0.5289999842643738,-1.600000023841858 0,-1.600000023841858 C0.3269999921321869,-1.600000023841858 0.6309999823570251,-1.5019999742507935 0.8840000033378601,-1.3339999914169312 C1.1089999675750732,-1.184999942779541 1.2929999828338623,-0.9789999723434448 1.4190000295639038,-0.7390000224113464 C1.534000039100647,-0.5180000066757202 1.600000023841858,-0.2669999897480011 1.600000023841858,0 C1.600000023841858,0.8830000162124634 0.8840000033378601,1.600000023841858 0,1.600000023841858z"></path>
      </g>
      <g opacity="1" transform="matrix(0.800000011920929,0,0,0.800000011920929,38.7505989074707,77.66699981689453)">
        <g opacity="1" transform="matrix(1,0,0,1,0,0)">
          <path fill="rgb(0,0,0)" fill-opacity="1" d=" M30.084999084472656,0 C30.084999084472656,0 30.084999084472656,-5.156000137329102 30.084999084472656,-5.156000137329102 C30.084999084472656,-5.156000137329102 35.36800003051758,-5.156000137329102 35.36800003051758,-5.156000137329102 C35.36800003051758,-5.156000137329102 35.36800003051758,-7.489999771118164 35.36800003051758,-7.489999771118164 C35.36800003051758,-7.489999771118164 30.084999084472656,-7.489999771118164 30.084999084472656,-7.489999771118164 C30.084999084472656,-7.489999771118164 30.084999084472656,-10.928000450134277 30.084999084472656,-10.928000450134277 C30.084999084472656,-10.928000450134277 35.875999450683594,-10.928000450134277 35.875999450683594,-10.928000450134277 C35.875999450683594,-10.928000450134277 35.875999450683594,-13.329999923706055 35.875999450683594,-13.329999923706055 C35.875999450683594,-13.329999923706055 27.25200080871582,-13.329999923706055 27.25200080871582,-13.329999923706055 C27.25200080871582,-13.329999923706055 27.25200080871582,0 27.25200080871582,0 C27.25200080871582,0 30.084999084472656,0 30.084999084472656,0z"></path>
        </g>
        <g opacity="1" transform="matrix(1,0,0,1,0,0)">
          <path fill="rgb(0,0,0)" fill-opacity="1" d=" M16.643999099731445,-10.967000007629395 C16.643999099731445,-10.967000007629395 18.392000198364258,-10.967000007629395 18.392000198364258,-10.967000007629395 C21.086999893188477,-10.967000007629395 21.878000259399414,-9.062999725341797 21.878000259399414,-6.640999794006348 C21.878000259399414,-3.3889999389648438 20.56999969482422,-2.372999906539917 18.392000198364258,-2.372999906539917 C18.392000198364258,-2.372999906539917 16.643999099731445,-2.372999906539917 16.643999099731445,-2.372999906539917 C16.643999099731445,-2.372999906539917 16.643999099731445,-10.967000007629395 16.643999099731445,-10.967000007629395z M13.812000274658203,-13.329999923706055 C13.812000274658203,-13.329999923706055 13.812000274658203,0 13.812000274658203,0 C13.812000274658203,0 18.802000045776367,0 18.802000045776367,0 C23.118000030517578,0 24.77899932861328,-2.7829999923706055 24.77899932861328,-6.709000110626221 C24.77899932861328,-10.635000228881836 23.108999252319336,-13.329999923706055 18.802000045776367,-13.329999923706055 C18.802000045776367,-13.329999923706055 13.812000274658203,-13.329999923706055 13.812000274658203,-13.329999923706055z"></path>
        </g>
        <g opacity="1" transform="matrix(1,0,0,1,0,0)">
          <path fill="rgb(0,0,0)" fill-opacity="1" d=" M4.442999839782715,-11.03499984741211 C4.442999839782715,-11.03499984741211 6.474999904632568,-11.03499984741211 6.474999904632568,-11.03499984741211 C7.890999794006348,-11.03499984741211 8.75,-10.234000205993652 8.75,-8.788999557495117 C8.75,-7.109000205993652 7.685999870300293,-6.543000221252441 5.938000202178955,-6.543000221252441 C5.938000202178955,-6.543000221252441 4.442999839782715,-6.543000221252441 4.442999839782715,-6.543000221252441 C4.442999839782715,-6.543000221252441 4.442999839782715,-11.03499984741211 4.442999839782715,-11.03499984741211z M1.63100004196167,-13.329999923706055 C1.63100004196167,-13.329999923706055 1.63100004196167,0 1.63100004196167,0 C1.63100004196167,0 4.453000068664551,0 4.453000068664551,0 C4.453000068664551,0 4.453000068664551,-4.296999931335449 4.453000068664551,-4.296999931335449 C4.453000068664551,-4.296999931335449 7.031000137329102,-4.296999931335449 7.031000137329102,-4.296999931335449 C9.970000267028809,-4.296999931335449 11.621000289916992,-6.239999771118164 11.621000289916992,-8.788999557495117 C11.621000289916992,-11.298999786376953 9.991000175476074,-13.329999923706055 7.060999870300293,-13.329999923706055 C7.060999870300293,-13.329999923706055 1.63100004196167,-13.329999923706055 1.63100004196167,-13.329999923706055z"></path>
        </g>
      </g>
      <g opacity="1" transform="matrix(1,0,0,1,52.79999923706055,37.599998474121094)">
        <path fill="rgb(167,205,227)" fill-opacity="1" d=" M0,1.600000023841858 C-0.3269999921321869,1.600000023841858 -0.6309999823570251,1.5019999742507935 -0.8840000033378601,1.3339999914169312 C-1.1089999675750732,1.184999942779541 -1.2929999828338623,0.9800000190734863 -1.4190000295639038,0.7390000224113464 C-1.534000039100647,0.5180000066757202 -1.600000023841858,0.2669999897480011 -1.600000023841858,0 C-1.600000023841858,-0.8840000033378601 -0.8840000033378601,-1.600000023841858 0,-1.600000023841858 C0.8840000033378601,-1.600000023841858 1.600000023841858,-0.8840000033378601 1.600000023841858,0 C1.600000023841858,0.11500000208616257 1.5880000591278076,0.22699999809265137 1.565000057220459,0.33500000834465027 C1.5069999694824219,0.6050000190734863 1.3819999694824219,0.8500000238418579 1.2070000171661377,1.0509999990463257 C0.9139999747276306,1.3880000114440918 0.4819999933242798,1.600000023841858 0,1.600000023841858z"></path>
      </g>
      <g opacity="1" transform="matrix(1,0,0,1,60.79999923706055,41.599998474121094)">
        <path fill="rgb(167,205,227)" fill-opacity="1" d=" M0,1.600000023841858 C-0.8840000033378601,1.600000023841858 -1.600000023841858,0.8840000033378601 -1.600000023841858,0 C-1.600000023841858,-0.11500000208616257 -1.5870000123977661,-0.22699999809265137 -1.5640000104904175,-0.33500000834465027 C-1.50600004196167,-0.6050000190734863 -1.3819999694824219,-0.8500000238418579 -1.2070000171661377,-1.0509999990463257 C-0.9139999747276306,-1.3880000114440918 -0.4819999933242798,-1.600000023841858 0,-1.600000023841858 C0.296999990940094,-1.600000023841858 0.574999988079071,-1.5199999809265137 0.8130000233650208,-1.378999948501587 C1.0460000038146973,-1.2410000562667847 1.2400000095367432,-1.0460000038146973 1.378000020980835,-0.8130000233650208 C1.5190000534057617,-0.574999988079071 1.600000023841858,-0.296999990940094 1.600000023841858,0 C1.600000023841858,0.8840000033378601 0.8840000033378601,1.600000023841858 0,1.600000023841858z"></path>
      </g>
      <g opacity="1" transform="matrix(1,0,0,1,68.80000305175781,33.599998474121094)">
        <path fill="rgb(167,205,227)" fill-opacity="1" d=" M0,1.600000023841858 C-0.296999990940094,1.600000023841858 -0.574999988079071,1.5190000534057617 -0.8130000233650208,1.378000020980835 C-1.0460000038146973,1.2400000095367432 -1.2400000095367432,1.0460000038146973 -1.378000020980835,0.8130000233650208 C-1.5190000534057617,0.574999988079071 -1.600000023841858,0.296999990940094 -1.600000023841858,0 C-1.600000023841858,-0.8840000033378601 -0.8840000033378601,-1.600000023841858 0,-1.600000023841858 C0.8840000033378601,-1.600000023841858 1.600000023841858,-0.8840000033378601 1.600000023841858,0 C1.600000023841858,0.05700000002980232 1.597000002861023,0.11299999803304672 1.590999960899353,0.16899999976158142 C1.562000036239624,0.44600000977516174 1.4620000123977661,0.7020000219345093 1.309999942779541,0.9190000295639038 C1.0210000276565552,1.3309999704360962 0.5419999957084656,1.600000023841858 0,1.600000023841858z"></path>
      </g>
      <g opacity="1" transform="matrix(1,0,0,1,53.20000076293945,87.19999694824219)">
        <path fill="rgb(217,217,225)" fill-opacity="1" d=" M-30,-0.800000011920929 C-30,-0.800000011920929 30,-0.800000011920929 30,-0.800000011920929 C30.44099998474121,-0.800000011920929 30.799999237060547,-0.4410000145435333 30.799999237060547,0 C30.799999237060547,0.44200000166893005 30.44099998474121,0.800000011920929 30,0.800000011920929 C30,0.800000011920929 -30,0.800000011920929 -30,0.800000011920929 C-30.441999435424805,0.800000011920929 -30.799999237060547,0.44200000166893005 -30.799999237060547,0 C-30.799999237060547,-0.4410000145435333 -30.441999435424805,-0.800000011920929 -30,-0.800000011920929z"></path>
      </g>
      <g opacity="1" transform="matrix(1,0,0,1,53.20000076293945,95.19999694824219)">
        <path fill="rgb(217,217,225)" fill-opacity="1" d=" M-30,-0.800000011920929 C-30,-0.800000011920929 30,-0.800000011920929 30,-0.800000011920929 C30.44099998474121,-0.800000011920929 30.799999237060547,-0.44200000166893005 30.799999237060547,-0.0010000000474974513 C30.799999237060547,0.4410000145435333 30.44099998474121,0.800000011920929 30,0.800000011920929 C30,0.800000011920929 -30,0.800000011920929 -30,0.800000011920929 C-30.441999435424805,0.800000011920929 -30.799999237060547,0.4410000145435333 -30.799999237060547,-0.0010000000474974513 C-30.799999237060547,-0.44200000166893005 -30.441999435424805,-0.800000011920929 -30,-0.800000011920929z"></path>
      </g>
      <g opacity="1" transform="matrix(1,0,0,1,53.20000076293945,103.19999694824219)">
        <path fill="rgb(217,217,225)" fill-opacity="1" d=" M-30,-0.800000011920929 C-30,-0.800000011920929 30,-0.800000011920929 30,-0.800000011920929 C30.44099998474121,-0.800000011920929 30.799999237060547,-0.44200000166893005 30.799999237060547,0 C30.799999237060547,0.44200000166893005 30.44099998474121,0.800000011920929 30,0.800000011920929 C30,0.800000011920929 -30,0.800000011920929 -30,0.800000011920929 C-30.441999435424805,0.800000011920929 -30.799999237060547,0.44200000166893005 -30.799999237060547,0 C-30.799999237060547,-0.44200000166893005 -30.441999435424805,-0.800000011920929 -30,-0.800000011920929z"></path>
      </g>
      <g opacity="1" transform="matrix(1,0,0,1,45.20000076293945,111.19999694824219)">
        <path fill="rgb(217,217,225)" fill-opacity="1" d=" M-22,0.800000011920929 C-22,0.800000011920929 22,0.800000011920929 22,0.800000011920929 C22.44099998474121,0.800000011920929 22.799999237060547,0.44200000166893005 22.799999237060547,0 C22.799999237060547,-0.44200000166893005 22.44099998474121,-0.800000011920929 22,-0.800000011920929 C22,-0.800000011920929 -22,-0.800000011920929 -22,-0.800000011920929 C-22.441999435424805,-0.800000011920929 -22.799999237060547,-0.44200000166893005 -22.799999237060547,0 C-22.799999237060547,0.44200000166893005 -22.441999435424805,0.800000011920929 -22,0.800000011920929z"></path>
      </g>
      <g opacity="1" transform="matrix(1,0,0,1,28,15.071000099182129)">
        <path fill="rgb(49,44,54)" fill-opacity="1" d=" M6.800000190734863,-8.244999885559082 C6.798999786376953,-11.793999671936035 3.9230000972747803,-14.670000076293945 0.37400001287460327,-14.670999526977539 C0.37400001287460327,-14.670999526977539 0.37400001287460327,-14.670999526977539 0.37400001287460327,-14.670999526977539 C0.37400001287460327,-14.670999526977539 0,-14.670999526977539 0,-14.670999526977539 C-3.75600004196167,-14.670000076293945 -6.798999786376953,-11.626999855041504 -6.800000190734863,-7.870999813079834 C-6.800000190734863,-7.870999813079834 -6.800000190734863,9.871000289916992 -6.800000190734863,9.871000289916992 C-6.798999786376953,12.52299976348877 -4.651000022888184,14.670000076293945 -2,14.670999526977539 C0.6510000228881836,14.670000076293945 2.7990000247955322,12.52299976348877 2.799999952316284,9.871000289916992 C2.799999952316284,9.871000289916992 2.799999952316284,0 2.799999952316284,0 C2.799999952316284,-0.6629999876022339 2.263000011444092,-1.2000000476837158 1.600000023841858,-1.2000000476837158 C0.9369999766349792,-1.2000000476837158 0.4000000059604645,-0.6629999876022339 0.4000000059604645,0 C0.4000000059604645,0 0.4000000059604645,9.871000289916992 0.4000000059604645,9.871000289916992 C0.39800000190734863,11.196000099182129 -0.6759999990463257,12.269000053405762 -2,12.270999908447266 C-3.325000047683716,12.269000053405762 -4.3979997634887695,11.196000099182129 -4.400000095367432,9.871000289916992 C-4.400000095367432,9.871000289916992 -4.400000095367432,-7.870999813079834 -4.400000095367432,-7.870999813079834 C-4.39900016784668,-9.09000015258789 -3.9089999198913574,-10.182000160217285 -3.1110000610351562,-10.982000350952148 C-2.311000108718872,-11.779999732971191 -1.218999981880188,-12.270000457763672 0,-12.270999908447266 C0,-12.270999908447266 0.37400001287460327,-12.270999908447266 0.37400001287460327,-12.270999908447266 C1.4900000095367432,-12.270000457763672 2.489000082015991,-11.821999549865723 3.2209999561309814,-11.092000007629395 C3.9509999752044678,-10.359999656677246 4.39900016784668,-9.359999656677246 4.400000095367432,-8.244999885559082 C4.400000095367432,-7.581999778747559 4.936999797821045,-7.045000076293945 5.599999904632568,-7.045000076293945 C6.263000011444092,-7.045000076293945 6.800000190734863,-7.581999778747559 6.800000190734863,-8.244999885559082z"></path>
      </g>
      <g opacity="1" transform="matrix(1,0,0,1,34,7.199999809265137)">
        <path fill="rgb(254,254,255)" fill-opacity="1" d=" M-5.199999809265137,-2.4000000953674316 C-5.199999809265137,-2.4000000953674316 5.199999809265137,-2.4000000953674316 5.199999809265137,-2.4000000953674316 C5.199999809265137,-2.4000000953674316 5.199999809265137,2.4000000953674316 5.199999809265137,2.4000000953674316 C5.199999809265137,2.4000000953674316 -5.199999809265137,2.4000000953674316 -5.199999809265137,2.4000000953674316 C-5.199999809265137,2.4000000953674316 -5.199999809265137,-2.4000000953674316 -5.199999809265137,-2.4000000953674316z"></path>
      </g>
      <g opacity="1" transform="matrix(1,0,0,1,34,4.5)">
        <path fill="rgb(217,217,225)" fill-opacity="1" d=" M-5.199999809265137,-0.5 C-5.199999809265137,-0.5 5.199999809265137,-0.5 5.199999809265137,-0.5 C5.199999809265137,-0.5 5.199999809265137,0.5 5.199999809265137,0.5 C5.199999809265137,0.5 -5.199999809265137,0.5 -5.199999809265137,0.5 C-5.199999809265137,0.5 -5.199999809265137,-0.5 -5.199999809265137,-0.5z"></path>
      </g>
    </g>
    <g transform="matrix(1.2999999523162842,0,0,1.2999999523162842,319.42596435546875,350.36773681640625)" opacity="1" style="display: block;">
      <g opacity="1" transform="matrix(1,0,0,1,81,44)">
        <path fill="rgb(87,234,151)" fill-opacity="1" d=" M-75.55999755859375,0.1599999964237213 C-75.55999755859375,0.1599999964237213 -60.84000015258789,0.1599999964237213 -60.84000015258789,0.1599999964237213 C-60.48699951171875,0.1599999964237213 -60.20000076293945,0.44699999690055847 -60.20000076293945,0.800000011920929 C-60.20000076293945,0.800000011920929 -60.20000076293945,43.36000061035156 -60.20000076293945,43.36000061035156 C-60.20000076293945,43.36000061035156 -76.19999694824219,43.36000061035156 -76.19999694824219,43.36000061035156 C-76.19999694824219,43.36000061035156 -76.19999694824219,0.800000011920929 -76.19999694824219,0.800000011920929 C-76.19999694824219,0.44699999690055847 -75.91300201416016,0.1599999964237213 -75.55999755859375,0.1599999964237213z"></path>
      </g>
      <g opacity="1" transform="matrix(1,0,0,1,81,44)">
        <path fill="rgb(255,141,141)" fill-opacity="1" d=" M-57.959999084472656,-3.0399999618530273 C-57.959999084472656,-3.0399999618530273 -43.2400016784668,-3.0399999618530273 -43.2400016784668,-3.0399999618530273 C-42.887001037597656,-3.0399999618530273 -42.599998474121094,-2.753000020980835 -42.599998474121094,-2.4000000953674316 C-42.599998474121094,-2.4000000953674316 -42.599998474121094,43.36000061035156 -42.599998474121094,43.36000061035156 C-42.599998474121094,43.36000061035156 -58.599998474121094,43.36000061035156 -58.599998474121094,43.36000061035156 C-58.599998474121094,43.36000061035156 -58.599998474121094,-2.4000000953674316 -58.599998474121094,-2.4000000953674316 C-58.599998474121094,-2.753000020980835 -58.3129997253418,-3.0399999618530273 -57.959999084472656,-3.0399999618530273z"></path>
      </g>
      <g opacity="1" transform="matrix(1,0,0,1,81,44)">
        <path fill="rgb(87,234,151)" fill-opacity="1" d=" M4.440000057220459,-15.520000457763672 C4.440000057220459,-15.520000457763672 19.15999984741211,-15.520000457763672 19.15999984741211,-15.520000457763672 C19.51300048828125,-15.520000457763672 19.799999237060547,-15.232999801635742 19.799999237060547,-14.880000114440918 C19.799999237060547,-14.880000114440918 19.799999237060547,43.36000061035156 19.799999237060547,43.36000061035156 C19.799999237060547,43.36000061035156 3.799999952316284,43.36000061035156 3.799999952316284,43.36000061035156 C3.799999952316284,43.36000061035156 3.799999952316284,-14.880000114440918 3.799999952316284,-14.880000114440918 C3.799999952316284,-15.232999801635742 4.086999893188477,-15.520000457763672 4.440000057220459,-15.520000457763672z"></path>
      </g>
      <g opacity="1" transform="matrix(1,0,0,1,81,44)">
        <path fill="rgb(255,141,141)" fill-opacity="1" d=" M22.040000915527344,20.31999969482422 C22.040000915527344,20.31999969482422 36.7599983215332,20.31999969482422 36.7599983215332,20.31999969482422 C37.112998962402344,20.31999969482422 37.400001525878906,20.60700035095215 37.400001525878906,20.959999084472656 C37.400001525878906,20.959999084472656 37.400001525878906,43.36000061035156 37.400001525878906,43.36000061035156 C37.400001525878906,43.36000061035156 21.399999618530273,43.36000061035156 21.399999618530273,43.36000061035156 C21.399999618530273,43.36000061035156 21.399999618530273,20.959999084472656 21.399999618530273,20.959999084472656 C21.399999618530273,20.60700035095215 21.687000274658203,20.31999969482422 22.040000915527344,20.31999969482422z"></path>
      </g>
      <g opacity="1" transform="matrix(1,0,0,1,81,44)">
        <path fill="rgb(87,234,151)" fill-opacity="1" d=" M-35.560001373291016,5.28000020980835 C-35.560001373291016,5.28000020980835 -20.84000015258789,5.28000020980835 -20.84000015258789,5.28000020980835 C-20.48699951171875,5.28000020980835 -20.200000762939453,5.566999912261963 -20.200000762939453,5.920000076293945 C-20.200000762939453,5.920000076293945 -20.200000762939453,43.36000061035156 -20.200000762939453,43.36000061035156 C-20.200000762939453,43.36000061035156 -36.20000076293945,43.36000061035156 -36.20000076293945,43.36000061035156 C-36.20000076293945,43.36000061035156 -36.20000076293945,5.920000076293945 -36.20000076293945,5.920000076293945 C-36.20000076293945,5.566999912261963 -35.91299819946289,5.28000020980835 -35.560001373291016,5.28000020980835z"></path>
      </g>
      <g opacity="1" transform="matrix(1,0,0,1,81,44)">
        <path fill="rgb(255,141,141)" fill-opacity="1" d=" M-17.959999084472656,13.920000076293945 C-17.959999084472656,13.920000076293945 -3.240000009536743,13.920000076293945 -3.240000009536743,13.920000076293945 C-2.88700008392334,13.920000076293945 -2.5999999046325684,14.206999778747559 -2.5999999046325684,14.5600004196167 C-2.5999999046325684,14.5600004196167 -2.5999999046325684,43.36000061035156 -2.5999999046325684,43.36000061035156 C-2.5999999046325684,43.36000061035156 -18.600000381469727,43.36000061035156 -18.600000381469727,43.36000061035156 C-18.600000381469727,43.36000061035156 -18.600000381469727,14.5600004196167 -18.600000381469727,14.5600004196167 C-18.600000381469727,14.206999778747559 -18.312999725341797,13.920000076293945 -17.959999084472656,13.920000076293945z"></path>
      </g>
      <g opacity="1" transform="matrix(1,0,0,1,81,44)">
        <path fill="rgb(87,234,151)" fill-opacity="1" d=" M44.439998626708984,-32.47999954223633 C44.439998626708984,-32.47999954223633 59.15999984741211,-32.47999954223633 59.15999984741211,-32.47999954223633 C59.51300048828125,-32.47999954223633 59.79999923706055,-32.19300079345703 59.79999923706055,-31.84000015258789 C59.79999923706055,-31.84000015258789 59.79999923706055,43.36000061035156 59.79999923706055,43.36000061035156 C59.79999923706055,43.36000061035156 43.79999923706055,43.36000061035156 43.79999923706055,43.36000061035156 C43.79999923706055,43.36000061035156 43.79999923706055,-31.84000015258789 43.79999923706055,-31.84000015258789 C43.79999923706055,-32.19300079345703 44.08700180053711,-32.47999954223633 44.439998626708984,-32.47999954223633z"></path>
      </g>
      <g opacity="1" transform="matrix(1,0,0,1,81,44)">
        <path fill="rgb(255,141,141)" fill-opacity="1" d=" M62.040000915527344,31.520000457763672 C62.040000915527344,31.520000457763672 76.76000213623047,31.520000457763672 76.76000213623047,31.520000457763672 C77.11299896240234,31.520000457763672 77.4000015258789,31.80699920654297 77.4000015258789,32.15999984741211 C77.4000015258789,32.15999984741211 77.4000015258789,43.36000061035156 77.4000015258789,43.36000061035156 C77.4000015258789,43.36000061035156 61.400001525878906,43.36000061035156 61.400001525878906,43.36000061035156 C61.400001525878906,43.36000061035156 61.400001525878906,32.15999984741211 61.400001525878906,32.15999984741211 C61.400001525878906,31.80699920654297 61.6870002746582,31.520000457763672 62.040000915527344,31.520000457763672z"></path>
      </g>
      <g opacity="1" transform="matrix(1,0,0,1,81.5999984741211,22.079999923706055)">
        <path stroke-linecap="round" stroke-linejoin="miter" fill-opacity="0" stroke-miterlimit="10" stroke="rgb(59,160,242)" stroke-opacity="1" stroke-width="0.96" d=" M-76.80000305175781,16 C-76.80000305175781,16 -60,11.039999961853027 -60,11.039999961853027 C-60,11.039999961853027 -20,20 -20,20 C-20,20 20,-6.559999942779541 20,-6.559999942779541 C20,-6.559999942779541 60,-20 60,-20 C60,-20 76.80000305175781,-12.423999786376953 76.80000305175781,-12.423999786376953"></path>
      </g>
      <g opacity="1" transform="matrix(1,0,0,1,81,44)">
        <path fill="rgb(59,160,242)" fill-opacity="1" d=" M-19.399999618530273,0.1599999964237213 C-18.250999450683594,0.1599999964237213 -17.31999969482422,-0.7710000276565552 -17.31999969482422,-1.9199999570846558 C-17.31999969482422,-3.069000005722046 -18.250999450683594,-4 -19.399999618530273,-4 C-20.548999786376953,-4 -21.479999542236328,-3.069000005722046 -21.479999542236328,-1.9199999570846558 C-21.479999542236328,-0.7710000276565552 -20.548999786376953,0.1599999964237213 -19.399999618530273,0.1599999964237213z"></path>
      </g>
      <g opacity="1" transform="matrix(1,0,0,1,81,44)">
        <path fill="rgb(59,160,242)" fill-opacity="1" d=" M20.600000381469727,-26.399999618530273 C21.749000549316406,-26.399999618530273 22.68000030517578,-27.33099937438965 22.68000030517578,-28.479999542236328 C22.68000030517578,-29.628999710083008 21.749000549316406,-30.559999465942383 20.600000381469727,-30.559999465942383 C19.451000213623047,-30.559999465942383 18.520000457763672,-29.628999710083008 18.520000457763672,-28.479999542236328 C18.520000457763672,-27.33099937438965 19.451000213623047,-26.399999618530273 20.600000381469727,-26.399999618530273z"></path>
      </g>
      <g opacity="1" transform="matrix(1,0,0,1,81,44)">
        <path fill="rgb(59,160,242)" fill-opacity="1" d=" M60.599998474121094,-39.84000015258789 C61.749000549316406,-39.84000015258789 62.68000030517578,-40.770999908447266 62.68000030517578,-41.91999816894531 C62.68000030517578,-43.069000244140625 61.749000549316406,-44 60.599998474121094,-44 C59.45100021362305,-44 58.52000045776367,-43.069000244140625 58.52000045776367,-41.91999816894531 C58.52000045776367,-40.770999908447266 59.45100021362305,-39.84000015258789 60.599998474121094,-39.84000015258789z"></path>
      </g>
      <g opacity="1" transform="matrix(1,0,0,1,81,44)">
        <path fill="rgb(59,160,242)" fill-opacity="1" d=" M-59.400001525878906,-8.800000190734863 C-58.250999450683594,-8.800000190734863 -57.31999969482422,-9.730999946594238 -57.31999969482422,-10.880000114440918 C-57.31999969482422,-12.029000282287598 -58.250999450683594,-12.960000038146973 -59.400001525878906,-12.960000038146973 C-60.54899978637695,-12.960000038146973 -61.47999954223633,-12.029000282287598 -61.47999954223633,-10.880000114440918 C-61.47999954223633,-9.730999946594238 -60.54899978637695,-8.800000190734863 -59.400001525878906,-8.800000190734863z"></path>
      </g>
      <g opacity="1" transform="matrix(1,0,0,1,81,87.5)">
        <path fill="rgb(26,78,149)" fill-opacity="1" d=" M-81,-0.5 C-81,-0.5 81,-0.5 81,-0.5 C81,-0.5 81,0.5 81,0.5 C81,0.5 -81,0.5 -81,0.5 C-81,0.5 -81,-0.5 -81,-0.5z"></path>
      </g>
    </g>
    <g transform="matrix(1.2999999523162842,0,0,1.2999999523162842,283.227294921875,28.780712127685547)" opacity="1" style="display: block;">
      <g opacity="1" transform="matrix(1,0,0,1,23,30)">
        <path stroke-linecap="butt" stroke-linejoin="miter" fill-opacity="0" stroke-miterlimit="10" stroke="rgb(214,218,229)" stroke-opacity="1" stroke-width="6" d=" M20,0 C20,0 20,18 20,18 C20,19.104999542236328 19.104999542236328,20 18,20 C18,20 -18,20 -18,20 C-19.104999542236328,20 -20,19.104999542236328 -20,18 C-20,18 -20,-18 -20,-18 C-20,-19.104999542236328 -19.104999542236328,-20 -18,-20 C-18,-20 -6,-20 -6,-20"></path>
      </g>
      <g opacity="1" transform="matrix(1,0,0,1,28,26.5)">
        <path fill="rgb(59,160,242)" fill-opacity="1" d=" M12.11299991607666,-26.5 C12.11299991607666,-26.5 27.113000869750977,-13.5 27.113000869750977,-13.5 C27.113000869750977,-13.5 12.11299991607666,-0.5 12.11299991607666,-0.5 C12.11299991607666,-0.5 12.112000465393066,-8.50100040435791 12.112000465393066,-8.50100040435791 C12.112000465393066,-8.50100040435791 10.11299991607666,-8.5 10.11299991607666,-8.5 C-0.3619999885559082,-8.5600004196167 -4.620999813079834,-7.335999965667725 -10,2.7019999027252197 C-10,-10.17300033569336 -3.371000051498413,-18.5 10.11299991607666,-18.5 C10.11299991607666,-18.5 12.112000465393066,-18.500999450683594 12.112000465393066,-18.500999450683594 C12.112000465393066,-18.500999450683594 12.11299991607666,-26.5 12.11299991607666,-26.5z"></path>
      </g>
    </g>
    <g transform="matrix(1.2999999523162842,0,0,1.2999999523162842,454.59686279296875,184.68502807617188)" opacity="1" style="display: block;">
      <g opacity="1" transform="matrix(1,0,0,1,26,35)">
        <path fill="rgb(255,255,255)" fill-opacity="1" d=" M-22.399999618530273,-33.79999923706055 C-22.399999618530273,-33.79999923706055 6.400000095367432,-33.79999923706055 6.400000095367432,-33.79999923706055 C6.400000095367432,-33.79999923706055 24.399999618530273,-15.800000190734863 24.399999618530273,-15.800000190734863 C24.399999618530273,-15.800000190734863 24.399999618530273,31 24.399999618530273,31 C24.399999618530273,32.32500076293945 23.325000762939453,33.400001525878906 22,33.400001525878906 C22,33.400001525878906 -22.399999618530273,33.400001525878906 -22.399999618530273,33.400001525878906 C-23.725000381469727,33.400001525878906 -24.799999237060547,32.32500076293945 -24.799999237060547,31 C-24.799999237060547,31 -24.799999237060547,-31.399999618530273 -24.799999237060547,-31.399999618530273 C-24.799999237060547,-32.72600173950195 -23.725000381469727,-33.79999923706055 -22.399999618530273,-33.79999923706055z"></path>
        <path stroke-linecap="butt" stroke-linejoin="miter" fill-opacity="0" stroke-miterlimit="10" stroke="rgb(214,218,229)" stroke-opacity="1" stroke-width="2.4" d=" M-22.399999618530273,-33.79999923706055 C-22.399999618530273,-33.79999923706055 6.400000095367432,-33.79999923706055 6.400000095367432,-33.79999923706055 C6.400000095367432,-33.79999923706055 24.399999618530273,-15.800000190734863 24.399999618530273,-15.800000190734863 C24.399999618530273,-15.800000190734863 24.399999618530273,31 24.399999618530273,31 C24.399999618530273,32.32500076293945 23.325000762939453,33.400001525878906 22,33.400001525878906 C22,33.400001525878906 -22.399999618530273,33.400001525878906 -22.399999618530273,33.400001525878906 C-23.725000381469727,33.400001525878906 -24.799999237060547,32.32500076293945 -24.799999237060547,31 C-24.799999237060547,31 -24.799999237060547,-31.399999618530273 -24.799999237060547,-31.399999618530273 C-24.799999237060547,-32.72600173950195 -23.725000381469727,-33.79999923706055 -22.399999618530273,-33.79999923706055z"></path>
      </g>
      <g opacity="1" transform="matrix(1,0,0,1,26,35)">
        <path fill="rgb(214,218,229)" fill-opacity="1" d=" M6.400000095367432,-35 C6.400000095367432,-35 25.600000381469727,-15.800000190734863 25.600000381469727,-15.800000190734863 C25.600000381469727,-15.800000190734863 8.800000190734863,-15.800000190734863 8.800000190734863,-15.800000190734863 C7.474999904632568,-15.800000190734863 6.400000095367432,-16.875 6.400000095367432,-18.200000762939453 C6.400000095367432,-18.200000762939453 6.400000095367432,-35 6.400000095367432,-35z"></path>
      </g>
      <g opacity="1" transform="matrix(1,0,0,1,25.799999237060547,43.20000076293945)">
        <path fill="rgb(59,160,242)" fill-opacity="1" d=" M-25.799999237060547,-13.199999809265137 C-25.799999237060547,-13.199999809265137 25.799999237060547,-13.199999809265137 25.799999237060547,-13.199999809265137 C25.799999237060547,-13.199999809265137 25.799999237060547,13.199999809265137 25.799999237060547,13.199999809265137 C25.799999237060547,13.199999809265137 -25.799999237060547,13.199999809265137 -25.799999237060547,13.199999809265137 C-25.799999237060547,13.199999809265137 -25.799999237060547,-13.199999809265137 -25.799999237060547,-13.199999809265137z"></path>
      </g>
      <g opacity="1" transform="matrix(1,0,0,1,6.25,51)">
        <g opacity="1" transform="matrix(1,0,0,1,0,0)">
          <path fill="rgb(255,255,255)" fill-opacity="1" d=" M33.53099822998047,0 C33.53099822998047,0 37.887001037597656,-13.329999923706055 37.887001037597656,-13.329999923706055 C37.887001037597656,-13.329999923706055 34.75199890136719,-13.329999923706055 34.75199890136719,-13.329999923706055 C34.75199890136719,-13.329999923706055 31.948999404907227,-3.1540000438690186 31.948999404907227,-3.1540000438690186 C31.948999404907227,-3.1540000438690186 31.812999725341797,-3.1540000438690186 31.812999725341797,-3.1540000438690186 C31.812999725341797,-3.1540000438690186 28.97100067138672,-13.329999923706055 28.97100067138672,-13.329999923706055 C28.97100067138672,-13.329999923706055 25.698999404907227,-13.329999923706055 25.698999404907227,-13.329999923706055 C25.698999404907227,-13.329999923706055 30.083999633789062,0 30.083999633789062,0 C30.083999633789062,0 33.53099822998047,0 33.53099822998047,0z"></path>
        </g>
        <g opacity="1" transform="matrix(1,0,0,1,0,0)">
          <path fill="rgb(255,255,255)" fill-opacity="1" d=" M13.998000144958496,-3.8480000495910645 C14.036999702453613,-1.9529999494552612 15.307000160217285,0.2540000081062317 19.232999801635742,0.2540000081062317 C22.534000396728516,0.2540000081062317 24.575000762939453,-1.3869999647140503 24.575000762939453,-4.004000186920166 C24.575000762939453,-6.454999923706055 22.923999786376953,-7.4029998779296875 20.97100067138672,-7.802999973297119 C20.97100067138672,-7.802999973297119 18.950000762939453,-8.241999626159668 18.950000762939453,-8.241999626159668 C17.759000778198242,-8.47599983215332 17.132999420166016,-8.96500015258789 17.132999420166016,-9.72700023651123 C17.132999420166016,-10.704000473022461 17.982999801635742,-11.32800006866455 19.350000381469727,-11.32800006866455 C20.89299964904785,-11.32800006866455 21.665000915527344,-10.477999687194824 21.732999801635742,-9.579999923706055 C21.732999801635742,-9.579999923706055 24.3700008392334,-9.579999923706055 24.3700008392334,-9.579999923706055 C24.340999603271484,-11.904000282287598 22.339000701904297,-13.593999862670898 19.360000610351562,-13.593999862670898 C16.538000106811523,-13.593999862670898 14.310999870300293,-12.128999710083008 14.310999870300293,-9.491999626159668 C14.310999870300293,-7.206999778747559 15.873000144958496,-6.1519999504089355 17.74799919128418,-5.751999855041504 C17.74799919128418,-5.751999855041504 19.75,-5.311999797821045 19.75,-5.311999797821045 C21.097999572753906,-5.019000053405762 21.781999588012695,-4.599999904632568 21.781999588012695,-3.7109999656677246 C21.781999588012695,-2.7249999046325684 20.941999435424805,-2.0409998893737793 19.3700008392334,-2.0409998893737793 C17.680999755859375,-2.0409998893737793 16.791000366210938,-2.9010000228881836 16.71299934387207,-3.8480000495910645 C16.71299934387207,-3.8480000495910645 13.998000144958496,-3.8480000495910645 13.998000144958496,-3.8480000495910645z"></path>
        </g>
        <g opacity="1" transform="matrix(1,0,0,1,0,0)">
          <path fill="rgb(255,255,255)" fill-opacity="1" d=" M3.9649999141693115,-7.421999931335449 C3.9649999141693115,-9.854000091552734 5.068999767303467,-11.11299991607666 6.757999897003174,-11.11299991607666 C8.437999725341797,-11.11299991607666 9.326000213623047,-9.873000144958496 9.326000213623047,-8.515999794006348 C9.326000213623047,-8.515999794006348 12.041000366210938,-8.515999794006348 12.041000366210938,-8.515999794006348 C12.041000366210938,-8.515999794006348 12.041000366210938,-8.82800006866455 12.041000366210938,-8.82800006866455 C12.041000366210938,-11.454999923706055 10.038999557495117,-13.574000358581543 6.73799991607666,-13.574000358581543 C3.203000068664551,-13.574000358581543 1.093999981880188,-11.25 1.093999981880188,-7.432000160217285 C1.093999981880188,-7.432000160217285 1.093999981880188,-5.86899995803833 1.093999981880188,-5.86899995803833 C1.093999981880188,-2.0209999084472656 3.184000015258789,0.2540000081062317 6.729000091552734,0.2540000081062317 C10.118000030517578,0.2540000081062317 12.041000366210938,-1.9049999713897705 12.041000366210938,-4.385000228881836 C12.041000366210938,-4.385000228881836 12.041000366210938,-4.706999778747559 12.041000366210938,-4.706999778747559 C12.041000366210938,-4.706999778747559 9.326000213623047,-4.706999778747559 9.326000213623047,-4.706999778747559 C9.326000213623047,-3.3399999141693115 8.456999778747559,-2.2170000076293945 6.7769999504089355,-2.2170000076293945 C5.058000087738037,-2.2170000076293945 3.9649999141693115,-3.4079999923706055 3.9649999141693115,-5.859000205993652 C3.9649999141693115,-5.859000205993652 3.9649999141693115,-7.421999931335449 3.9649999141693115,-7.421999931335449z"></path>
        </g>
      </g>
    </g>
    <g transform="matrix(1.5,0,0,1.5,234.86203002929688,188.08309936523438)" opacity="1" style="display: block;">
      <g opacity="1" transform="matrix(1,0,0,1,43.9640007019043,43.5)">
        <path stroke-linecap="butt" stroke-linejoin="miter" fill-opacity="0" stroke-miterlimit="10" stroke="rgb(214,218,229)" stroke-opacity="1" stroke-width="2" d=" M33.856998443603516,14.678999900817871 C33.856998443603516,14.678999900817871 1.812999963760376,-3.7950000762939453 1.812999963760376,-3.7950000762939453 M-23.23200035095215,-28.839000701904297 C-23.23200035095215,-28.839000701904297 1.812999963760376,-3.7950000762939453 1.812999963760376,-3.7950000762939453 M33.6879997253418,-34.152000427246094 C33.6879997253418,-34.152000427246094 1.812000036239624,-3.7950000762939453 1.812000036239624,-3.7950000762939453 M-33.856998443603516,30.35700035095215 C-33.856998443603516,30.35700035095215 1.812999963760376,-3.7950000762939453 1.812999963760376,-3.7950000762939453 M1.812999963760376,-3.7950000762939453 C1.812999963760376,-3.7950000762939453 10.812999725341797,34.152000427246094 10.812999725341797,34.152000427246094"></path>
      </g>
      <g opacity="1" transform="matrix(1,0,0,1,43.5,43.5)">
        <path fill="rgb(164,214,255)" fill-opacity="1" d=" M2.2769999504089355,7.589000225067139 C8.564000129699707,7.589000225067139 13.66100025177002,2.492000102996826 13.66100025177002,-3.7950000762939453 C13.66100025177002,-10.081999778747559 8.564000129699707,-15.178999900817871 2.2769999504089355,-15.178999900817871 C-4.010000228881836,-15.178999900817871 -9.107000350952148,-10.081999778747559 -9.107000350952148,-3.7950000762939453 C-9.107000350952148,2.492000102996826 -4.010000228881836,7.589000225067139 2.2769999504089355,7.589000225067139z"></path>
        <path stroke-linecap="butt" stroke-linejoin="miter" fill-opacity="0" stroke-miterlimit="10" stroke="rgb(59,160,242)" stroke-opacity="1" stroke-width="2" d=" M2.2769999504089355,7.589000225067139 C8.564000129699707,7.589000225067139 13.66100025177002,2.492000102996826 13.66100025177002,-3.7950000762939453 C13.66100025177002,-10.081999778747559 8.564000129699707,-15.178999900817871 2.2769999504089355,-15.178999900817871 C-4.010000228881836,-15.178999900817871 -9.107000350952148,-10.081999778747559 -9.107000350952148,-3.7950000762939453 C-9.107000350952148,2.492000102996826 -4.010000228881836,7.589000225067139 2.2769999504089355,7.589000225067139z"></path>
      </g>
      <g opacity="1" transform="matrix(1,0,0,1,43.5,43.5)">
        <path fill="rgb(59,160,242)" fill-opacity="1" d=" M2.2769999504089355,-1.5180000066757202 C4.791999816894531,-1.5180000066757202 6.829999923706055,-3.555999994277954 6.829999923706055,-6.071000099182129 C6.829999923706055,-8.586000442504883 4.791999816894531,-10.625 2.2769999504089355,-10.625 C-0.23800000548362732,-10.625 -2.2769999504089355,-8.586000442504883 -2.2769999504089355,-6.071000099182129 C-2.2769999504089355,-3.555999994277954 -0.23800000548362732,-1.5180000066757202 2.2769999504089355,-1.5180000066757202z"></path>
      </g>
      <g opacity="1" transform="matrix(1,0,0,1,43.5,43.5)">
        <path fill="rgb(59,160,242)" fill-opacity="1" d=" M2.2769999504089355,-0.3790000081062317 C5.710999965667725,-0.3790000081062317 8.701000213623047,1.5210000276565552 10.253000259399414,4.328000068664551 C8.199999809265137,6.34499979019165 5.383999824523926,7.589000225067139 2.2769999504089355,7.589000225067139 C-0.8289999961853027,7.589000225067139 -3.6449999809265137,6.34499979019165 -5.698999881744385,4.328000068664551 C-4.146999835968018,1.5210000276565552 -1.156999945640564,-0.3790000081062317 2.2769999504089355,-0.3790000081062317z"></path>
      </g>
      <g opacity="1" transform="matrix(1,0,0,1,43.5,43.5)">
        <path fill="rgb(164,214,255)" fill-opacity="1" d=" M34.152000427246094,-25.804000854492188 C38.76300048828125,-25.804000854492188 42.5,-29.541000366210938 42.5,-34.152000427246094 C42.5,-38.76300048828125 38.76300048828125,-42.5 34.152000427246094,-42.5 C29.541000366210938,-42.5 25.804000854492188,-38.76300048828125 25.804000854492188,-34.152000427246094 C25.804000854492188,-29.541000366210938 29.541000366210938,-25.804000854492188 34.152000427246094,-25.804000854492188z"></path>
      </g>
      <g opacity="1" transform="matrix(1,0,0,1,77.6520004272461,9.347999572753906)">
        <path stroke-linecap="butt" stroke-linejoin="miter" fill-opacity="0" stroke-miterlimit="10" stroke="rgb(59,160,242)" stroke-opacity="1" stroke-width="2" d=" M0,8.347999572753906 C4.611000061035156,8.347999572753906 8.347999572753906,4.611000061035156 8.347999572753906,0 C8.347999572753906,-4.611000061035156 4.611000061035156,-8.347999572753906 0,-8.347999572753906 C-4.611000061035156,-8.347999572753906 -8.347999572753906,-4.611000061035156 -8.347999572753906,0 C-8.347999572753906,4.611000061035156 -4.611000061035156,8.347999572753906 0,8.347999572753906z"></path>
      </g>
      <g opacity="1" transform="matrix(1,0,0,1,43.5,43.5)">
        <path fill="rgb(59,160,242)" fill-opacity="1" d=" M34.152000427246094,-32.481998443603516 C35.99599838256836,-32.481998443603516 37.49100112915039,-33.97700119018555 37.49100112915039,-35.82099914550781 C37.49100112915039,-37.665000915527344 35.99599838256836,-39.1609992980957 34.152000427246094,-39.1609992980957 C32.30799865722656,-39.1609992980957 30.812000274658203,-37.665000915527344 30.812000274658203,-35.82099914550781 C30.812000274658203,-33.97700119018555 32.30799865722656,-32.481998443603516 34.152000427246094,-32.481998443603516z"></path>
      </g>
      <g opacity="1" transform="matrix(1,0,0,1,43.5,43.5)">
        <path fill="rgb(59,160,242)" fill-opacity="1" d=" M34.152000427246094,-31.64699935913086 C36.66999816894531,-31.64699935913086 38.862998962402344,-30.253999710083008 40.000999450683594,-28.195999145507812 C38.494998931884766,-26.715999603271484 36.43000030517578,-25.804000854492188 34.152000427246094,-25.804000854492188 C31.874000549316406,-25.804000854492188 29.80900001525879,-26.715999603271484 28.30299949645996,-28.19499969482422 C29.44099998474121,-30.253000259399414 31.634000778198242,-31.64699935913086 34.152000427246094,-31.64699935913086z"></path>
      </g>
      <g opacity="1" transform="matrix(1,0,0,1,43.5,43.5)">
        <path fill="rgb(164,214,255)" fill-opacity="1" d=" M11.277000427246094,42.5 C15.887999534606934,42.5 19.625,38.76300048828125 19.625,34.152000427246094 C19.625,29.541000366210938 15.887999534606934,25.804000854492188 11.277000427246094,25.804000854492188 C6.665999889373779,25.804000854492188 2.928999900817871,29.541000366210938 2.928999900817871,34.152000427246094 C2.928999900817871,38.76300048828125 6.665999889373779,42.5 11.277000427246094,42.5z"></path>
      </g>
      <g opacity="1" transform="matrix(1,0,0,1,54.777000427246094,77.6520004272461)">
        <path stroke-linecap="butt" stroke-linejoin="miter" fill-opacity="0" stroke-miterlimit="10" stroke="rgb(59,160,242)" stroke-opacity="1" stroke-width="2" d=" M0,8.347999572753906 C4.611000061035156,8.347999572753906 8.347999572753906,4.611000061035156 8.347999572753906,0 C8.347999572753906,-4.611000061035156 4.611000061035156,-8.347999572753906 0,-8.347999572753906 C-4.611000061035156,-8.347999572753906 -8.347999572753906,-4.611000061035156 -8.347999572753906,0 C-8.347999572753906,4.611000061035156 -4.611000061035156,8.347999572753906 0,8.347999572753906z"></path>
      </g>
      <g opacity="1" transform="matrix(1,0,0,1,43.5,43.5)">
        <path fill="rgb(59,160,242)" fill-opacity="1" d=" M11.277000427246094,35.82099914550781 C13.121000289916992,35.82099914550781 14.616000175476074,34.32600021362305 14.616000175476074,32.481998443603516 C14.616000175476074,30.63800048828125 13.121000289916992,29.14299964904785 11.277000427246094,29.14299964904785 C9.432999610900879,29.14299964904785 7.938000202178955,30.63800048828125 7.938000202178955,32.481998443603516 C7.938000202178955,34.32600021362305 9.432999610900879,35.82099914550781 11.277000427246094,35.82099914550781z"></path>
      </g>
      <g opacity="1" transform="matrix(1,0,0,1,43.5,43.5)">
        <path fill="rgb(59,160,242)" fill-opacity="1" d=" M11.277000427246094,36.65599822998047 C13.795000076293945,36.65599822998047 15.98799991607666,38.04999923706055 17.125999450683594,40.108001708984375 C15.619999885559082,41.5880012512207 13.555000305175781,42.5 11.277000427246094,42.5 C8.99899959564209,42.5 6.934000015258789,41.58700180053711 5.427999973297119,40.108001708984375 C6.565999984741211,38.04999923706055 8.758999824523926,36.65599822998047 11.277000427246094,36.65599822998047z"></path>
      </g>
      <g opacity="1" transform="matrix(1,0,0,1,43.5,43.5)">
        <path fill="rgb(164,214,255)" fill-opacity="1" d=" M-22.76799964904785,-22.76799964904785 C-19.415000915527344,-22.76799964904785 -16.695999145507812,-25.486000061035156 -16.695999145507812,-28.839000701904297 C-16.695999145507812,-32.19200134277344 -19.415000915527344,-34.9109992980957 -22.76799964904785,-34.9109992980957 C-26.121000289916992,-34.9109992980957 -28.839000701904297,-32.19200134277344 -28.839000701904297,-28.839000701904297 C-28.839000701904297,-25.486000061035156 -26.121000289916992,-22.76799964904785 -22.76799964904785,-22.76799964904785z"></path>
        <path stroke-linecap="butt" stroke-linejoin="miter" fill-opacity="0" stroke-miterlimit="10" stroke="rgb(59,160,242)" stroke-opacity="1" stroke-width="2" d=" M-22.76799964904785,-22.76799964904785 C-19.415000915527344,-22.76799964904785 -16.695999145507812,-25.486000061035156 -16.695999145507812,-28.839000701904297 C-16.695999145507812,-32.19200134277344 -19.415000915527344,-34.9109992980957 -22.76799964904785,-34.9109992980957 C-26.121000289916992,-34.9109992980957 -28.839000701904297,-32.19200134277344 -28.839000701904297,-28.839000701904297 C-28.839000701904297,-25.486000061035156 -26.121000289916992,-22.76799964904785 -22.76799964904785,-22.76799964904785z"></path>
      </g>
      <g opacity="1" transform="matrix(1,0,0,1,43.5,43.5)">
        <path fill="rgb(59,160,242)" fill-opacity="1" d=" M-22.76799964904785,-27.625 C-21.427000045776367,-27.625 -20.339000701904297,-28.71299934387207 -20.339000701904297,-30.054000854492188 C-20.339000701904297,-31.395000457763672 -21.427000045776367,-32.481998443603516 -22.76799964904785,-32.481998443603516 C-24.108999252319336,-32.481998443603516 -25.195999145507812,-31.395000457763672 -25.195999145507812,-30.054000854492188 C-25.195999145507812,-28.71299934387207 -24.108999252319336,-27.625 -22.76799964904785,-27.625z"></path>
      </g>
      <g opacity="1" transform="matrix(1,0,0,1,43.5,43.5)">
        <path fill="rgb(59,160,242)" fill-opacity="1" d=" M-22.76799964904785,-27.01799964904785 C-20.937000274658203,-27.01799964904785 -19.343000411987305,-26.003999710083008 -18.514999389648438,-24.507999420166016 C-19.610000610351562,-23.430999755859375 -21.111000061035156,-22.76799964904785 -22.76799964904785,-22.76799964904785 C-24.423999786376953,-22.76799964904785 -25.926000595092773,-23.43199920654297 -27.020999908447266,-24.506999969482422 C-26.19300079345703,-26.0049991607666 -24.599000930786133,-27.01799964904785 -22.76799964904785,-27.01799964904785z"></path>
      </g>
      <g opacity="1" transform="matrix(1,0,0,1,100.5,86.625)">
        <path fill="rgb(164,214,255)" fill-opacity="1" d=" M-22.76799964904785,-22.76799964904785 C-19.415000915527344,-22.76799964904785 -16.695999145507812,-25.486000061035156 -16.695999145507812,-28.839000701904297 C-16.695999145507812,-32.19200134277344 -19.415000915527344,-34.9109992980957 -22.76799964904785,-34.9109992980957 C-26.121000289916992,-34.9109992980957 -28.839000701904297,-32.19200134277344 -28.839000701904297,-28.839000701904297 C-28.839000701904297,-25.486000061035156 -26.121000289916992,-22.76799964904785 -22.76799964904785,-22.76799964904785z"></path>
        <path stroke-linecap="butt" stroke-linejoin="miter" fill-opacity="0" stroke-miterlimit="10" stroke="rgb(59,160,242)" stroke-opacity="1" stroke-width="2" d=" M-22.76799964904785,-22.76799964904785 C-19.415000915527344,-22.76799964904785 -16.695999145507812,-25.486000061035156 -16.695999145507812,-28.839000701904297 C-16.695999145507812,-32.19200134277344 -19.415000915527344,-34.9109992980957 -22.76799964904785,-34.9109992980957 C-26.121000289916992,-34.9109992980957 -28.839000701904297,-32.19200134277344 -28.839000701904297,-28.839000701904297 C-28.839000701904297,-25.486000061035156 -26.121000289916992,-22.76799964904785 -22.76799964904785,-22.76799964904785z"></path>
      </g>
      <g opacity="1" transform="matrix(1,0,0,1,77.82099914550781,57.75)">
        <path stroke-linecap="butt" stroke-linejoin="miter" fill-opacity="0" stroke-miterlimit="10" stroke="rgb(59,160,242)" stroke-opacity="1" stroke-width="2" d="M0 0"></path>
      </g>
      <g opacity="1" transform="matrix(1,0,0,1,43.5,43.5)">
        <path fill="rgb(59,160,242)" fill-opacity="1" d=" M34.32099914550781,15.46399974822998 C35.6619987487793,15.46399974822998 36.75,14.376999855041504 36.75,13.03600025177002 C36.75,11.694999694824219 35.6619987487793,10.607000350952148 34.32099914550781,10.607000350952148 C32.97999954223633,10.607000350952148 31.89299964904785,11.694999694824219 31.89299964904785,13.03600025177002 C31.89299964904785,14.376999855041504 32.97999954223633,15.46399974822998 34.32099914550781,15.46399974822998z"></path>
      </g>
      <g opacity="1" transform="matrix(1,0,0,1,43.5,43.5)">
        <path fill="rgb(59,160,242)" fill-opacity="1" d=" M34.32099914550781,16.070999145507812 C36.152000427246094,16.070999145507812 37.74700164794922,17.084999084472656 38.57500076293945,18.58099937438965 C37.47999954223633,19.658000946044922 35.97800064086914,20.320999145507812 34.32099914550781,20.320999145507812 C32.665000915527344,20.320999145507812 31.163000106811523,19.658000946044922 30.06800079345703,18.58300018310547 C30.895999908447266,17.084999084472656 32.4900016784668,16.070999145507812 34.32099914550781,16.070999145507812z"></path>
      </g>
      <g opacity="1" transform="matrix(1,0,0,1,43.5,43.5)">
        <path fill="rgb(164,214,255)" fill-opacity="1" d=" M-33.393001556396484,39.4640007019043 C-28.363000869750977,39.4640007019043 -24.285999298095703,35.387001037597656 -24.285999298095703,30.35700035095215 C-24.285999298095703,25.32699966430664 -28.363000869750977,21.25 -33.393001556396484,21.25 C-38.42300033569336,21.25 -42.5,25.32699966430664 -42.5,30.35700035095215 C-42.5,35.387001037597656 -38.42300033569336,39.4640007019043 -33.393001556396484,39.4640007019043z"></path>
      </g>
      <g opacity="1" transform="matrix(1,0,0,1,10.107000350952148,73.85700225830078)">
        <path stroke-linecap="butt" stroke-linejoin="miter" fill-opacity="0" stroke-miterlimit="10" stroke="rgb(59,160,242)" stroke-opacity="1" stroke-width="2" d=" M0,9.107000350952148 C5.03000020980835,9.107000350952148 9.107000350952148,5.03000020980835 9.107000350952148,0 C9.107000350952148,-5.03000020980835 5.03000020980835,-9.107000350952148 0,-9.107000350952148 C-5.03000020980835,-9.107000350952148 -9.107000350952148,-5.03000020980835 -9.107000350952148,0 C-9.107000350952148,5.03000020980835 -5.03000020980835,9.107000350952148 0,9.107000350952148z"></path>
      </g>
      <g opacity="1" transform="matrix(1,0,0,1,43.5,43.5)">
        <path fill="rgb(59,160,242)" fill-opacity="1" d=" M-33.393001556396484,32.17900085449219 C-31.381000518798828,32.17900085449219 -29.75,30.54800033569336 -29.75,28.535999298095703 C-29.75,26.52400016784668 -31.381000518798828,24.89299964904785 -33.393001556396484,24.89299964904785 C-35.404998779296875,24.89299964904785 -37.0359992980957,26.52400016784668 -37.0359992980957,28.535999298095703 C-37.0359992980957,30.54800033569336 -35.404998779296875,32.17900085449219 -33.393001556396484,32.17900085449219z"></path>
      </g>
      <g opacity="1" transform="matrix(1,0,0,1,43.5,43.5)">
        <path fill="rgb(59,160,242)" fill-opacity="1" d=" M-33.393001556396484,33.0890007019043 C-30.645999908447266,33.0890007019043 -28.253000259399414,34.61000061035156 -27.011999130249023,36.85499954223633 C-28.655000686645508,38.46900177001953 -30.908000946044922,39.4640007019043 -33.393001556396484,39.4640007019043 C-35.87799835205078,39.4640007019043 -38.13100051879883,38.46900177001953 -39.77399826049805,36.85499954223633 C-38.53200149536133,34.60900115966797 -36.13999938964844,33.0890007019043 -33.393001556396484,33.0890007019043z"></path>
      </g>
      <g fill="none" stroke-linecap="round" stroke-dashoffset="1" stroke="rgb(255,255,255)" stroke-width="4" opacity="1">
        <path></path>
      </g>
    </g>
  </g>
</svg>