<svg width="48px" height="50px" viewBox="0 0 48 50" version="1.1" xmlns="http://www.w3.org/2000/svg" xmlns:xlink="http://www.w3.org/1999/xlink">
  <!-- Generator: Sketch 58 (84663) - https://sketch.com -->
  <title>Artboard</title>
  <desc>Created with Sketch.</desc>
  <defs>
    <linearGradient x1="100%" y1="29.145%" x2="0%" y2="70.855%" id="linearGradient-1">
      <stop stop-color="#23EA76" offset="0%"></stop>
      <stop stop-color="#00AB6A" offset="100%"></stop>
    </linearGradient>
  </defs>
  <g id="Artboard" stroke="none" stroke-width="1" fill="none" fill-rule="evenodd">
    <g id="icon-multi-user" transform="translate(0.000000, 10.000000)" fill="url(#linearGradient-1)" fill-rule="nonzero">
      <path d="M28.247,17.9999991 L30,17.9999991 C30.422,17.9999991 30.84,18.024 31.25,18.07 C31.898,18.023 32.58,17.9999991 33,17.9999991 L38,17.9999991 C43.523,17.9999991 48,22.477 48,27.9999991 L40.955,27.9999991 C40.985,28.33 41,28.663 41,28.9999991 L41,30.9999991 L7,30.9999991 L7,28.9999991 C7,28.663 7.015,28.33 7.045,27.9999991 L0,27.9999991 C0,22.477 4.477,17.9999991 10,17.9999991 L15,17.9999991 C15.42,17.9999991 16.102,18.023 16.75,18.07 C17.16,18.024 17.578,17.9999991 18,17.9999991 L19.753,17.9999991 C18.7117218,17.4780411 17.7749147,16.769674 16.989,15.91 C14.4244993,18.5142564 10.2880451,18.7071312 7.49233557,16.3528109 C4.69662608,13.9984907 4.18281905,9.88954241 6.31271345,6.91929577 C8.44260784,3.94904913 12.4991883,3.11741877 15.626,5.01 C17.2804898,1.92413488 20.4985862,-0.00118909045 24,-9.44609837e-07 C27.5017726,-0.00155782011 30.7203408,1.9238185 32.375,5.01 C35.5018117,3.11741877 39.5583922,3.94904913 41.6882866,6.91929577 C43.8181809,9.88954241 43.3043739,13.9984907 40.5086644,16.3528109 C37.7129549,18.7071312 33.5765007,18.5142564 31.012,15.91 C30.2257883,16.7697719 29.288635,17.4781445 28.247,17.9999991 L28.247,17.9999991 Z M40.586,26 L45.748,26 C44.86,22.55 41.728,20 38,20 L36.326,20 C38.391637,21.4527074 39.8955571,23.5709048 40.586,26 L40.586,26 Z M11.674,20 L10,20 C6.35161896,20.0001323 3.16512098,22.4677352 2.252,26 L7.414,26 C8.10444286,23.5709048 9.60836303,21.4527074 11.674,20 L11.674,20 Z M32.217,14.27 C33.978955,16.3080458 37.0388581,16.5836633 39.1366473,14.8932798 C41.2344366,13.2028964 41.6157619,10.1543618 39.9989742,7.99934125 C38.3821865,5.84432072 35.3486711,5.35774424 33.139,6.899 C33.374,7.725 33.5,8.598 33.5,9.5 C33.502506,11.1755902 33.0597323,12.8217559 32.217,14.27 L32.217,14.27 Z M14.861,6.899 C12.6513289,5.35774424 9.61781348,5.84432072 8.0010258,7.99934125 C6.38423813,10.1543618 6.76556344,13.2028964 8.86335267,14.8932798 C10.9611419,16.5836633 14.021045,16.3080458 15.783,14.27 C14.9402677,12.8217559 14.497494,11.1755902 14.5,9.5 C14.5,8.598 14.626,7.725 14.86,6.899 L14.861,6.899 Z M24,17 C28.1421356,17 31.5,13.6421356 31.5,9.5 C31.5,5.35786438 28.1421356,2 24,2 C19.8578644,2 16.5,5.35786438 16.5,9.5 C16.5,13.6421356 19.8578644,17 24,17 Z M9,29 L39,29 C39,24.0294373 34.9705627,20 30,20 L18,20 C13.0294373,20 9,24.0294373 9,29 L9,29 Z" id="Shape"></path>
    </g>
  </g>
</svg>